<mxfile host="app.diagrams.net" agent="Mozilla/5.0 (Macintosh; Intel Mac OS X 10_15_7) AppleWebKit/537.36 (KHTML, like Gecko) Chrome/133.0.0.0 Safari/537.36" version="26.2.13">
  <diagram name="Page-1" id="Fbh1gmwwaH0PruVxI3FG">
    <mxGraphModel dx="2754" dy="1227" grid="1" gridSize="10" guides="1" tooltips="1" connect="1" arrows="1" fold="1" page="1" pageScale="1" pageWidth="850" pageHeight="1100" math="0" shadow="0">
      <root>
        <mxCell id="0" />
        <mxCell id="1" parent="0" />
        <mxCell id="NZnQUXiXrCBAcq0i8BXY-1" value="" style="shape=image;verticalLabelPosition=bottom;labelBackgroundColor=default;verticalAlign=top;aspect=fixed;imageAspect=0;image=data:image/png,iVBORw0KGgoAAAANSUhEUgAABNcAAAC3CAYAAAAxULhtAAAAAXNSR0IArs4c6QAAAJZlWElmTU0AKgAAAAgABAEaAAUAAAABAAAAPgEbAAUAAAABAAAARgEoAAMAAAABAAIAAIdpAAQAAAABAAAATgAAAAAAAACQAAAAAQAAAJAAAAABAASShgAHAAAAEgAAAISgAQADAAAAAQABAACgAgAEAAAAAQAABNegAwAEAAAAAQAAALcAAAAAQVNDSUkAAABTY3JlZW5zaG90ZGsMCwAAAAlwSFlzAAAWJQAAFiUBSVIk8AAAAddpVFh0WE1MOmNvbS5hZG9iZS54bXAAAAAAADx4OnhtcG1ldGEgeG1sbnM6eD0iYWRvYmU6bnM6bWV0YS8iIHg6eG1wdGs9IlhNUCBDb3JlIDYuMC4wIj4KICAgPHJkZjpSREYgeG1sbnM6cmRmPSJodHRwOi8vd3d3LnczLm9yZy8xOTk5LzAyLzIyLXJkZi1zeW50YXgtbnMjIj4KICAgICAgPHJkZjpEZXNjcmlwdGlvbiByZGY6YWJvdXQ9IiIKICAgICAgICAgICAgeG1sbnM6ZXhpZj0iaHR0cDovL25zLmFkb2JlLmNvbS9leGlmLzEuMC8iPgogICAgICAgICA8ZXhpZjpQaXhlbFlEaW1lbnNpb24+MTgzPC9leGlmOlBpeGVsWURpbWVuc2lvbj4KICAgICAgICAgPGV4aWY6UGl4ZWxYRGltZW5zaW9uPjEyMzk8L2V4aWY6UGl4ZWxYRGltZW5zaW9uPgogICAgICAgICA8ZXhpZjpVc2VyQ29tbWVudD5TY3JlZW5zaG90PC9leGlmOlVzZXJDb21tZW50PgogICAgICA8L3JkZjpEZXNjcmlwdGlvbj4KICAgPC9yZGY6UkRGPgo8L3g6eG1wbWV0YT4KTxZR8QAAABxpRE9UAAAAAgAAAAAAAABcAAAAKAAAAFwAAABbAADUjD79oGUAAEAASURBVHgB7L0HvCZF0TXeuyxLzlEkSpaMgJIk55xBkIwkyTlnBIEXJEiUnIPkjAICIooISlAREBAk5wy7939OVZ+emnme5967i37f+/1/07DT1VV1qqqre1I/M3OH9KGktrQZaDPQZqDNQJuBNgNtBtoMtBloM9BmoM1Am4E2A20G2gy0GWgzMMoZGNIuro1yzlpAm4E2A20G2gy0GWgz0GagzUCbgTYDbQbaDLQZaDPQZqDNQJsBy0C7uNZOhDYDbQbaDLQZaDPQZqDNQJuBNgNtBtoMtBloM9BmoM1Am4E2A6OZgXZxbTQT18LaDLQZaDPQZqDNQJuBNgNtBtoMtBloM9BmoM1Am4E2A20G2gy0i2vtHGgz0GagzUCbgTYDbQbaDLQZaDPQZqDNQJuBNgNtBtoMtBloMzCaGWgX10YzcS2szUCbgTYDbQbaDLQZaDPQZqDNQJuBNgNtBtoMtBloM9BmoM1Au7jWzoE2A20G2gy0GWgz0GagzUCbgTYDbQbaDLQZaDPQZqDNQJuBNgOjmYF2cW00E9fC2gy0GWgz0GagzUCbgTYDbQbaDLQZaDPQZqDNQJuBNgNtBtoMtItr7RxoM9BmoM1Am4E2A20G2gy0GWgz0GagzUCbgTYDbQbaDLQZaDMwmhloF9dGM3EtrM1Am4E2A20G2gy0GWgz0GagzUCbgTYDbQbaDLQZaDPQZqDNQLu41s6BNgNtBtoMtBloM9BmoM1Am4E2A20G2gy0GWgz0GagzUCbgTYDo5mBdnFtNBPXwtoMtBloM9BmoM1Am4E2A20G2gy0GWgz0GagzUCbgTYDbQbaDLSLa+0caDPQZqDNQJuBNgNtBtoMtBloM9BmoM1Am4E2A20G2gy0GWgzMJoZaBfXRjNxLazNQJuBNgNtBtoMtBloM9BmoM1Am4E2A20G2gy0GWgz0GagzUC7uNbOgTYDbQbaDLQZaDPQZqDNQJuBNgNtBtoMtBloM9BmoM1Am4E2A6OZgXZxbTQT18LaDLQZaDPQZqDNQJuBNgNtBtoMtBloM9BmoM1Am4E2A20G2gy0i2vtHGgz0GagzUCbgTYDbQbaDLQZaDPQZqDNQJuBNgNtBtoMtBloMzCaGbDFtZEjR6ahQ4emvr4+MzNkyBCrI5+8ZptKTQzbwkveqy17qpu2Ir/13+a/OR80v1hrjrXzr93/NBc0P3q1NZ9Ut8ef9vgfjyVxXrTnn/b805wPOr7EOdOef9rzT6/zjeaL5JpPqtvzT3v+iceSOC/a8097/mnOBx1P4pxpzz/t+UfnF82PXm3NJ9Xt+ec/e/4ZstwKi7tFjgQKG/w3NNeoki21gdkHgnQEeNuFXJOjjP8MnxWHDHG5NUnTChfybBHPuA5CG6t9bj86Am0mgByoRFjRHRCfYwJgCLyrhd0UHMZJ/5SwVFITZK6JsOnqX8JB1P938OrT6MYf8cwfexFLJa/y113u+VcWZGd08dEHadkVzZq2WVwWt84f7Hb0kdGDIlRtMjT+u/M/RxD9xACafKrHIcnt3vu/6/c+fri8A0+7KAyF/oTPTVYdM00yw6BRwuyClw4xKuSNxD/JCj7zeVzrrxBHzOiWrngwa+MflUizhEBJ1o+/Lv8/lb/Y/xILYxxEUddUE9Kliz1zLJzqgfCyHUMLqYzsmOIa3xuOMr82WN0sd4EVVh3v4+02eP7s4+ChuH0QVGehIovDIQ9HUMPwYpNy8KFrZN5mawbXxuWSqOVucggFLYxqarPkUKoQnd3BJ7vy4DR5wpO2kpUKH+38O6D3jUpFGEjwjC08apIsQd0ZYRtlhQbB/g8GH0wVP7TDMjr4mKT+8BafHLk789+Bh5Fa/jKm9I9tOkJtokybSdDWzDqkrVBXsswyvUyXRKAd+U281FlHvYiPOtJjbbE2hWrneNVs1jVfTeF/qD1ACMVLL73IJ80S41Yum3rGB1PjQ5zwpFUGi++KDfa7yemQfDsW0aE15LlqM4aRkPkxK8vJFJ4stOP8jXTUowsW2YouJXONaptd1fPa8N8La76w6SXv5p+mm0V6smM6GDzj81xAgJREs4YiTwcmZ9uKmNV5gWzpuH+/Zq/Tuo7nOQMSJLkPiaSOR+DaxZJNLtd1ORWzjgUlfXl3SxZ0rTOQd+gTo6LI1e5Sy7SJ1OjsfxURbarl/a60c/+t195/z0Cl7xG4H992iQkuuu1/bgU+IdS+wflMuprXDvYoPb7KA7lVGbR/N+ZAc+SRCK+aClUu2IpAtVlXRRpV/JCBWfiVagcV/VZCgiGhsFiRlFZRTN7DSUxmnsFuLGPdQtlqFtd1mAXPhW+95SDZ0f4hDWGgBRXvQmWFTCE0/mYJm1rOsT9U6w8K0+2YYWNZcjIu65gx0DmpTYQsxTqrClKJBBYntsP8oVgi1iyWBXRe/WevO7QMxGzko4fAbsDUZZcsiWWJPBa1VYvHWhjS9dK0LLRqaHvwJPAPfPbZdljUZHUpQ5bNi2vBjKmxXUqwR15NNyvWeMWxW+CxkgfM6gZBBwgIbOKzojwah0UCqQI2RSq1thrNmsqZJ1E3fJEZEQMgI5YqgoKBONJRuz96dDDR3sB49SOiKvq/h5df1ZVPH0F6Zs7C+FsGpSecavFZk+elHr/bjPK6Vqe8jqd2J8dtdN+OmnanjYiPdKdmd07EFFqEakIzHVmB7cYlbNZBUSIHFLM1fN6NndcYPt//MUJ5CGv22ECp8XLbBNxke9FsNlVUIj6bLDKZYN2UyWa019SRIemqrboXX/JYUzf+cFFkuQN2DFcwmZerpqq3pYO6dvwkP5eO/FNXQumgFi9Aa1qUN2WRF+kasNGgDflqiLo2m/qxLVo1DYhmHUuMrxsdeRHXnW5qN9tCiV/V1SWEIoTMgsbGznmZb7wKp55FvF83NvHwnU0wCrswy+dS8mt4yOPRmPoqwURtvCwsU6KlTrzksaY6e8LSje/9cKHN16hIGkWZEG3MbKwDT75KBsbLEtlSTVXSLBHqHN9G3Saf7YjrTzfqERf9CqeacpWoV3g0lpU1dTTUDKjkMqsRF/3zeNPEq226wWk8flPGYngnza7UM8t9gdnUk7ypL36tplIMOgsVek13FBpfFz8Krgal2qObXbFRVzRrFvWrS8rK0HbTFc+tVFvNK3Fkn+1ISx5rkzcCrGHYyKXsn9InPwTVZBsUG+FsfqKt+c9jQhNPk5Gt44ZqygcqET+Qbv9yWmKI1e0m23YzalGyhZIvCqr9r9yCVoswCko1cYUWoZpCFs+o8qpUS4u1jDBG0X7+MGF2EZHkq03SrdR4JTDIzBn0rbaNGy46bEZ+s92UZbhVlKlU8Yuj/qstDbW9ln3PAHnV+bNOd8ZZt9SrJb+sWfwBE3iRa/Dq+a9nc0C/2YHtJ+ahwmveq3axIsrKVkWeIqVAOfZZ7HM34IKqyNCtjpF1ZPQlW5EHuhiDNRORB1o7v2BWR481Qa2hpa7KuMSOj3LfY6vM9/ZQApUxq8UVs4YvBzJIoSjvpIir7h/YEjIcE8xoxfdcVTOIYvkPWoVn8F4bASWHAZtXuSbbI/FrQ6lF75J7FIyAJRg2EvzGWJIdtZt0sGAWe22I664rD6qzBWtmRK6KbRlTXQSIlYtrCpJ8YZs8Ya3O2RTP7DWAzIvG3X8xzymFN0s09mbLnSnKsVvs3NKDvOUaVcm9RFRDaTSdmbcuQ3DyX/RDwGUICYod892rit+nTDY9alWMf9SQHlOIf5Th7NN/HN8rf4yuKWv6p5wljhxplqYs69Tib+oQNzp44noVxSb/8KC53AvShS8rDO/r4+uZlbviQ4xutfnP2W0AYjPSHnOF8f03G49DAJbt1hls5zzwqGKsTNRsg2dtbrKeUxUutqUjm5KxbvKa7ajTnyzajBjRPMnFp9ya+mp386FcEl+dLB1Ry4uMNGso/afyn1NePDTjbbapKJ7qAh4Fgn4H1//KS8yNaNVyzXYsPErHUz2tsQjX1Hdp3Fb+ndu0GHW70RlfBgzt2vGrGybyKnw5ZmT8SASPDzrgAif3Aj7YV3vE3zqIje2Mbi/KTAy2alFVWxxhvWY0LNJT7Vzni2ado6/VBFs6IBeedbcivGTmX3jWEJQbBzRMXyDUOv4ITwXxpFZktIV/tNmrUM5ifnNtjLxp4ru1CY79/1p4BdLwL7+q5YPt4j93NEwR6790zbR0yAS4Xzx0TZ4NWB8zXjZNocmDUKwa3l0W6P8agsHaPhejHYXovgaeHmOuzFTgNaOI+pKJF2vKol3pqi6yDJJfybuNa8f4E8sCcE0mvkvr24YjUw14E4PJuluhfpTV8JRBaPezGWz2uhiSjSa+i+qgWc3YOoCYY9UTx8yZ7p9I+xS0eC2oDnRgxF5B2Trt+6ok6p9zq6uSyrTuf9ys4wKPigyK2c6V12jYATfXZGb/ZskM1QBgs83iXrx2Tt24eLEWphdPvipLUbPJrc72jmOb8bgX9V82WQ9UpFt50vmr8iWZe1Me7Pyd81fe8io5Gsgv5HBtFvP1gw0L2SVs9Ue2JGBvVRSlx6ZMSGq1ukh/gNpchUA56339I6CsdfFvyYKlqGodcOuOJM0SlBSEC7CNOoWZ+ZVftyA73ndq+57YtffBWGWnYip/VXT2Oq9ZjFFxLFxHmSvjDwllI9E/9UI6HmlGouH5r6K1UYNY6ciaJbxmuwhEhPxr/liaTa48SZnxi6e5FSMkjWJVf54VcD7+ASJt1WYn8NXurKN/SZ3ngdCiSo4veiv9h0yqUhMMdf210IZ9NakvrDpiA4OGbJtNAXJtUyjvWXbxb/o51dBxNSQLxmiPJUNtQrBtfOBs32E70CbHRjsv29lMFVhhUBrxLmhO1jIR2DE5dWTeuoY1RmNjZkcDJ8h/Fq9sy3qz7pRX/pVYcnoV4VVzWJr5qyxWVmRTPihx3uDxEdsfvvI6GKpbtIPBSac/fE1Wawgd56/zolqky47ZSMNg9h+zww1Kbf8DTz7Ip2npmnphuMCamWe7UhOf2/RjpRu+IcrNynlhgOgHTzWJI6QrrZiz0Po2KvhgNPokXV2yejyxTT/UsdJ0mgUDjV81QLm/CgC1ToTGCm25LAnKmFwV8X+CqPWxYbA/mVSbOkqT5LH+uvHX8Wyx9OfRNXxbR2tkPX7ZqOu4LNsoJ0RwtbPRO5plIQ0DZucvk/vFFs+l9RNiwJOEDbscM9fVxQ75xPm52GuystUyLx0vO5Wcus0Se0eapRPv/I4tFHOIFSgaiAAZjfJueOqpxOCavCyLMVOlG0TQjjrHFDGRHtBeL3zm1/CBV+IAz+LHhnOGDfMfdK1NQOSBtqmHmnJuCp4yZ5UpafOReihx6vFYYyU7KTgwjYVNPB5RtyvejPTeyG7UkJ3I60V3xUOZMQ6m9MR3E3Qx2J9aTl0X1ACsDIz4Ji0L8s+aeeNifbf8RT3a8kGUFWAyz8Y0O6vpZV5BmBAtA2audHJtVeRRTYFkiFU9eBGvS3k/flZgg2LDPrMUd91sQt6DbVjJrFbDJP1tomKmcxI74ofYNbC1Dun4D/tQ1r2M6XDDYv1SrwoDhFvymvxm0Z2Q69k5Ayp+/Q1eDk4+ibaFP02eklDoGs80Mk2bLDkuYZzp2w6edSRreExZEZVkkZ9VrZ/xJ9Ds08SRln5VMwPV+c9jLv3PPqPHSFdWunPV9UoPlMLJtfnHXNBIULe84VUDNhoFD/2GqDShU9xBqQyXFCzsogGuW1I0UqvVDXVrZl6/+182Yi5rBtWQYbZJV1XpYGa7MHfIeNFqpF2zv62ujmRTUURXssiaJY6Vc7SNaGhbsxvPjNi5kUjfdaTHUfBZWfJgCaAcRWpdjh92bQcFHf9i3ILJRLFjRusb4UxHioUZdNlFDHr3/Qd6xWkAi6ea5kj3KFEtqvQDidkCpJsF8Cx/tBgthTgHEFFMR+W10Nyu3GW/Mk/TLGp7iwxw7OrL7EHuGr6zYiqA0EFXtTStNjytZQ9qmxnHD80HmNK9ZjBFkKMKbeZpKGz1O+njFWKth24onkCyhx5VcNxD4/8emwllfM3S5FvioSRdyVUPFk895WMwtezK/2DwwkiX9WDwESc69jfy1O9oV/L/M7Wy19NbUyG0q/lfjUZtaGlU+s0aooKHzA701IlF6QFPcIp9/3e8cFFeTHTBm4vMV9Z7uZXcfBajIAaJj5BedDbVS/z1+c3EhHbJP7wUtpKhzqsdIukv/7JjdehczUzgB7J46MYrwv8wUYs321asjINFOqKNiU0Vp1NV2zWabeE668FrdmLJ6Qcfg6eetXMPMZDlaQUzDH4lMqtqu4/sne4oEJ41OL6lxBR8oS6b1LnbLDAM8KnluKqmnDwWt+KXUGxJ36UVvlvbsZBkB8WPCNoHrbksG9Q3P9kAdVhy5Y0gM3xNGOIyQw6pbQM/kDWV/3Sj+GGsbLAC3ex/6W9DR7qlpoHB4umL+rnQp7WFZ0y5SM9Y1KMOZOJTzfAZE/MfdaJef3jT4walA595o4s3o9h04Lv4km63uonvpjMqvNG1x/wQq/yrHWvGQR2Vpsz4YqLRbyxZr0Mn4G3QokM5Zh31mny2ZVi1eKyBJZw6Ml9uR0wAOWVZr5iQfsSLzvbccLYdZZT/x0uJrEoHfLJTVqETfUNGoqmjtgdgqKxXQlKbNYspcRMXmEzSdSO4hDyi6/7HTJlB5RtS7fwCKHHmHwhNRA0C9WiIpcQIhtGF4XJuhTcFASmgLtvCkNerUG9w/W9aGLD/JQbFNph4gpcyYZ3n/kCbGb//1flf49C93w3/Sk9wRbLGRoP+eKKvhoftyn+FEDLWtCjlLv5pBmzZliYh5LGYf7PhbfdHOtoTMtbUgRE5kH5t/SCbyb6IGPVSj0OmIrdus6nhPZK+WtQyHuLltwxZuHcLbf0Cj+sn1fpHff83kCEq626fQEqr+SN+ZqvpJkyzwSoBepwlroLIhOZvVmAPqmi8R5q3qmXR2hqvgiqGPCpNnqZfuc81fTZjFM9rSqvIMiyjIj/4t3ERrmk9ODQHslHplSfXogmpadwq9SqkSFHfDl3ZiOUDTNuBUBd8kXNCuQWv8JdgOCiZaUOSr+xtpV7O8o5U8k0flMGuQYsjAXJNPerU2GzJO/FU8LZrRto1fdrUrRSTVO8hos4A4gEV/vfhq/xZDnrmz6SN/itRyjETBF6/+deBRVi3W6wPiOfw9Moi+IaPNuu0I3vhoduPiJYGEA+o0B/eZAMolO5Br0YzOKU+pzbay7shtXx+C08llFwNbv93SMeWNnj80FNcsmn7ExrdRlxGpEsd0ZKplqxpJ+pLR5hYS9YLb3wYY157FfpiH1miX+dkZi98th39FDobGNTxtzirCMVCe6IrqVOSmc8g7KUfVApJXYuxcAZHENf0L7/i01KMTfKmB+lI3sSL38TFdoWpqCiv6FGU204ZI8h4Y/m5kZxynLTJJn2ThESBn+35/qsjH/WdpilS3Y6qrkUNzgldIFU5jl6btHqt2meVx5ejhEUvlQ5sg9lr/5HM8Fmv0NGWDDbq2MzqVikONqQT5aIp61aEN3k/8RPbzcZA+BhTwROUG008+eLJp6kHjCnIGPhRVJJAOxA0rpurJBFPYK8iuez00hsEvxbfIPSbKv/H8D0cRTbTwkJeR4mKHUJn9IdXyntAC7uXnmxTMYYiWjH30isOSMiJagnR1r7cNQnSb9YZz/lInI4TZksyiijvVnInTBzx0C39yjpNuNiqm/LS7qlQF6hrBZeJrvzcQd2wxv7b/YpFH+z36n9w1tUP7NjiHf11Ke6/OlPonODZ07lFQNiQE9ViWBubOAnIY7HzlZPVqKjNuhjLNHkxXhkiv3uRRkS5Jvvmi5fe7u7L8X7WZDw6f8qubHmszRjcq8ayKY0edeD1dQcgcDCu0lP31rTTX1tI20/CMDG1NvRSqBkhkyPuvarHL67qDHSIAygSO4971RcXGLphQpgOIwy2FIFybSLSLDmImrOo71pFr2ZXMtVuU54bHgIy+5TvDI9cWZTfaMthmFXIU/TVH75pz9sZYRVHzPcUXwin/ZqWNXqPv+sqc95qbGEvD21NUPyCW8fnAIp2lpoRMHWgozyMH/c35o1bFtkXbcwem7p/IWSp2e5ludOKuZN6o1u+uAam+qXYpM8eSCas9TfHZRV1ANSNuELgFNEvGyVHIJyGFv+3RDq+ZM2CyFbMMBhyTj9qGt6U3T/5FMYScM7m4NQnL427Wjdw8Rat1uiBNWrqHY3/vXglP4bcybNxrg9eBnTqVgNZ5drxhFQ8NxDxpGORrna5KCMdsxrppl5ds5JGTKQrDVHdpd25wsR68JqOivqkWZSpged/6C/A3BeF70i/BA2H1b5cx3fu/4grB2aYHGyNzj5MTZ0BT/0h0XH8iXLh2RfSuRQ82r1o6bKOOs12UxZxvej+MIyTchbFrLb66lJsZUgKGWNN9jnz1SZO9q2mgHqosmqhybMCQdNvhklsGDYi34SjsYmxEN5sdzfpnhUzWyyxLZp8xVnpiUNpJffWQNvKykCalRwY65htMjtGSJbbdY0sKyrZpw0MaGu60PUBx+BX44+zGhrRojkV3hoMyW1ETYLi+LuNHH7GqVIENTyExCiuZk2s40h5kX5HOysWOYjYBfGtliMYKe2mfeGbfDnuwpcPqTTb4veqqc+iPveHl0w1cYYHuBrbHrag4zdguf/Eyqn8w1gtf8EuA6zh2WYAuZipiM9yxqX5Mmg8bMo27ZIudbSXfauSjtqsxWvWUac/enRx/dnslMlLp2RUOcpVxHXjdZNTj0XRsGZp4tWWvmt1biOeUmsDVOZDEyLDkR950aGMN3Tj/FVHzAT1e+Dlonb9AXW5MBgazX2smGvaDjE1Rc12UB1tsiN+WBKPhMXZiL90rnilIqMbqBTLRdE5PMoLbx7R8nZ1/EcbSa67CRgNnsHBp6g5KMVrwBXSAFmjMAsiGwxy9cXjDYr9kMJUKs6p+q97lM7+O6buLcYZ46/s1yiBBYOw+C+JlVK9x7QzkAe3FTyCYdYA7Dn/TT0iDZGNNDxGtawhVnOo1UVZa7ZDlCBlhVwhSMs/anOQeeoMm9Lpkj8T97upR6UVA68dqGhcs9obepv1vqhHqk0fDWvLLZhs29bij9q+R1b7JXva6d8R2PJ/2FVqZIk1i1w2+S7tsY1g0Q1Vt1ftP94j7j0OqOIHBZZxFUy0lWVNkVsZnfiJ7GatyWMQUVceM5tiQgKbrFhscU0mpCc3ZccAIup0s2k8KUG/2aZTS6LAebRtlRZ0TR92pGY4blAsPglYo9QGRv674A3rEN92AM1a1sjxWBSMRZOkh4NoN9MKs4vIWQMoDCCuJ6iLk/8+HrmwpNJTZxnYf8SbIRiRrXr+u86+4qAQtSAqrqhGrWYNVTU6xQ1Oo1khnRpAPErj19VWVyZ8Z34UR1pypbpjN+iFB990ZYw13XEYKQOt44XxG+3CAyET5KlEHmkW2ZNMfJdWW86ebjrEc8GPRTreqm+7yQiLT1o1dWI70rKseNTuqAdQiOJINzs6mPwL36tmbFGmWL9u/piXXkX+JO+v3ZQRI16z7maPOirdxko81f3pSlbVTZRLFFennuvbQjTJHjOzjjdF6ILLATcqX6bYIFGCdhkwHj/Zdoj7cJRoXeb4ua3Kp6gK78diolmqSBypOFW7lqx4izIVhaRrRuFUU0/6lS+hsxACHXMYkOjS/awe2/IrS7EdacmtDgKSLDG2brRrdW6Flw2LOTODmxow8rvhzRYEppcT2F9ezTj0dMywdnZifcm2akGoke0zASIlUh35RsOefnCRDuuo14vfHz5i+qVz3/rVGV1hr04M1t4g8IMNv5ee9n+6ikX6zVo6hZ8JhSo7RQ6AZMR20FJsGla7WUs/12X/bfBrh0zI4v7PIPIhMhyrfB+J7jQvbV+AoDoeu1ZHXyK4iz7FA2EaJkqz2T0JypMmmaHxZLP4ymBr66ACXpHLWLMOB4FO/+QwZ7RCW67hXGM17Ot63bUdGc4/NpCQKT4z4bZ9kGBZA2IyeVIvVJsQm9jWecjtxWUGj7o59jrzSVrZEkeIZv/pvYpM94TOraywXY/QOb238ivbdBLtqYfu3SXVfI2adR9l/wls+SLLaGyshhmbX1m3blWoWFORWizkZztG+UbztbY/ZsNV/K5b95f7L3fFZmQ0aShpfnk4BdWdiLHLu2pHdI5/NbukWa+rmMSXJdoir1vxmRT3l+b4d2bY5wStRU/y4Anw8QcvDGxJUYYJrVrxWbvqjtidNXRMDQDzFzQ8iuYscYWu8csf6mY8wWwHGWBFFvGRLgp5zlbRVZJCybD3EGwyGoUJJb+Lk2pxrRiqmxBGOwiNaKcxm2zDvMmlTHekIfFjuCsxoTyIVnjIM95EMF4mmjOycTPl8WuvzL7UpDeVLFKzdNz4HUJ1vKr98Mu2ioPiVpJudYeLbkr98P734JUDRsSiHHnLt02eH0Z0GHKdXvhoX3Z64Zu6MQbRnrnO8ZOcdX/ZFd57GlEV3R/etXpp9OJXtgeBH4SRDpXMsEpC8VDr2NsQVamSLsOTvnhsk48N90VvoCKN4vs/CMqNAZKArKv9vxw/XJWaVmSyKTd+9mnmZDPjYjPSFKut2iC1RjaSq16ibnzy+Hprt4U59UXW+8NTVopyBYaO5c38/SfzT78xtkiXmBo6kd/sp2RNfi+7Ua8bLR5rFuXKzi8+ywLPdQa3rSKqqMEhXctRFp+CDHA7u2nCK8M1Pe+JHb8KH7yMqeG1Y1GPxVxjQ3X8V+1/OBKbrXxUzLR2zPK0G5REu+u4pQPHkyKt8zQd0nVdHsckh2Y6vrFQG23hJXOb5AKPje3/xIDm8cNSkmsz1QAahgLwu+HdsNuzDhheRsyiqZgJ+ndW2VKTpRufvGgp0gTY8Q/MbjaUV8XftGUOA7YZg3ypprzZf+WkBKlAqIvgis9MOB4NtlGMnWWFlx3a2EBH8VPfRNmHYmFd/IPUdKa+lRgTGPH4b/KB8G6l9CU3e1Yy11MB8YSQamrEKg81wX+5YfMIPhiXxdDFnw43TblhMtD6hU1TN4u935TTPjegm+NXgsh6Jq/Uq+RlvOyUwGvO6AgFumVeUM7SBW9QyV3LYyYNvuaciSIexvxI5qCayKHFHTVMLiWHdN0OQqUTVwuSYbsV2dLxr5Z363g2VQRVilxSU4IQFmu5inIivO0quhZ3SyUW04JGjNloCjKGyix2QAg+ixHiIbd2UTaIbXSANwVycGS0oGxT6RUjYhWjYqCO9kWjtv+lL3Vv+3HYed2y4FHQllOu6e36rJLdLnV2bVWmZc7OqowPfPsml+W1ouvWFEezDlq0z9JUQdvzKpF6K0AENWjFTKOFBoG54K8tK36viZb/aN34YaMQnSXDQuSApcRa/g2Q9S1xbqH31sBdxfIaOga9KoZKXnFlSKGp3awdy/nMa67swZjYcD9CYVNbTxq3NivAj3G7tbKflYFwC2zarpmbdKhzvLloeMnWsn9p9KPUo7PujnOJvfB4PX4BUNuxIfswx86z/afX+JXjQhVb6VoOUx4qDae682OPpaFaFtAuO0mmpaLaVGuN+l8L9SCDQvZrB3awzT7FubgmUmc7E4bcksUUsmBro+pkzrI3mCDTcqOezIBXR6BV4QIpOOUdpSFsNDvUFYcJcocLDUKzP/JKUDKumkqRNtAobkYVH2MeRVemHvGRHqytiOlFR1vSadbUEa9JC085i3IUa/Kb+G665KlEfLRNudrS7a+WHeqQZvk6+ICNpt3wqG0DvpCFqJsim+HH3a8j1VmnIBGqmcOmHCckZDdM2KizvIigl88pQnqd8dGuMFQg3SyElIJGPNSIL52Iz65qM0j63ZlF+t8lYoflqRG4qWAT82SquVPkW37VyWxHpmWO4loBY7D5c1zDQc3YYBqOV1yDtSl9P/N4b/wyxCU8v8TSO8ooEa06WuhFS5c1SxWZtwfaAqeEmwngy+AFrHUn+9JJ2Vw53i9ioG/nX/CadTAVSTObGeY+4LjwxuLbrJQrcw26A19XK/LKBiJF/BFHCOWWBjYgzK7ZsmJzGZThZIwNA4YY0VY6TbmLXNp6SkQdLP7NI4PI/qw9+E12aQDSPLhaXUzEC9BK2/pGdQTC/sd4NCzFRIOorBAPbN2h8QihD5s+BuDFvhvimEwyyaQQpvTue+9Ar+p8oRUg7RjesdxmM8Yv/qFP++yH5EIQrzGl0OW8rsx8E6IRfLKhnJDtGFn0Wvxipy7u0RLKxRYzrNM+/6mvRlPFiBwYKssP+SYwYhCb6DPSDm1yNE70MWzMMdP4402Qxh13vDTW8OFp5Mi+9Pnnn6UPP/4wffLxx2kklBlT3H+b9hSg+Kq9b6HP6Gu38St6MMR0lJKTVPIvIR3EkvVkp1k38TanhI82M83KcyQhGRmgAbSmBzIkTyQdN0v/qVNrZBv/waoaSxplkDE5oK3znneKrRtRpfSL8CY+mysgKYNfSsRUtGvmNqo4f+oxQlgGJOubbfFZg2F5zIEbXZhZSFDksW2K6Bb5KjxOZTvGijLX8RnvfLeY7cCeXSNkeNlXMf7Ocm1aqY7SLjGc8SnNBkiWmLvRplBUzDo2rFls2mnMzGT2Tx1NevIFKISYzdqscoNCI6i6qIjtWlXL57/nwvtPcCzUZWkaVVsyuoauTKOWJVkwGdSpp+w3W7RWc2WMYFRCzT/mMu/Lsq/9x6DSR8PnUInGxbUtIvb/qY1/3oNORCWr4NIiplPuUvUbLf7POZhVa9Nd86Aynim34g2Pre7L7foBO+rSF3qTWVHi0XI0qtlv9qnUvSswJiE1K7o5fwSvdKSLumP8yDPPld/crHupmMFaCbWS9kcJ2bQc+CJtflFPvUFd+k8lFslALbvC4sZ1ViVg5zhPi11HVhOAZiDUcU5I57lAeIOaIUwoABxDHUryzmyjzQmGYTFjmW+BQM3wdZ+ON+s0YzoZWtEUK7hIBh5VVGxiFSPiqm4etsVX3cOoxP/P1DnZHfH24kdFG1QwmItmifimnmRNfrQhHfKaepI1+QPho3ww4zcYnWizTg+ENnk/SkVUiC72s6yoiEAd99mSQpqgDiukz/c/Z1k2B8AbFBsbgYjPPDNsQrdPXzVd+sU/8kpBQ8ePKMuHibouQNRRkR3hJDOfUkLdbEs0EL4/nHzJVqyJaz7VFuWkLeYceK6q5IBRxofKOdCCIR68Mn4QZJXS2YHyV/QVS65R9cwXZYMptK0/WtFLv/QZCpF2fV2QqEWLfp5gdHWp6yhq1/StJJLJmnuspHU+sSyMSiXai7TkrMX3y42hwMtSJYt6oMsgZr7tCEDBtc6flhs72YMyF+7HoaAxCXz/IR/FxYb3Lng8LtSWuXT9rC5BiVm9z1ZNLl5R7kJI3+O2s6z54phNMMEEaayxxkpvv/VW8V4bVXaEBVWcv0a7xGRGwlFz/hs68y0/GWMZIB//ffLxZ+mzz75Aoy+NNc5wLFaMk4bSLwCKhQmlLfbFbGY7qsSn/1psxGQ/xHHBY9xxxksLLrBwmnyKKdM777yT/va3p9L440+QhmOB5O133k5vvPFv91v806j7NT80REIFbfqwQj3zl5tZV3EpP473ecAbWMInmWjStNGGP0xrrrGegW+6+bp01TUXp/fefdf9W05I5qzQr7upbc0//TZK5OewiobHn62hmmTSydJcc86TpphiKtN5483X0zNP/yW9/e7bNrcdjzi6+ClGG0T0GemGWk6Nx2JxYTMexmeeueZPk08+JdT70ltvvZmefOpxLGR9xKFBHNlinidNm1+nXXJsRF8ac8zhacoppk7TTjt9Gg56jDHGMP8UjxjxVfriiy/Sl19+mf754vPpvffeTSNGjvCcUYFh5lLsoi22eLk3UrVa49dNRgXx482r7BahGI1YzIF4MQgIOAZKb0egwbHDMJeNGJqGTTZNGmOSqdPQiX0O9X3yQRrx7mvpyzdeTOmrL2E0O+KYkaQT6yQq+qXtUMRTHUQV2a/Q1XhU8SArDyVnEPE4nwMCIBuMLHC9j9ltxvDD/NYHM5txWaVZmUrxQ4NykDXVVojRHGkrFLogHxGQM/AMS4UMLmrygdoGlSqZx5pFkwxkXx/fAWDdl+aYfa405xxzY+6PAQa53c5W2Z/FRJ1YLOvpq6++Sk//9cn01789bbkyr7bPknJ/3ie23V43q5VEeqrps6KrcZIVyrsVHVM5f5VNRFBM+bmo8tu0URSbAuuFzW+A9ccwtGhJFMN1j/BtZozbsEPP4ov2aFzRgE6KndU9B2BmvlV0ZPKoLFrxBJcER4zR4hEHY3FOyZlFpEAYQvZBKGRsU+oWsh4qp5AVEBkBnmvRpHikexfpu1fbr6EsroWMtq6IfOpDir7Rf+XDKXKzpYZLWcy9I97iznPGxKDNDGyYo4YJiyP67JRXgUPmIblSDNY7UQO7ajV/1Qtl2Y0xYGgWW4Wo2YoN2qVWs4jvfpvS/tpC9LBam3/BjoWa41W17PK+uEY1n2TRqDvyqZc7AXHGmuVIy1XJbXVUAQiDDXN6XLRuhcjKUoU3mOWbYuNLk+qiSTBU8eiHPBSbYFkmvEvy1tw2wcZ0hUDWcINtDBLfU62noB5AT7WegsHimUwa6b90uskjUASykfkarDxSftCgD41FN7yw1CuG2UCr2l2NoU1dTdyOuqdaT0HdRE+1noIe+KZ+aAeyAkcmaZQ4z7vNf4NIF/qWVaVd+Gy3A59x9NOrdOy/DcVs2riRlpp4tMNh1qgXflZUyJKPLp442ZKNWEdZk5Zez0WjHHTECWO1OpWZduymci4d+S8CJxpwYw4m/1RUTMGd4yXLCpLLF2uWCo8/F172P0ldp9dWtlyuk64sVqioJ5p7OieGtHXe0kWH9GilGy2k8OqJ7FTee1F1/8RXxx96DEWDodqihpwDqx7gPKlWviIqBuxVzTwpbGEt43kjr/66f7fmOwzis4nDynsVdTxCx8uvajouNPw63sMRnzWL8hdr8qVnNBrxMsCvnTymqaaaOm3/o13TRBNNkj7/7NM0Hp7AufyKC7Fo8bpZefGlF3AjhBtgWsT/2sdon+2mX7JZlGrW0jM+Nh4LBOgbb0Rfe+2d9OI//50+/OATqpQy/vjjpmm+OXn65nRTpqFDMbs9BNjjSHuheZXIE00Zh473azZWdIv/FvrO99KO2++BxbTxBe+o33zzjXTvfXelm2+7Pn3x+efZP4z5/2ZX/SS4SVuQ3k06dZz5N9JvIS0ZyAL4k2AMNtxwc1tUG3ussWvxfIYnobjIdvXVl6R3338Hi47mETHlYGra3jAV+W/IKcshWc0N25YdENN845tp4w23SN+ec+705788jjF61YL+5jTTpXnmmd8W2C6+/Bfpjdf/7Z1BZxlKs8ScNGX9tas5wqHrs0WsTTfaMi3y3cXTGJgLsYwYOTI98siD6YqrLkpvvPka4snzo9TQ9s5F2GjRimvsscZJM804c5pyqm/YArDzs0nk4R0szr7673+lySebMk022WTp5X+9lP71yotp5AguvOSU5bCYNoanOluxSvtP5KkrNX0xoehkZrCiopVMoCosiZq1cLlWU3kknvtV4We88mPrMWOOlcaZab403swLpHlmnTVNhrkz7rBhyMsr6am/PpXee+WF9Nmzj6SRH79Pa4gpB5aNaz6xpl2yWeiTxdQC0WybUpCrbfhsRMeEKaecKn1nge/avB+C+fXG66+mPz3xRxs3829gzSvF0uv4D2U76GQnHTsB+cCi8qMwjZM3NLRjPystRuBoLkBR34vnBi0jlAnUpuwIa9TiCnpUpBqLsbkBqyyspbTKymukbbbcwfjcuEYFK4JsRwvd5p3mBSiKKf3igjPT7XfebMZ8/HOOgw7JWmhoKwvO962FbThRzDFl+AfnyqKNOfUYUNnBqMc2/8cmN0lo/tlxBfYoYtFYuLJBi0wabgeYkHeLA0b4xOskk0yWPvnk4/TRRx/Sq4dkFC24p+LfNdykOahnQQjPYO6AVe5ffskaD0/Z8vg15vAxzRKNmn+24HAkfhzgMYvHMQoos0TkmNjMXNS0GAu0Le+Gghrkuf/KA8dlLKzPfvcbQ9MyUw1Pc+F4OvFn46T33xszPf3uiPRr5ON3X36YPsfR3+cR7aNnNG1U3FY8jyT7DSGZtgmZBRbjZA3PGDvpUrQh9pA1/rTpxyjHe+9ljYZoxWSl71kzx2w6tGu6XhuPcjDdAzmhkB/wlDB31CVC8VbWTGBNyqrcub77YASK12lvBytgU2J+6B8NxmFMKptnk5a4o7iiZT9zilGayDxUljKwyKk2UI76xROVupSoSxplyLLLL5ZJZ5RtVhamdNC9WxA5PHE8GBhQ3GQYHhujLEOAGhCbcnAhWTxV+JxRm2wMTA5LkJnHNuEoNZXcqPFcLW/dp8WW8WYjAwKrTDKKagVKrhe1GQc0O5RryP/HGuyfOiRa9WC6EnVFqya+PzraZwzSVd0NT550SfcqsU9Nna+Lb9rr1h6Mj264wAsmAlm6X3iFaGDZRCopZin7b2Z07H+yIwAwtisbmg3YoD3WWWZ11ifNwqbxrdVoZIHkOjwIQ0g2J3Stjj4oiO1I10CNhnyLLRzb/fmO+lFP+MgzXTIkFJh1k6+2aulQNeIhr+UfcrUJkSrN9CrUifLYjnQvfC/+YLCxe7Sjdu+606o4zVpxie/teks6g6+/Dh5Y6xg3Ktme8WWbemCEpmlr4G2nzWMGnl1Imsl8UYYJ4HC/mPMzs/x5LQlbdKPMWxih1bysMjemX21imMLrwELf44wzbjrqiBPT+ReenZ588k9YwBojbbbp1mmF5VdNTz31RBoDN8JcTLno4nPTo4/+1ruNDpgtbNTtMkk9YA9ADlnnYsePQufeg/noH57BRfVHePJnKGIaCxpD0qeffm5P+jDe8ccfJ803/yxpbMiG2KqSx8BcDlQsB9jQG2lemH7rW7Omow4/Cf3T0xeVFYVd+gTRG2+8lk444UjcbLyY/TNCLvaFDheg2+JUoFi1PNgUsXgo90W1iSeeJG20wQ/TGnhSrbmoJpzqssh2zSX2NJTlII+J0dk24y/+Bc7xqFmrEQvEqQ+rfAtikWGXnfdKV197WbrnV3ekebGYNg3mAZ/M4lNYf8XCyDJLrZA22GDTdPoZJ6bHHv+Dp4s+w6AoJapr/hqNmo71wTvCJwwXmG+htNuu+2NujNNAedOw2Hz6ySfpZ6cenx5/4lEGYvsaN1oQ7go2Zs17h5qkXADlfjf22OOkeeZeMI073ng2hgZguFCkLp9We/zPf0wffviBxcAbaD7xw/Yzf/0L5jV/CKn0Aa0V2mCJfMXQrKXougwi4JC7McYYhhvo4akPi3qff+kLxIZBpOZHzvpzmGX0oTlGMMzXbPg6DOYRBTiWjDvrImm6xVdPS809Z1pg6gnTJOOMncbBPvf6Bx+mp199Mz3w7Ivp7888kT5/5dk0BAtx6asv0ldvvpRGfIgb+tz7IUMGHj2GNyrFb/C5ZJvwOu/4aavNt09LLr40xu0rLPy9bK/1cnGZ4/zYn36fzjn/jPT222+ZC5/fnFvsJ1i98qeAKKdeKNbMYzPNN6ZBDBMiXZhZDT2DAP/qq6+kMZE3zqOXcAz61oyzBGv+FC4XZ/6NRcuvvvKnIzt2fnfqA9j0Y30AUwenbN3j8fHkceG8sy7zV9Vr3nOjSz8tN01fAcu59M6776Rtt9/Ujqs2t+y4SiU/HnGWkpL5qibf9ToGAf1wdNbAOuRQnFvmmWu+NN+8C6YZZpjJfsjgueSDDz5IL7/8Yvrzk4/bcewr7Luc5NU8d4/1OKoofHDZViyZjFXOgb8entKkk06RNvvBVmnRRRZPw8cabpp/f/av6YorL0lPPPlYNaU8IcGSktmPf6rkcDh+NGHjiI2jh6QVllvZFkl5POexqpSApWwYzv+33HpDuhDnfz6QwxzYvDIHUlYNK+Ygt+3kUyxDpjHx+TrvVEPSHosOTdONPTQN/WrSNHT8uRDrFDjZfpZwcEh9b41IL3/2ZTrxy3+mJ/o+9B8w4N5+QGYYchdc1MlmXAzPArR88El9vsb/xhv8EZF8/EOMJeVw4MeJbNV3BmsUy9UkcaWsIz9mFjqMlcVwOXDSvUrUr+kwRLPCcR2SpsYPOzwu8QnpmBCGMWzMYfhBaqr0wYfvY+HWn+qmLeLcN7c5GEWoOUIDRQQC7RrODXh/YMUsWdAFZJisRrf9FGgh7xNNNBF+2B0vvYYf6/hZBRY3KZtdTABXzUfIGXejDFl6ucX65p17vjT3PPOmG66/Nn36GX7BBXCWWWdLCy/03XTjTdelvfbYL80++5zph1tuDJmfGPziyXd7hsLE+1AyYDOBTV9a6vvLph132CVtsfUm+HUaJ1hqWlygWOeAGBrpygopM2W16KzusiaTQvFUR57ADBDFfCFG/rfhhpumP//5cX9UuATTl1ZZZY30Lg7Cv/vdQ0DIaLNOaZFFFk177rF/2mGnLcsrFO4mT3BCRqXIxahgoq7h1ZEoGCTdL97zV41eF5s1fNQXTQyVWLrwBo2PWNrKNpsHWIo6ijnp4BqjH1EF6EepH1GF70IJp7qLSmR1qImhmsqRzmBjdeFT1/ftqo4mOmQh/TQnXzr2sA5siYsPG/qgY8qwaTjaZjzGrI4F0qEguC96lGdoRvauvi5evlgrTuMx7miczMEUGlHwubYq2sq2S46i3SArY5XlMmtNNAqePlFyZXRN1zi9N910u/F6WxhYwthoU0VtxVzJdAah5uCiqGvFVi9aUXgdteSTua1+MGrGUkfUrOVBq+GtswFjOkDxAovsWMqgQ2CQZobMWN7/cG7i+Y92giE/q1fnX84MP8NXVLZS+AxBnkjZBbFCoPUcp51t0Vh9tXVxAT1m+uX1V2AB5Ttp8823TX//+zO4yL8YT5HhaRIYm2rKqdNBBx5tiyjPPf93sMBErLawZH2r7Bb/HpjNbaaCEBb3D+/gffH5l7ix+ThNOtmE6c+P/yNNMeXEeD1zEntCjc8qjRjRl9588930z+dfNd2xxh6eFlpkTry6Ohw6btBjiVkrrtwfQ4UvhkCnvOnnhdt++x6OBaRFTKfaeNBmk+oFiAZEvHk98KDdbaGNN2XUthttEN4vt0Q+hcZDrf5bGiwQyEwV8SCWYXid8Ibr7kG/6k+qfYD8X4mn1Ohpow03SxNOOJE7yFt+02vt9Za3myNOHYvFXff0LwOMUfGw9lg9P3PjlcuddtgzHXPswViEnCVtucUOdtFbXqVBh/h66mVXXICFtufSfnsfls4691R7NdOmMCOmg35K8Z91clq8hQYisQB5MzrbLHOkww45zl7BNHYcl+DDL/778Jbhl+nwo/dPz+JmtTZOQXd0SB9jLIrhpvPbc8yDJ9JwI4hisecOsOLTn8//8zl78kl7LxdpZp/t27ipniw99/yz6RUskPhzRwCEXGUzNOuGg4ws5Y20FTlHTdIWtTL9nQW/m1ZZac00w/Qz4TVnLEpjUF555cV06+03pIcfeQD6VAxjFY2LjnV26R1GI8qKfwvCVMbAK6DfWGXbtMkSC6elZ5zSFtVogn4/+fiTNNbYY6c/Pv9Suuel97Aq+mGaYPzx0qtvvZ24yPDR0w+kEW++bNp05HNb2aSVwRQE2GWulIU1xDwJFrWPOPSn9vTqFVddnH593z3pyy8+s+PWMCxKLvq9JdMPf7A1FrbGtDn1r1cQk/Ubt/hDEY+nsOEm+DVdKIVkaR6NO964aekll8fN7wd2bzMST1+aptRzF0eMwCIDniA69siT8ITXTemRPzyMp+umhRT+aR+2+VQv+zLBBBOm+37zq/QxnoTiccPdwmDZIUHzpGYlO6rFmEW5Yz5H/JjJY9Uvr7mdblF4JsITReYgY1BlixUj6+VAir70hF97w5XsmO77q8ZbZqTtbW9ZZOads0LnxYLwA5rtD8zNSiusltZZa4M02aSTSyUaK4HzGH/LbTemG2+5tixY2PUDF3iRE59OlrBgp9mWKPARNCNmWNNMM2065vAT0ocffZBuuPFaHENfSPxxZdmlV8B8WyKdfd7p6c57brO+cdzYN+XPLQe7xvC2tOTdxtkDNguU8/Ho6aadMf3spDPT1dddbovH/3rlpXTnXbe5i2CPnvnJhP33OSSdcdbJ6YEH7zMd8i0R1LULJNZssOQo8vyxTpSxcDnPv/PgabWjVxkjjT/mhGnYDKumMeZYN418B4vXH32Whow1cRoy4SQp3YJjwB2PpY/f/TQdkP6Snkjv509EwD3y4p6YVYuoCiHE4VKGlWcIQN+aaea05277IQ8zmObH+JzAJVdcmG67A09PojCbPtDsJ2jETx8sM0w/Q5pz9rnTHXffYm3PhSlZ246/oMYee9x04TmXpxfwQ9QBB++ZjVLF7Zhytw07xRLz5xybO0r0Mt9fPv1om53suMXXq2+9/eZ03oVn4XqCZ5WUFlt0ibTzDruniXDNwOj/9Pgf00mnHI/rLRxrGYPCsCSiYWPEygMYDz84bL/dzmkxHP/OPvf0dDd+YFOhBvepdbE/bbj+Jum3v3swnXLaiWZS4UuXg3LYIUeneeeev7BI/PZ3D6QTTz7OePzBbJ89DkzfxdoNC5/iPPOc0/DGwK88VIuVG1kPNFk8tuW4ibcS8jdk6WUX7Tvhp6fgVYVF0sGH7pceehAnPyjsvtveOEGuntZYa8W01Rbbppm+NXM64MC93V7uDgfY7MswarOdg8FcTqutsnraZ+8D02prLG/B+8nKw2WoxFNdx1179QVGFCNNFxp6whuf0IzPVWeizZbvEMRUBUPPBKGw/tXdD6ZfnH82Xku5hBzjc3PRhVemf/zj7+moow+1QGxSQ2z7tvDQX2bp5dOhGMyNNlnbLoKh7LEgMMZWFc9Z1f5vUwyyHsGoeeyF78WXdclVk9+Lloy1RrI/mrJepRe+l/7/P/jqterSKzBs/8mMKDc6M0RrX1NNWKExfOV4QgBl3IBf7b9533A2pZ34LMNlgxXOCpUcTr+zgLrdZlLkNXW6tcljEU61cwe/HV1c9NCt3yaHoNf4abcu4wOAaNmjDfHYUTvegldusEAzfhXiVJr9araber3k0uuvjvFSL7YHohWz/Me6my3ypEN6sGV0ML1tD8Ja6Vg3XfBMjg1OYDoPl/MnhLy4oVJZQCMEk8Ev2LT1CGlKXmJNqWTdaPJUIi5ieHCgV/43/rjjp5123DPNP/9C6eijD7Qb3Y033iKdhoukF3FBuNT3l0vrrLNRevCh+/Aq4rVpwQUXSd/D63innX4CYuc5ledPt6e5DLMWpFUKAqxCgiCtCzguqE08yfhpWrzyqV8qqaHrASE///yL9MSfnrUn2SaffKI07wKzwjd+7WbnLA7W0na6uXWbfpM4Ej9MXnT+dfbUHvvBfKiQJq9XefYff8P12Z7wjwtMbvAvh2Fxky7XJNbIcUUaOnYJjKCYC3636/ZbHiwubVHtqkvTNdddlnjhj7t4jNd4aX1cyG6M77DFRbZVV18yfWFPI9EBYtHB3Frum4YpZTcVm9XOcj6zADkXEX528nnp9J+fhEWt2RPnBMtzuPZ64i9/sifX5ptngTQjblBo78qrL8Ji0T/weu3uadc9tk0j7PtZRCAWc0p61Eocq2FYyDr5pHPSlFjg9ZMbnPYoNh8Jhl8+abj7Xj/CAu2IaiF2dAPK/hTXxHh6aL65F0D/8OoUZDyu5yTiybAv0tPP/AVPFL7DjDILuAGaEN+omgv1BFAeYotvjz32iOkyWM5jmlC6RMeaHiiXK3aO0UsqAABAAElEQVSF8dCH/Y/GBBNMlOaf7ztpQvibEU82Lb7Y0tivvrJ964GH7k334fXm57EYOgI3YwQxfitWccMxMw9mszjMavRDnqWYPHfNLjltbZ/TaciwNOmCy6e5V9o47b3obGn84cOgRGxfev3119PNt9ySZsNrot9bbLH0/NsfpGFYWJ4QOq+++0H63SvvpHsffii9c98Vqe/TD3Ji6vMpuzSbo7KJC2u0cSQWOabEt/sOPnwfe2Kim62JJpo4HYHFXX6Hca/9foxFFz79RzT+DbEZ4DT6ZnFVm2yODNczjfya5WLfXTK9/d7b6SM8OcVFjOH43qV31ucN99HXX/t3+g0WNQ7a/4g091zzpm132CyttOKqNoZ/fOzR9DIWS2ldm7nwLbSJ8UdQePPqbEhNAS0NXB5HG0/fQAdK5FuRAiFY8OO49o3Aa4Ip3XDNHaZmqkWNCpWfd7BIctkVF9unBHbZaQ/78YBGLGeoqaqgFNraG6xsT+7xmEo9f1pROaN+zi1JFGiAY1FY95xyq7zfpT7jngJju8+eB6WZ8aSyygtY+P7b3/9qrztyMYILW5TPNtsctmhAPT49c8JJR9vCF3Pj+4WilTdZ7FZTN+uhw1yIZJM/oJ34k9PwXdHP0uHHHGR/9IQC6w/k66+zYfoBjrm7770jFsJfzn7HQMc0z+hr1Pxb5nwQ7dMDa62+Xvr+EsukF1/6Z1oW98ssBxy6N55c/3P2BwbiVNllp73wPclh6eTTeO4nlxZxosm0E9Y5kDk2mw/kQZ0gDApJLtDyUHDWJhOk6SbFt00X2CulsSZPnz10ZRrxIr5v+v6wNPTT8dKwCWdIw9deLQ15++M04uSb0ssfvJu27nvAXxHFAZP/uX9WtG3B1GhGasXCoPdkPzJccPZl6SOcVy+69BdY4Pwwrb7KWul7iyxmOXjq6T+bnlstLsDj+A1Ja66+btp2qx3SmuuvlPvmY0eQe/B5t9wyK6bdf7y32dpupy3skwqc165j7LLxyLO5bIc86jZrgqaa8hvpnJ9fiGuz+9NNt/wyLbXksmmN1dZOR//kcPxo8mD6Bp6EPev08/H92GfShZf8Ik37zemwUPbj9OBv70+nnHqCGS3HrxARpwi9zvXtebHYdYCdr/gN3p+f9bN0G1/bNvmQNNnkk6cD9j7EHvTiDwK/ffiBdPyJRxMM20Mwfze3H99uveMmY53xs3PTv/DjwO9+/1sq2Bi9jqcFn3r6SbT70h677puWXWaFdObZp2Ix8oW0CX5IXGD+76Qf4QGp1/BqvmGUJGaEgZa2ufCNxRfamRyy3IpL9t160932QeFfXn8NHm0/yUQXY1GJH2zdY+9d0qQ4aLKzr73+GlbgJ7WLMq5E8sTNSfLcc89a/21AEMBU+IbAdNPNaL96LLDAd9J++xyUVll9OXt0nvOd31iZZZZZsYN/bo/580KEK5aTTTZ5egk7Hgt/CZkMv7bxVQD2aAJcIEwC3y/hMVrbj3RlYNqmkgfB+8/+WjySs/YARViudMH9q7sfSuf94iwsrl1cwzEPz5bFNZoYgl8C57D4/oF+86k2+lpm6eXS4YcekzbYeM301ptv4vHfGdNreFR6CuRi6qm/mV544R/2oWKGwOKTzOle2+7x99Lu5I8eXpkbKH+d/pwzWHylV1kij8Wz1HEa4+TxPdHVsl5uoIp4P+yJYzr94muarh4s9sZ34kwXm9HLf4XrDz8YWVcdBseQm0K2yc7dMRXwmuk2GISWSgICnU0Yr+CzDiv6jHgTDQJvGDPg+BI/eOYny2IlfrOOOqNCN+2oPUo22H8Cu5XQSZGqizoZLHKebZWxgEj2TQX6VmPjF5aDzH9wQXcsZsfJ//pW/VbdzWG3VIhHfcUba/KjTtQj/fWLvMlSo83B0UBIRbXJ2KgitIUwmhDPBhdyO8mzpgxFg04a9mnBPINvKvRJprICPOcMmbZ/B7yxK83igtosfomiS8piUZZdCVvzn2sdQ3jDdMD+R6W/YLGENxW34xfbKfBBf36U/ZFHHkrbbL2TPflwxRUXpSWXXCZ9Bz/43XHnLXZBfuDBe2ABxxcELAoGCifez+LWGWpCx3xnPT51/z6+rfaHR55Kc8w5g31TTbGZIZo0XVpl6cPrdJ+kxx79m7UWWvjbaaKJx/NzN2zzQl+LAhaHadU3vL6gTT4JxQvCiy/4Ze0VQxshmxNQsuR7x3wU3ZaPVUrH/fRwvCr2B19cs3uMSisOsWIxHhu5sM1YmAfeCPJD+Fxc46LaVXhS7errrkgf4zWOscceCzdhupF3A3yFbf31f4BXSP1JtlXy4lpZ6LN8uCP6sF6IRxP0nePgdKtiQV4AWHnF1XETP3+6+ppL0/E/OdUAZ57zs3T3PbenjTf6oYH5NN2Ky62Sdth+N7N00KF7pXVxU8ic3HvvnXlckBM6z8XiUKOf2mJDHIydN77LLL0S/OyOhqJ2MFu8LvkK16yPPfb79MAD96UfbLKl3Viwj/R35tmn4Emku+yGWfuZ1YMNJsTp7rG/DR3D/pgCn47jayzDsSjE2Pj0AP/QA2/c+UQhC31NPfW0adZZZrNFy8rckPSP5/7mrxgzFgVcKVj8bNIv7aj3pp75FPKWm3N78UWXwk3fzrZgbE9AgUc+X/n6HW64pphySvs23rW/vAKv4b3tC8sw/BnekPFcwhDaCqc4BLsKxuNgPFYERA1XKJxDpPFE03B8z2mdH6eVF18srT3r1GlMvJJHm7xPOffcc9PNN9+cpp9+eizw75QWWnghW7R1Cyn9C6+HH3E3Fo5uPTd98e/ncFjN31yCX7tep3/zR0Sj9CeDquJUznbfZb90yOH7piefwcICbM466xzpeSwW849RsOM8LrC/fEX0lJPOtidJb7jpGo8Dcnugyexmx6xYesRn/nk+QKLWXnMDPHFyYzrxuNPsaSYHVttP8IrzfgfunlZcYRXcPK9jN9N8RfvwQ39iSq+++q+0yx7bIRbklgV2x8J3q1bFd9EYo8eQ90MLLwdXYkSQxjcwNrHtPF9c4zHT/3FxjcW658lEqxhhRtIVV1+aLsbCBfn773tI+v6SywDgtu2YQwMZo5v8tdZfEXMAx3GdW9AnWdX9h9rEOq3zHzWqwphZuLB2DJ72mxSL4Rzve++7Gz9YXInvHr4MKRGyyDrZfe9aa6xruebrkJ99+mk69Kj98ePB303XY2U/oF/6TqTjSeXMOKktdOmNEH6/8mgs6HLcXnoZi2c5ckVD26eedFZ6Eos8551/plmw/c02bBbNTJPXwz9UpW3PRCItPMavvsraaeWVVsOr84+lNVZd23KzGxbzeG9sE5omgVSW+VQRfzQ4/cyT3RPcuYyuswc5yli/viKTBb1kDtDk2Cwxy7jp0NWxfjHjqmnMWTdInz9zV/ri+afSiFc/TH3vj5HG+HCsNPSj4Wn4xN9IwzdbJaX7/5ZG3PB4OvSrh9J9fS/jvMvzPc2WKHIWzVnnhr7BZQzTYz3k9JPPSaefdQqeAuXTZ9hn8FQvP4HwMBaJHv79Q2naaaZLa625XpoG6wX8keb2u261p2n5FOvG+AwCn3y774FfpYd++4A9RRodej/70rFHnGCv4s8w/YzYF69Ll195kcXLvyi9Q17o4oIe12iee+H5dBnkn336if2xnh223Rk/ZD2eFsQPJe/jmuCcX5xR9Q8dWQr70/bb/jhtu+Pm9pkBvr57PZ4ovf7Ga9L5F52btt58O3yzdZ30ox23TK/jnMQs8akwPjV95923ouULo2U+g8PBYY5Y77T9rumbWJA748xT0tlYxOPiGp+MY86p8/0llsZr9Nvak3Bbb7ldev2NN9JxJxxl10P8jMjVl92INw5eT9vvvDX0+9IVl1yHz4qcn/MNA7CD/43gU2tXX34DrkFvxdORpxiPr+uuvOJq6Q9/fMTXmTTODjIdi4TBkMeLGJXqACNOGrLn3rv0nXTCqXg661lcVI2dNtl0fVxATpRuvuHO9PMzT8NB/TIcqA7CquI8afOtNkmHHHQEnnJbGAts+BPg/EUM5f77702HHnGg+Vt9tbXweuS+dmHBk+0LLzyXZp551rTyqsumTzCIS39/mXTIwUcantjX8AvJrrvvAJvfTfvuc2DacKO1MDBv4PHJvdNaa62XtoRPrnT/aLudMHA4AOFJOnbQB4gW6sX6XGd5UpEQG8Qs42Rk0aT0xTU8uXb5RZYz2bnkwqvsybUjjzokjYkFxpNO+BnenV/AsLyAOOKog9NvfnNvWmaZ5dMRhx2bNthwDZvcl196nS3KzYK+M1ZeBB159MHpQVyM2WyBhW59kF9zMBqb0cNrtuQ5M8p+I57TmlHEUsl9FHrLedB3fC9M5MtHxavjJVcds6MYiGVxWdw6f7Db0UdGD25F0WQJmF323QgrtPCFQWKw+KgXDTX5tFmlnC1r6yBIES+78i7m0x1MHouiWcJKG/IOPBVQqEN/wucmK5cZVW3o3zCoC90FL50K6TheIklW8OCRny8nI6RGE0fM6JaueDBr4x+VSLOEQEn2l3+psxactEowVZkFs5n/btgYGu2VWGR8gFp41VSXn2Zc3UwJp3ogvGxHW9HPYPiu4yjza4PVzXK01qTreB9vt+GLbJkGjONQJhkVWXLQvKApR9CsyP2KIP92CVVlQLVZsI04XquV5x+bKBXX29pmsUKx2oP1pxC4iLb9j3ZLBxy0B56M388W13iRtylef+ITN7zoXnyx7+OVlWvwva3b7RWkrbba3m5S9jtgVxxP/GY3njetbwwg979Ggud9hX9e4KP1j7+/lF568fU0OxfXpplcp+LcBfQAGLsh4EUfc4bWX554Lr37zgd40m2qNNsc09lFNpPAONTnbKCj4k0Fj4N9ePyC37s65KBj0/z49g7D5Tix0EY1JskuEI855rC0Em5EVl1lTdOh0m/w2hWf7OKrqe6btYu55XBrOohrHtyBsxgL/uOH+IfjabEN1t8sXYtFNS4+8Bpsa/w6zoXPa/DqzlV4io2vjrkP9zk+vk2y/no/wDfRLsUC05fIBfOQb0hJM47sPNLGJAOFFRdDTBM1b6APxxM6N+BJRS7WfB+fErnt9pvSOXhNieWGa++yem3cCBO75RY/wk3I+uk3D/wav17fn9Zaff10BF7HtHkBhTg/DMgN/WX/hRcJyJkXLj5wzA7c70j8ir2QzQH1iPK//vXpdO/999hnQmaeeRZ79ZE3SUw888Dr4g/xrZm78XoV8wOmXfybc8YWffagY6icO/Q/wfgT4Rf7b9vNFv9a6XTfnN6up5/E95o++hg3h9CycxP94aZn8e99H0/ujGkezGc2yicn/vDHh8H3SHxsTa3EVvMvTTD9cML8gEZgs80yJ169OR4545mxXnjjxde+zj3/57Zvr7naengKdeE0MZ7G4sLku1hoY45uu/NGs2V7EkLifKJ9i4uBsDBU+swk254XCnzfNtm4E6Xx514qzbrYimnrhedMc0yGhXBo8AfwD/CttfPOOy/9+te/stdq99hzTyzqfxP3JjPbvQrU0idffJl2u+au9MIjN6QvXnkqDcE3xIZ+htdxS5I4lh4H9bsV+lPYUW73GZShcwftz/uf4emQI/bN5/W+dMkF19ni43nI11+efEJdtr7vutPetlC6+147+BqExRP2fTmEc+7/arp/Z/L45/N7JF6p2jRdiX372qtuRX/qVzS8ZzvqJ4fYa4w/3nEPM3H4UQfiR4+P7LjAbymtsfo6aaNN17T9TKnhPrcBjgs8bvC7YvxjNKlPixEMiplRYYTKVKwrue7LeGwYgW/23XjtnXn82QtgfAIIYH3bZrvN7Cm8d3EumXmmWdOxR51QvEjRvOWgSXNxjfsLj6n+QwE1ORuzH/PmMdIvKc+kU6Sd5ecKNmfBk7d84pD3hyf8zzF4Ne5RC5dP9s2Pp2+nnvobdqx4E3+4h2P9Ov8wC/beb830LXtScPLJp0gnnnIsFqcfKjn2iBiZ4nK3xX9ueqTe0LGDuVxrjQ3SqiutkbbbaXOP2IYgj4MpDklb/XBbe0px7wN3RTSwxP+Rq7rPjJF79b+0PSKLg+dPTjwUjiNfZz/z1PPTr/BDyIcffmivsPtcr3xRdxi+8bfod5fAov2O6Uh8IuDxJ/6IGKCDqWo1jZfCeFB08lN4rOmf/6F/I/Gph0PWmT4tOeeUadzvH5tGfvpx+vJtLDKOM1lKH3+ePvrV/anvlc/SsE/Hxv37RGnsuWZJw1acN43c7Zfpnvf+mg77lD+WwDv/MRY70SqQHINLckbAg39dS/ATGFdecr39EHLe+WfhD5Y8hvnxheWX4Y+HJ/rPP+dSvLb+Mb5993iaF9/omwhPNm79o02x8D5b2mi9TdOcc85l36Hj4g//4Imf59g/9hWLtJg35599aTrtjP/BOM5jazbbbI8fphAm99sLzrmMrmzO8dXgRRZeLD0KW0f/5DD7i9wXwD8LY3viz4+la6+/Gj4MbuNnvYQz3zcTjp2zpNNOPjud9vOTcb6+Of302P+xfenRx/6QFsKx/mP05SEsHN7z6zsQAmaUjR8c2DGH1mCc9vgfpsmU+CHmTSyYcaHshmtvwyLbqXhlFk+hMQio88l55oyvb558wum2gHfcCf7kGseET87xD2C9gfUjHtduvv7OdAdeO54KfaePx/70R1tw5DFu3nnmS8cj3rPPPcPyxB95+VTpL2+4xsbI+g0brK3Y/CJVxe1CtMnqUoZcevlFfavgIu6Un52Ujjzi2LT+hmvhA6hzpqOPOi5tufWm9lTaflxcw2BtvsXGtjC24gorp7POPgMXwHcmriCuuuoaaSvo8gB8+aXX4rG7p2DvBHT2mzj5HmVPva20ytL4COv46arLf5meeeYpe0JusskmS4djQYpPvh159CHp2qtvTkcfe3i66+7boXe9Jeu000/Gxd9V6ZyzLsBF5xvpkMP2t4OgdVEjn/urfpfOMjGQ5arWfU4QG1jUI/Dv3nt+mx5//DH761RRcZ21N8AHlR+xRbRddt4zrbvuBum444/CRc7f8KHbvWwSr7PearbgeOQRx6V111/NHuO+EvHzY36HHXGAfUNm330OtlXZDTZaw3YgCwqbMnjR6QB0t/7UIUpInavWfw8vv6rlkXXFqw7WFc811VbdxHu7Hj9bLMTEIq1OuSSVdienknVSo6bdP350bEVMoUWopttMR1Zge2ASNuugKJEDitkanvO4jEBj+HQe4i7HUrPHRpOX2ybgJtuLZrOpohJtZpNFJhOsmzLZjPaaOjIkXbVV9+JLHmvq8nI2+jN57oCuESIvi4zFTa2dG5Z/BaI6IzryD0zTf7RJultpmDWVyIt0N7x40Zd4/dVN/dgWrZp2RLOOJcbXjY68iOtON7WbbaHEr2peCPBkX81G0BY0NnZ3lCM3nvSqOuJ93Jv4YJokLzLNrvNreLAYi7kCHUuOwlj0rlLp0lInXnLWdqNMD9j5F1poUVzULJjOwbc0uLh2Bx75nwIXPvPNtyBe+zzRLuD4VM4Zp52PG47X0gX4lsczzzyZdsRN3muvvZJuuunafHELw7pAy87i/Nd8Z7x2zMHGF7n60h8f/av9AYPZ55gB5+Mp/JocNjwnRKBAXxeQrF9+6fX0/HOv2lNr31kIr/DAGS+yDYVKuSFHRTzZ4mIWL/A3xw3Mmmusb2rKO+2QZuE1zgEH7IGn3N/CNdgJae6554UDRjcEv6a+kPbcZwf8xcoxch7gUQcTkJo6GmpA/B7ALHuclg96w8DwNVXe9Iw55tj4IwvHp+/huzux8NXQa7DwdvU1eJ0Fi2xmD31n1+0vqPJGg4lnPlgBXPqdDZFHJo9rKqZHXslzX7rgvGvSzrtulU7Fq6ETTDhh2nHnLdO/+VdCUWxxDaB11sMPq3DEv6640gqr402Ij9Nd99yazjzjorTVthtaLIyDkXhNunexOLLY8oINrwX5Af5z8AH1SSfGkyf471N8y+yX11+FJ1DusZj4atP2P/oxForwfZ5G4TgRwzc7zr/o7PTw734z6LiYOws/2LS4YI8LajNhweAJ3FTxL7vOjj9SwOttPj33FZ52Yn99Lx6ShuFJnEW/9/3yA7bmBc3yA9T8AyFf4CaE3jiW8su6Wyn4PGac08zTgfseiRuT+TogXFjjkwrnY//lx/q/g1cPn8J+/Cb+mir/yMEcWCRcEePHpwf4V1ZvusWfyLLFC8RjObANTIegFCcdGpvx8D/EMnScCdNEC6+aFltmtbTgNJOmRaedNA1HHt7Aq6DXXH2N/YGSeeedFz9uP5hmnmVme/rvkUceScsut1xacokl7A+MvPjRm2m3u69Iz//r4dT38dv42PnINM5bX6VxXvoiDf0EH+vPo8P9P4TV0f8mQ2Oo+X7BuVelm2+9Hvc1V3r8AFx24bX2kXNi+WrlhRefl97Gm0Ms/G71rnjVa7Mt18fTiZ9izPwvdXLMbdyVmFgTyBxaoIgX+zrjYL0hbtQvv+oSe9WSarGcd8FZeLrxWTzldLx9VJ4x80kbHito7r7f/DqtuPzK+DbRqXleZyeoNsJC/VVYdN9+211soZxP35QFtlrGFBhqIxGY1eIzTh9XHjNtce26Oz1M9oG2KlWj/4Qb54MP2zdth+9B/Rvniltuuyn94uxL7MPr2icJobLjfTTXwjHFFtf4BiSSqR8K3Jnr02P2amzZc6nbq8YYmjimzoG3uvgUML99xe+tbb3F9vjhYMmykGuGzGqyxaPz8JdL+VYWn3qbacZv2R848MU+ekPk3Alzp2PX3U4nh3zPIetk36laGd9/46uCpRCGQjl7sflm29gfXtj3wN1wvPZjg/s2LWwywPJBHkvF88VHxpkLSJ53efDn/OEi/Pz4AzE/xje5eAzvr/AHg0suuwCLI3jiycYF2nBVciE3tgNQ5n68dss+Jr6wNxI/bl226xJpyunnTMNnXDG987vL0pdYOB/x2dhp7KnmSZPM/9307g0PpHGxZjHuvLPijxp8kobNMkUaeeoj6eU//z1t/MYZNnZ27meX6ZcV/jEU1eSpuH/MNswHjgU/b7HLTnvaW2982Iavgt6KH5EeevjBNCGemlpk4UXxx2geszcG+WmEk0/8eTrymIPTI79/GE+bro+5vWNafZ0V7JRvB244Yj5wJoePhB/KNkk/wFPeP9h8fXu7juf0fXEt8dTTf7GFqwvOvdx+FDrquMNs0DdYb+O0JZ4245NoIxHP+ZBzcen8i86CYVtetdyzP4yfHfXx7LO/+HrST0/H2s5wvEa5lb2FeNbpv8CPTTOm999/H336TZoRi+zfxkNZ5+JJSD5F5+Ooc07OmJvN9v06jT/63XDdHXiijE+u3WR9tBgYAP7nhD35xLy49lMsrsGU58G1qDPJJJOkyy66xl6Dvu/+X+PpuUmR3+/ZIuCpZ5yM89JSWMg+jAD7UZfXGnzSld8+3HWvHfMfYjDD7t/2PyjTfywaeNVBNgQH0j7+GvezU/8n3XbLPemkk4+3pCy/3EpprXXwaCSs7b/fwba49kMsrh160BH4BWohfNB2NfYpzTb7HOkX51yc9t1vjzTOuOPi6a1jsNC2GZ7a+pvF8eOddkubbLxZWnHlpewRwaOO5KLdD3AA/4dNki222AYXnFub/IJfXGaLW/zu2ZVYhHviz3+yP4Jw0KH74vWFX9t7u7fewpVMjj3TyQhQGh1rNF0nb11mh1e78tdF96+xuMaLSU6MWKaZ5pvp1/fenQ4/8uDEV0T53YjzL8RfMIHSbHjsfputt0977b2L9f3oI4/HBeCqtrh21RU3pLPPPh0HiAstvkUW+l76n5NOT3vtswsuiP4AHiaZdSR6GywN7zzgoGqO9eAs/DfwjESZZx1LU9b0TzmL8KJZN2VZp9b/ps7o4onrVRSb/CNanDTyTOoF6uDLig3918Z7dorN7K3Z7giCDCiV+dMAxGakmxidz8x+HAKaZzuD0U2RXmdZzTZ41uYmQ52q+hjb0pEbyVg3ec121OlPFm1GjGje1/J3uRwy2V1LNx8EMUfE6/5YYMuDGr3qjGdurdAJS26PSv5lwg18/fzJzkA1/Q6u/1UGiYldlUQ8+uzsj1/2UcYiXdlq6rtW3MqLeNzry9lHzH7qjC87DNq141c/UBNV+HLMyfiRCJ63WuWvS8EHI7OLIesgNjYZ3EeUmRhs1aKqtjjCes1oWKSn2rnOF+3XZIwPr0ZMP1PaZqud0kGH7IWn1bbE0xhz2K+F6Eq6FBfStMNyHi7yjv/pEWnXXfdJP8evom/gpvzwQ49Le+61PdKGvYWKqK3foNmkH8NjY9nKKeNFp118os1z/e8ffhrn+U/wBBoX1yZH8vw8zBiyJei5QbsoBpp/4IBPrr34z3+nhb/7bb/2sItPKHIcCA0lu7aYzDv8chGLizZ81XA5/MU0ziCW9957N+2M1xg22WQLLG4tju/a7oGL67fSgQccnhbGKxVh6OwJnO122BQLFPDJ/tMx/bN2czRppFixNhn06JvjwX/8FRf/468GTpA2xKsnfCqNfzkrFl4XXYfX+q6+9nJcdH4Av7DKvNG3B2HHMMNAFEKx+MsxSkYtBjTon3EgN9dceVtaF98/uu5qvP4FG7aQBhVm95e4sWY/1uH3ZljQYFsLe/wLdHwNs7oJI2pUCveXvPiAZHAh9KrLbrGFIFrhL+V8VeV+PCnH1+R+hA8ud3igQ3U8x0csF9juwMfg/UaZHCAteJCWGIEoaxTIOVY0zE+L8A8E/OHRh3FDMzb+YugCaVwsTr2JBZhPsMj2Mp4S+wKfWVGZZJLJ7Ub9G1NPU93Qwy9fK+VfWP0ET25YH3KsioKhsajtrbwF0+eMz52zz7i0vL0iPS5U3IRXA8+/+Bws8g1DjOPaE3beZ7fO7Wx4DfJo/NXc19/8d9pjn+0xfzwQG1MZU01ACKiQnD8QcP5MssCKaeFVN00bzDdj+tZE41i+uZB42WWXpYsuusj6utkPN0tLLbWUPVF0/PHH49tAf8Mi5ezp0EMPTeNNM3E69x/Xpwtfui+9/dX7aQR3POwXE348Mk37wpA0zh/eTkM+5V/DZJw+hlQpsSjWLjXCtMI5xuPA1ZffYk/03YWFA57/aOfSi6rFNSo/ix/v98MfMeHxfoEFv5MOPuAovO60uX2vSzHYdYOnjbtSz2IibMw/FPkUzGX4Iwo3XuMLVoI+jo+Pn4qnXn520s9r31eUYT7Fute+P04/3nH3dAS+2+X7Ps8/Pk+1uLbDdrum32Oe/ol/ORfx29jb+DKIPJhkyrGx2Mgy2rP9EeNri2sj0o3X+dOrnH8q0ibsuJ8eiYXsh9LF51+F18Vex48QO9tiwxY/3Kb4MZeCcwxhaE0srnExGL9XYM7w3EK+YnFP3Add2/m+T4rjMlt0gJ4fVzF1eLzHPy4wHHXY8SWfX2JRm38hlJ9Cmn66GWxfphd+IulYvPbPp7ftOIbjKuuhdgJApAw+x2H+GSdy4d1xmUebtxCYFDoIwxbNjjz0+LTjrlvjr9K+4j5MIx9joHPyCT+3PyrEP2zA5LCH5pbmySiFlil1/6QsyRxbi9ebVLd8oFY+eL7hEE6KB2v4WQIWN0+s01xM5ffzuCBmuWAQ7K/JsYFfa6ByMFlqsGbhHEJ8aNqPSLB50yHrYyEN5+8Jp01vPfUgjoVjpi8+G55GfDpWGmf8b6Tplv5e+ujhf6avHns7Df8A34dda/Y0xjMfpvd+98+02vMH+OLaUL/+sLhy/nJE5rXauG+22WeGzDnCY+KC+K7X3PgjkvyRhk8p/vSkY9L9eCqdT+0vucTSOG5PYX+dl3/QifP6Nw/en9bGW3z8QwJrrLO87UK8+mE+bARgm3096/QLMZ/GwqugF9uc5muWd+GzCj874yQ8vTU1fsC6HOs7x6V77uW5MuGvsU+bzj3z4nTs8UfYw0IXQs6nVB/94+8tr95HKNIP04oN+zAmniw78rDj7GnavfffDa+zP2eyM7G4xvnO1zL5tiF/gDvumBPticXt8B0zn88wxsLxRMX4NU60T5p/aOlGe3IN31zDp0M41+wYg+//9eGCl0f9U044A+eO19JPfnqUHesZngUKKf/nZ8S2xN8KuO32W6xvlO6CtSh+N3LdDVe3hcxDcI3F3B5z3OGQ9tl3Q48/9iR88/An9iMCc8QgGXexrWSQh1itE5DSZ7MMwcD3HXLoAbaAdMZp5+Jd2/cs6fzLQkcdc7jpH8DFNaxAbrbFRulQvNI504zfSttss5kN8vT4KxZ8Wo2La1y13Hnn3dJyKyyJRTH85Rv8t966G9prosuvtBQe5V8H7xjvnpZfcUlbUWQ8/IMHBx5wWNpo47XtNdAll1gKv5RegYvvzdOpeGrtsEOOxNNfB6fjjj0xbYBXRvlOrQ06O4f/Pekgc+dKHyGzUhjeVE508MYx3Ha+e3/1ML7JcGa69PILoUiwD/Sll1xjJ7ojEMPddz1gk5aPO7LQFv8a009POMZO2EcfdXxae91V7KBx9VU3YkHuoHT33TiBQW9aLNJddeWNpstHKC18bGyKKVaz2v/GI+tfpz9pHc/k9Oe8U17hldjB4Cs7OiBXMVYW6zy25IO0+xk8PmL7w1M2+NIt2sGjvRfNyISv2a41pAE8+NynVaJapMuwBl1iuuIBjPuP2eGG+sSDNp/UQ9NY2GSRHQdMvTAyZiB8tgc1L93wDZFUi/PCANEPnmoSR0hXOiuyYrG+oR403lC+iRjSdkGc5c22cmviplMqoww0ftUA5XgVAGq79oENY4W2GeYm6NqYg6Uwis7XJGp9bNjqTybVpk5/8ak7wo5qXcezpdKfV+nU0Z5c7T/C13VqfSs7JLiks3sf/wr//7F3HnC/HGW9n9NLChCQmoSEJiXSla4YBEEQMFwgBAg9AkoJLSQBKVKkS1cBaUogtKCIXhGDIKCi9CoWECSElgSSnH7O/X1/zzyzs/v+3/e8JwHvvZ/PzjnvzjNPn2fK7s5/d5bzRzyVVi9WzFtlcCUveKupsKGjy8MlsjWK16+O1hzxqjXNuz9UVbW7hEZ4p8ku68B1QFxA7dNHf35Pr2b9dfmwXq37Be39wS+nbKD80t//Pe/JetTR1yi/++wXlweceJz24Hhc+Sd9oe4zWgx43evOKCf95gm6YMMjbOpopw22+PQOclORNyBxUa9XA7R/2o8uuLAcfY2rlqsffRVfmPniSReC8eEH6ZOgb9oVyz1Xk45t+jtX+1vpYn+jXrXjptKLJb0P08rLN+bMvHDM10Lvf7+Hlt+4533MTVz26qL/qac+vnz5K1/U0zSX9ULOqU99pi/+si2yTmyx8eSn/paeXNOldb3I5/pnNKmkH9gHJgbECV+SJsfwi/jwNAEXzFz/4/BB+gX9eO2rtmiRjT20nvmsp+pDBttVf1mWYu5HZSH+ow+w5jaH0SDbfnVFMeY/jNjeV970hneW39QrS6/8/dd5Y/RH//aD9QQKr0uV8l69EkY67t6/6lCwwfsdjr2z7X9Ir5zwFIB/bMUf26oGLbXywf7gBv9od/xRm7zuD97mPX7ttFRwg/ZCvYLylCdpUUE341/+4uf9hBF76dzpjr9mI+xd91d//f6yWYtfd9bHwNgonn536umP897B9lGccbEefrV4RHF0lCs18eTalQqvun328/qKnRb7tui68wqXv4L+ruiN0fnl/Qc/+F7h5n3bxdu0VxH7r63xtSivIPKqLzdyLMB98lP/oC9T7qztErHCD9pN9y7j9qseQKe/ZHtRr1e87I/tQ2WR4JrypS9+Ttfrp6ht9/rVx2td8zr6Ot6R+sF5k54Y/WH52r//q5/KvJm+mHvKk5/hV0effKoWKyUbC5AxumlozOGTG52chCOCic3QZnvLtR78nHL/29683O7Iy5f1dAIlXss766z3lbe85c0u3//+99eCxhFulzPf8Q69UvyJcpvb3Eab9T+ifGTfV8rzv/on5du7WXTUBzaknwXsmx96dLn1QT9bzn7Hu8u6L2hhmXEi/V7kz85h7c21cLH6CSnaMfoWhderb/FkH3sIWkq4P3nTu/3kGosuvAr1jne9Ve2sp9Q0oO5whzvpwx2PK/d/0HF+LSr6T/Z16a+2iBwxcZEDqcYt51/ue+7Nk2tvf6tftexYtAj8F7oZ/0BhU3TSGs0xfNSOdmGMPe2Zp2hR9Gf1ttJJGot38djPOGDuPtMn13Tzi3PhL46Ia+HkQGOmw1hWUX7ypynXC1FnvUeLa64LvMGTR/aHOvGh99UXCi9b7nLnuzrevOrOPt5vesPbPV9GUCSBGeRxRf/6xTXqgq/pScQyBCKqyLQI23yqc0HtSFtnrJlLrn+9G5Znnv4c95d36MeJP3v/uzXHX2x2xgT72p14wkP8FOdLX/6C8tGPfTh88DofvtjRcJij4oeNFVOtH/aJK3GkXi970Ws1Bs8vz9Zrvyyy0xYs3jIPswfaQ/S6/clPerSfoOOckrGQqJIPtf7LWK92M772Exf0LxfXWOznteQjjzgyzmFVr32pMPHj1T62CeDBH84xmh3sAvE3G7ZI4Va0aWAqMttC85Y6EYu0f3zKg8rPHHGdctARNylf//TfaQ2ilO07Nuoe/vLlGjc6pnz7n79djrzZ0WXfNy8qe8/dWQ6+5RXLnvecW771+X8r9/vCE3XvP5x3o08PrgxuZBCiH+Au9d+qB4/4IAAf4WHuVND1Jt9WP135mc9+Wq/KflBfD36un1L73Oc+4ydpGWcsHvFhkePuwZNrWly7Z11co1FslPbVK/r6seIlL3ilHxDK9Qn2EOP8fsKDtNWXnnZ+8xvepgeUXqy55y8teuTVj/IHCHg67j90bfGm15+h7b2eqod/tCie7R+NX/t0XGo8+Ymn68no25RnaH3jU58WL0k+POdZL9AC1U3LXe9xx9YuDz7xYfoY0v3LPe51Fz89rEsn0XRoYYr+aRU6wdBn2Fqhfy10GAMRU3jitdDvaPGRsYV00VdKH1e+r0XZM97xp2Wrtjg74sijvDXX7l27Tf9FrS3xtNpJWvzjh6nff/Gr9YTwG/QU759YBx9Vev9Zf13e8c63lbf86R+7/xOoaGuM4HRNHehg9mVYkNMJaN9d7noHv6p4v/s9sDzkwQ/3QH/u857l91XhO/UpTyvX12uhD2Rx7fRnlaO1sd5DH/4ASB4kb/vTd5cnn/J4db71XgR71G89vNBB8IV91O5xj+PKHe/0i/oyzc3KC17wsvLIRz/M7/3iwW898rF61fJ/lTv+6i9pA+Of1xeaXlW+pNdK+eLEa/7gleUv/+JDWtz6V/+a+sAH3ccD0oO+XWTLiUm9+zJztr5cLVeoPYykHHic8JjEeS30E9rj47X6petNoitZRr8oveVMN9AztafcG9U5WdxjIZG0VoON94B/rF90flFfznjuc8aLa2956x+XP/yjV5v3F7XX3PO1ivuYx54Ueyp4IscjWsEsP+VDX//e1BRPmZROJT3zoA7HKT7lU0fS95enxgORT5m0Rb4a+V4u4b6+Pa73O/H/szme9bVaYn3K0JWH/h8taj3Tqib/NMeucB4/ykfXRelEhkflFIcELwn5lOvpQYVBfxBq1ooVqGqSJRh1TL6kp/yUIenVxJTcyisBaWslnktFmwamK7f4y0BDZ2WWqxy8lbYo/qnHeVe5VOu6dPgObNVchGvEnzAw8rfqTl/xg5Q8CRupw+BnQEM5OKbllFuar55zqSyYFeR75+FzudZQDdmeVrNi4QeStWY5bFTrmIOQ8uTC9DcJcPiJt6oyzpFglXBD+PS6zyGji2QzKkV5fJaF7hty+HSRx3n2qtq092Uv/cPy0b8/u7z1rW/wZvq/rr1U7/grd/GG3le60lW8J80DHnhceZQulngCgien7n+/B2trhtgSgkUKvQimf2GdPk5Kn1wQCao94lqW87zyr33tv8q3vvldLZwcWm5042vHYp0q6msKKeDCzVICLrjv3rLzSvE61EF/t7Zs+pT4uO7gj/O3OPPCDqlpClX1WkP15wm4W936duWJ2qi52ZHQNm1g/QzduPLhpNN08cdeKKRsD9tQJb/6r18qpz/tibru0K2GfMjFCBxhvI/GOmWUVBogCRx6sb9B12vsufbu97w99u1CRgT++KDUffWFUPZR4odWXtH91Kf/yU+43eu442PPNS3kpA/ZV2xEh/SHMnA2DiDJ9cdWXdDiycSz3veuctvb/JK/GPs+vQL8xre8zrwsrhFrnmxD2SlPfqZulvb4BoRXZPnQA/GgMfDDbUldEKopwbSfeOdGaiEVGbUTNz+n6cMbN73xz4ffwvMKDx/44mu2LKKd/vQnld/WFwnP0Ot1d7nz3fRWxm3Ki1/6PL2Ocz1d4H/Xm1XzoQPscnP0yle/ULFSn9FNi/0cObC0gJy6qxyKQ+659m96I4QPA9CG/Oe16mP0lTXqjN/sZ7Zdr7F+RYu1F1784yqvfaCu+bPl6loIZGHuk3ot1H0F1e4grZrG+IDdGjQy2guU+4f78t5yr9+4nz5w8UAvflhGAo97wiP84bO7/do9/IU79gFiEqAu6+TjLi3S8OoN+09dpFe/XqKYfeHLn10yDm0MpTbe5RVnf3Tgpp3F0Os88fXlKbe6drmmPjhCV8jEjeYHPvAB+8gTmX/xgb/wGyc3uelN9Mr5l7RX8rHl8GseWY7/p2eXf7v42+U7O36kOu4t67WwdLNDr1nudfjtyzkXnlPe/S/vL1d453f0qmiMfxyjr+0/xc0vcSOI5E964tP8quBTtI8kDUFc3/rGd3pjd16h+ua3voF2mYCypjzlCaeXK17pynrF67HRt7Er4+bBgd6PEInGqjTP8frqJo3AggtjmtdC33umbrJZpK+JBbT3nnWmFzb4uMJWxYtXy1D/Cj39Qr/7ndPiNax73feuajMEWZAKF+6tRRP2Yjzq6teIxeRKiIUR6l8Npb+tLIThhnAbECvad4/2vnufnl71uUs41CqLXCrf854z9YToH3mR+bLaLxxvztci0nl6Kvhppz6r3PoWtxXOI8YOWB4uAXc/bnhybbq4BjNSxDlyyuF8HAcsNt3GcMo5zjXUhvmNvbIYA1/Q63mkI/TEGvMW+9LR14gXWyj90yc/7koxR/jsUuMHHJYix1Zot7p6CI8aXsaR8b6hBEt/PDn+XG14zwdQ3q3X3L8u++yBeIfb36kce/s7mv9Vr32p9sjS/mKyjXlMtfZrdnv7CZOTqPWQsXDHij3n30P1VeFX68cT7pkrV2VMWZ7k/mF535+/xx8z5CM3p+mjNZwXB1/E29ipF2W0VaQ7BmqjPSgyLzJHnPyA/1V+4UY3Lle7yR3KLn385UcX6GvBG7do3t9Yvvb5c8tF39heLlO2lKsdcVg57MiDytarbSoXv/K75e++cXZ59pd/zw/WMF7wxee9oZqCMmXNxIR7coC/m9745npQ6Hnl91/5ovJBfRwEv9hvlq9rfuSjZ+sDBufqgaIHeSGMPSLvqi+J/vajHqfFtWfrWklPrulDByfpgwMnPuQ+7tf03aiy9KuvPeqkx5Zf1hdYT9CPknwRFtvXv/4x5SUvfIU2/X+ufrz7QnmzFs94Pf+U05/gN/B+8+GP9uumJz7sfq7Pm95whn4YeWr5Fy2Y+RxabRDZWKgt5eEPfaSf3n6+nnb7e+2n5orU2DPns55zul7P/he9nbdFTy2/9IWv1NPNB5cHP/wE6VTs1Lftu3R6XBEIJY4ZK37AfO87P6A9/19R/kJPfQcnXNWcZF764lf6CVUW1zDPh0De/tb3uG8/+jGP8D7/r3zZa8vLX/VS7e37fsueoh/GeB30Pvf/DX95mSf1ztFTnKec/iSdH3aXXzn2TuXJTzy1vOwVLyp/8ze65tB1Fgm/w0MXh0O4bvvuh6YkUmht8rbvtx9zkit3jaOuUf7krWe6knfXK6Hn/fAHYteXV06JDxr0T649VJtHQmMFmifXnqTFta986Uvl7We8R7+gfd+vTl5Rm8Q96pGP0SS8Votn2mCVTf30uicD6I/f/IZyGV3APfYxJ5ePfeyj5dSnPcUb7P7lB/7Wi3ssYP298K96xR/4NdR3aDWSDe64sI2BT+cClhuqD2PMlVC2JMEKTyNEh6dds0F5LfR1WlzTHnTBaH3aaJTFNT2izZNrD33oSX4N9I1ven3hHf+73e3u8cvDg++nCfPI8tz65NqG9Ru1z8P7/CsTr9vyS8VvnvRor8gef4IadsfO1smyo9FBOgebpwnsh0xT/A/LE02M1uQAZ3lCE8vYvWyJ5IeBxshyLx+8cYLDVsoCZ5LcfuWRHHuR0vZu3EEGUoVCcjl5Ma1AQsV+yPtlWEnetP0wtOqJbwTjXIa+hrbXx/zaIg6Q8jBF0bnmd+vt6dih3OTNufSAKuRzCquqQ3A/8slbTS1VLkzSpn6kLELJs0hB0paTN17KXN9FCoTDFnUk9XYDU5FTA0msuns7Da48lzT+6Qv6Ek6zmSfNNhO5An/H0kB028eGWR2A3NR++pl4NPW+JX1qIXmSPpVP/FSuLw8yA9TTB/gA6R6UvQdV3ijNXFwsojz5cnDZoCldoCRU+WL85syHsrw9CKhqXRK/qlF9Ii7oQ9LGWj+pHjYPkmeUiwk+biI41171KkeUk056TPmw9q9ikYYvqbFQcgd9BfIs3djxdcg/0qa8D3/ECeWRWlw7R1+mu4O2qHj9G15TvvTlz3PK1zmfKzQp1R8Zyb6kQ10OyIVhLuKcf96Pymc+FRfrfP3zkEO2hh5dSPAPTVys7jlCr4Ietzt8F3rDxWvKoX/IXmdx4+MFNiREwwaibhLgLuU1Bj7wugtf1XuDNhbmifc+sW/Wj7QlBV/WiiQ/DIRX6OdtgBMeeM/6C3pcB9kB+ERHgCwT8kZXGnjrJB7648mJD/z5R/3RgjP1pT1e/WQxwhfS4oSHj1zt0PUKT4GwpwtfC2Xh7S6/fjs9/bTD12NYIQ4tNcOiCG+bjRiAVIugm2f90Ta/rKdlbqyvlL1PC2zPe87LzPQH+looXym8733iWpMviRLkd5/5v8vx2lCdG6a3v+3PyvEnaIsS3/SEH45Y9aer+sSDoTjERC7VhaNjf/lXy6MfebJ9R8dZWuz7Jf2AejktCrG4xg0qT2W9Sxu4b916kJ5U+3XvE/eHes2GTZdP1r4tr3rFG9wAvPp70qPur1jIs9rPRvHClQWOhl8Q9/lm/Pra5JqF5n/TzWZGlcW161/v53yNDWetthdsuaFic3cSi9rsdcaX+b7xjf9gENFqFpia7ssJO5dD2V68Ort2zTp/7e62t769F68+p68Av1KLMKdpw/5rXuNaxtn45MBecYznz3/x035SM+PSFmrh7w1XefcZ43XQIFW3URdi0Xpvud7JryuPveV1yvX0EYO88bWYeHaqPdju5fnPf375+Mc/rv2Ctpan61XQm9zkJrrRP7RctOficsezH1uOvcotyzkXf6d88HufLdc75Mhy3OG3L9++6Dvlzd/6UNmh/bN+9k3fK2t3af7UJED7tWv33t/q65DFTT5lfCV+LNqedsqzygtf/LvlH/SVQK57r6B7JX64V6G1C/hraeuZFzzv9/UFx9fEF/foQzZOiOyEZdC/cKCBrh2J8Yz939Dm9n+mPd9e9sJXex9ok60gDoSYrXh4hYov9L3vz98t2x/Q10Vf4b7+35qTf/vxD48+J2au2/h67V3ufHd/jMZacA0Af+2nYAzV81JMluJI48YjQIqYOV71ybVYXBMpKhPKfb+wT3s+Pdiv1/+pXq3lqVbMsVjxkEfc3xurP1OLGuBGN4kq49d4zzXaFawdxRGl5mCFavuoFBD5kPpYA3MuIeb4zdxx2lOe4aeMkOCrq89XH+AVOprU/baeXyJuYsq2RoXNxNHgfg72RQe5YPuU+fGKDxf8vD5ew8MwJBb5PvGPHyv3Pk6LLJpH+Trnh9pr9tQy+juWo9YW08FB7fKKh7HGG+vY1XThpyAfqa9NQnZtAnDJ/DrwWuIntcc5P5awPxnt8Rp9fXnc51NwYt9ocJHo79jOp8ZvdszPlZNOfGg55Ep8zOjw8tVvfbf8x7kXlfMu2Ft2Xbi2bN2+qVx2x4Zy+NbN5Tq/eGjZ/VX9WPHJ7eX5//z08tFzP+LzLucZuSZP1UucuyZpUfngE/ZJZPj/e895qefgf/3aVzyPMx+zAf9pGms87cwG+7zmz484PCHKE1w8ucbi2s/ry+nPesbzvbbyRr1yz4Kc+4Z0s7DE69DE7UUve74NYhkf3/T6P/WTiHx0gMU1zk0sPG/fud0fxWFPM/Y2Yw88nlx7xrNP9cJY/IA4xJJK3Pxmt9TDVb+r+Xa3njj+lmtK/fjC6Gv+8BV65XWdXil/rZ5UPqJ8Th/qOFwf3bnCFa7gp8s+rqfePbYUB2vtVOMpY52OQayotxfX2HNNr4UGa4zKYCrlpfoIJ69/v0BPk5PopZfVfr38eMNeh9T/edqmi49Pflqvu/NU67Wude3yxje/vrxdT6Zh6Pbay5IFt3PO+Xb5rj4ucsOfu3H5ih7qOv13TlGcdG2TY4/ciRzNkwRqAWnNq1798n1n6BHhTO868898wjvxIVppNHJNefKTnuo91x4k3OmnPqMcffQ1ysNPepDph1/tiHLG295dnvTkx+nrJh/3vmrP1L5rPJLIXhWf/syny61vdRsvrm3btl16jtHF0wv9iDrqWaR66qlP0C+netVSBl/8wpeXm+lLE3xdlM07jz/+gX6VFP3/9M//4AlouLhm2Edq9QunK1bZklgEpwceRJ2hgf/mgx/z4hqPS7c4Cf/mN77di2vPfs7vuC9Tf77ixSTEhc4fvu415d364AJfuHr+c19U7n7PX/VA4bVQPpl7cw0K3oPmAuu0059YvvDFL3ji6E/Qzd7g9QFBPz35jGrvzlIc3Z7OvTQt5R0aZOAPeaQHXOjq5YH7lLxheUod93Z4l3KktsXUHtvDKTXki6mLsYPUAK2eM2R6fmBSRsrXG4GK44JqN3kBXNOQnKWyQMWxKa7IKpP8vTxzUM+OOiZLmtXXTiAoCpd+GkUZfKXDU8UMTE9isDV6ZU4eiqSevhwcnHHseVaS72VWgqf6et70H1xWGX7StB6tIskgniYvoI9/Kku68+pI4rCRMLmTeKZ2q1iSU3Vzp0peoiztp/C0nPhxHh6lz5RIfTlh8On/wJcYqAM9Svs7Dlr2xznQJeOK+VDRvYegQm9wVFpjqTbdMIJdDGLwS1yNP7S/LlpU6DXaaMq7gEuho+dEqG//0FHdr3KZpQcjeRGRSb/6fC+KubzXRMBNBj+wvVJfDHvc408y7l73up9f2znzXWeorFeW/tcJ+jHtF8pjTz6pPO4xT/aNyJt0MfkZPTUVFztxcctk4fmiOmv74Zxdbf7ItG5pfZ7HPhf5n/30v+p8/GMtGG3RfkbX0Y3hBsugHzmuB/bqAYjzHqzXDSnrsPGcteWQt2OTV0OqbXyw5PhQXQpZFYhVPBHFApueHFEdj7/viWMhGjIbQfYj1TMjdoTapq+tP0CvhsXrKbr24SpfVuyjoVBRhcO3VFtVqvpikj/627hBi2vv16/PNbFo9A4tsr1Ti2wX69oGz7fqK2Y86XJfbZR8qBbVMt3lblpc8wWobrxA6kB7pOcVZUSrVhWGn4WR9IPFtXX0i5e/Qb9Wv0y/Ol+nnKA96Ehf1+sqn9WizZvfGk+x3eaWt9OTP0/Xqxtxzcpi34te/Gx9AfMfZF+xyJjYKatYcoCE+cxhIORudwEs2nF998qXvaFc6cpXNvM7tLBHHMBn4lXMF77od/Wjt6BZUwAAQABJREFU6ou9r9iLXvyc8oLnv9zkh//mA8rrtUiMEZ6cuG9dAMwfhonVapL9krewX/6wnynXu+4xeoLwk7pejvbhC3w30JNra/UkTOqkbiSeYOOamRu4q2lxjW1b/kUfQKDdYI5/YpTyaTysYHLAF7eZ2msPC0Xqy9Tthtr/7UZaGP1n2TpRe1xdVx9bYKyxP3GfuDGlDz9fTxryZJ0Xqmubtaf68KqPjWy6/2CbhK/g4qBXjaK9jjxOi2O3vX05/gaHl60b1gVvHsV7kX7gPuuss8o733mm9lm7bjnxxAfpiSJ9nEQ+Xbjr4nL3jz2l3OJyNyi3ueKNyj9qce3IQ44o37zw215Yu0D0g3+8pxz9J98r61Ul9wH54fkoXBr1+zSbuX1VgTzuIfeVU/X0JZveP+s5p9XF0uRW7kl9Tbma9tl7xu88z4vfpz7tZC8iEpuwS1+vrOhGvI8bZbAKnmnYFsATRLe5xe30dOUPvEjM67ncn8BjcR14UuwD+ojBW/RK5ef05cJnPedp5fa/dIdyFX3lkr3B6H98CTZ80fiX4utp26DL6euGH/uHj1gTfcv12Cd6vDoUFjCCI40usCV74BI32x6P6mP5QYOshx21Cl5D/nx50qmPK3e+013L4377iVGJqv6ppz1BC7if0+twZ/hJwakZ5vJ7HKcN4nndT3+tPmIMFYpZREVHYNSHj1EKc+iFRnLVArL/lP2nccK4eLae0PUCoHn3lZe8/Pf0EMmHpSh+LMGHcCR1Z0zSQuCH0tKyzXPANv9g1sFzbsXzowmvifMU6Q9/+EP7f2t90IanJD336Qm2s//ug3KFGssH90mESfjUeQCYbkJWMkoHbNoH1Z+vOj9Ur55CC6cAuiQdT9YeXl/68hflwxp9LfSRfhqRp70iLpjBF2RsodMD3ppDofu9yjrheS7SnL5ec+TJT3xGuexVjirXOvpI7x129r/+sPzXD9THdqwvl9m9sRytDfpveVMt0G9bU370N3vK97/77+XkD55YdumfnxhXn2ltJEt2xTXEbJTCAR0VczzyuBfMYuadtD8oX5NlvznGEK+Dfqduf8Dizs/f/BZa41hbzv7I35Rb6AMHf/fRD3vbDFTfSh9E4PXPz2tMfpY3AzEnA6y18KTbP2qB9N/04wk47DIubyEZ9lb7iN4UYHHthS95nhZYr6QvsF/BT8jywQieWGW//HtpuwoWVc/VR2Dc7l11GI9XP/Iaeh30tlRI2of0rW99U36eLcQ+zyX31AebWCNiIe+v9dFLvgibP5z49IzjDiI64hq2XZcIQ/3vc+8Tyie1JQiv0WIN+TAbtn/l2F/Vk9kXlk98Ql/URQsqyUXOPs/ecL9251/311a9HYL2kvv4P/y9uGCM7Jgb3LDc4dg76on8g73IzQcdePKv1V92Y76tAp1sxj80LT2uue0v/oLdobI4hoNYRiHq3JnTE1OSB75IwTcMXjaIvIwe/eTXIlY5nXBSgHkFs8rI/gJ8kjfkIyidqYYXu/yhU9cLSnSB671rysNIFrHdw5RJ0QCyzH9VnL9xAmcyDOFWzbdu3lo2b9nsBTPkRvolc9WrHV7OfPtZ5ZSnnqxfpj7hi9If/SgeN+fiTzWht1guGm5smdJI51Lyfhl++vIZHCwtTfu338sLdkpdGdOhPFS4am4GGjByYsAmNMmzOJIaCkvJE8ykOEgGtB/yUJ2pYC338j3c2BciRa34ntzDSXcOe20GxhP9Pem9jGEdzJsEctiRhya4yYOflFVM1S0Hl8n8tQBMSn1JS3xQh2PntnUnBXnqRUqeKI2Pi2iIMeGnzSlPX+7h1Iwc+GXTfhh6cg+34IFUWk38U3653Hp0mNbj0sZvpfqnL9gmrVSe0nr+pGVuZRN90DJN6wg+cZmvxJu0IZ9KBWXqz9RKG2/N+qARaCyPDZKwNLihOD97kIDWP5/D3OGZP+N8rkypk6+w6dYT57bBXkCDfMzFaCENmrCf8/TU374sfdwo8c8Xunv1KsJ9/BWpl+uimae12AT9Dr98x/IbepKNJ5X+XF+Wwu+X6mtZT3nqY/0IP9XiXOk/HPH1gLzhPzR8E+zqQ1fy/OFctlXIp9e2Xby9fOpfvqqLP11UbtlUrn2dI8phV7jM6AIO2V032Fd23Ew69VWxLR9cW9ZdgP24+MNg+iLWCDNGJwkajsTCXiwEcPH4dN1k/Zwu7PpEjKgHyXKGwiYgXy3/vRc8I24GuX7wNURIuN4SIhYI16zlVmUSTPovn9av094m7/mQn05LOnkssr3VPhx/nxP9dE9P5+LzHscd64tyL/C5XQab8No+fghQNkrQ4kZvaBNidMwNbuwPPvCa59FHXas88P4P1euDl7MC9ltDKR8a2LCRxVC0hGYWeI6/P3tDDTc+GQ+zjawvLtDeQzuxcKRXDa99vfLsZ77Iv6T/rZ6wvIk2or7cZQ+zAl45e672Lnr8Y5/iX+i5QWFBmC/dspD6W9o4/LWvepN5+WH14Y/Uwhyv8/Y+mrr8wbUbDrrhXFduoKfUqDuvCG/XQgev3LDgdrAWQakr9aDu9E363H/oZottS7gp4xUYXjkkRbuwUE2vs6jxHLLsmKCr4iB4HDlXjNSIftIPATFD49WvY465sRYQNuhG7HZ+FXW9nkSgT33qM/+sr7+dpX2fzrN/XqSmD8sZ33xJDbCTMuy7iP50ouZ47flEseYpuq1X+9lyjbs9rNzpRjcoN9fHCa64daO/FhrK4sgrsWeffbY24r62brh4JTwWSrfv2VGe8aU3lj//9t+Xe1/1l8qNDrtu+ewPv1ze8s0PlXN3X1w2qZ6Hf3VbuezZF5R1epKKNqQteTWdY6Z0kXIPO274K1ZiBMArU08/7bnlqKOO1j5c7y1/rT3YvqsnVkjcG7Hv2XH3vG85/4LztXfzU/1KJlpl2jESNBhJ0BMh+geSFRqlgwgKlT8yka83s7DCfZiFqk6eqOLLhtywn6IPrPB20rr1LFhGW1E3t5Pajv0feSKLhfeztY8mTyXCJ5KqiWN4mg5Rxg8SWpRchI5AoACynzG2vbimV8ODrGPlswbJNTF05vlxYBP/wBEWgg/P7qGPpNAPdAqSbNxjpsacjaNsa80WuKTjENRmxQD0MO0n8CioHx2jp0+fduqzvbjy8le/WBunf8ixJF6OFXEwGLlhaRoshCWHy3aibKHJgWqbKsDXsuSWgZEYO7N2i6p8q1tpge3k09VP9pT7PODu9g1ajEsEenvApFCa1MDVulOQURZ1r3Klq2lPTX3oRD+kWCbEkt3158eUN7719d7LkdcgX6K9WPmIi+3LXOv3tjm2HxcCUpp6K+hXx2s/OvKo65S7nXRa2bX1cuWIwy5TbnzlQ8sP9CXg7fq94RAtyh+2Wa/rfmVvueir+kFNr42++kOPK1/9nvZAYwFW/STPudldMxqRYzh8Snz2Y497Iq2gE3fHvjka9QqeIRx8sZV+NtSZEKGZ8ZV9QkV0Ima9hijZVub5ZNrTn6nXPvUDi5P1Jxh+ywD/ww6qKnrw20Y6z6u8MlsezLtsXdTA8zy86KdG1WcbCCGuz0JHp8T8YYNjTwfGvT6HpzJFnClYyJRlBCqNrNY9fIxY2Eiz1PECTi+4OvKaX7z9LdzOjqEOBFFNJ39iOBMcT5IjD6UBJ6rT7SY0GxmblR+9tXt0ZsFFPXtk8AYl4+GJzY0RE7Z6uLyTPPb5p9wV6BSFnqUI4yvR/mGk+tx37JRPHvtSjTgu1TnHlUBQRkgJPYdrpfjtZ7zXT+T9/cf0S46c9MWDeMjdcDhe/bdgd4BSTXTY1YM/Ofn0Ao2krqKBWICL1s72D7bl5Hv9qXs5+Slvc6ADoub0i7H9jsUNlbp6PHDKrxT/4JlK9uXlOJbD97LAy/EZvxyxU7KEpSJG8olTnuOnogb7EwRFiOavNI8/8Aqpu3QNbYwN4VTu55/l5D2X2IBVodGpmom5pqMbX21ispdH0DhrGMM9recZCVS5zEZ8iVS+CA+O+anNiR1f1kUop5XkobVUBZ2lksQpN68OP6n4Y7f3rYebTxOeHp8u9jjgKX45vT3fIjhx5CT0kHyusJUeF7TVHQePBmh1ksEVnnj+SSc7cc9K/YDB1xHfInnhqsxIPgdWHwTjUCnOiufXyxh/dVa0PR2qfHvaTUwJm6U6FjCVCPmojj0xhkh3XrfaBg6pupAiBJf4eZF2V22g/Ot3O86vIR6iH+LYoP13nvEkfUX8a37K4BH6IuOX9Qv2+9//HiuJ86ZAXaRxPaLLAM9D7vNYxeDgbL0+CLyX9hiQusDn5oKLbb4Y+oXP/bt+pdxpwY0b9WXDrXqCQ/SdO3eVY254LZX1ihHB478MYTN/5KNNsI3JPvVuJA2bKI5933gSg194N5eTH/9U/VJ9yyYOGxVBbqxHG4rrBvg0fT3wP/7za77QDz/Cr7QT0uFTyhsnBs+PVS9twMILCyOHaqPj4+99or5Gdu8li2zI9olFtbPed6aebntrOf9H5+lahhsOlCs2MAokfvhTw2Zx+8JByXjBNAeVpPf42ktBIj43vckt9MTiU7zZOwta17/u9ctRWmjj9UvSe9h/zXIu2ja98d7Hs8G6/HGjRNvAYV8q64pZ+mI/5Itiw5NZN73Jz+uDXKf5QwBf+OJntSfc7f301SmnnqyneY4tR+v1x5+5whW1wHaEPgD2NH/t7Xvf/65+WD5f+9M82iY/8rG/La/QQrK/8qpIsUCCZ7i639TqKkBps14rvvGNbu6vfX7lq1pg05Ngm7VQc7WrHunXcdwvU6kM7NICHDdpF1xwnp4I+YJirS/w6R/twNIQ/61ZB/wBVuaUcKMLG+2lnD5Ex86+VJkYm2sYZ9hQTnKfsCnRfJPFWKL+Q9k2KVuiHpDBBEjrV15hiukDbbVPT0gddv1blsvf9Nhys5/TU1TaLHwjTyPZ4xBq2ntdou+Rg5+/4N/Kmd99V7l47bnldlpc+8gPv1h+qEW3DdJ92Lm7ypU+ckHZ+B09veI+xkSAL6Ff0Cj17iaBGFAJ30CqQJFFBp6GZK8i5gOeIqIu7EnFYu2H9FW/P3nbH/upSLoM8XIjJay8BawL0tg+lmgLmIkT87GWBbVQy+byPLHBOO4TT4sceeRRWtD7vja+361XRw832falC/0cKOMvT1Gec863NEe51c1hdwKCcUn7tUFsZ61RSu2kbbmfMRb1x3z5Rn1BmkU88wxsVXX4FFFdqgtnbSaCYN85nK+9rR78CL0KyaK3+qPjIEa40TVoCowdMzYshaLOmUqDmxinr1EXlYTj75rXuI4XxT/zufplUPo9dskxQoFYgFPG+KXhjK0wbEOq/MEhdJYFIh8HqRCeLy6C05+TAGuuCEo31OI4H9fhKcScI+yZTyJj3TbFAX2QbEvxy0laemOaUK7+wQ8UDznxJPWvq7d4WxZRy6Nrn16R/m5513vP8OvIea6DHhGSMXibTWRQQKrIap9q9fMEC7VXPOr65ZjjTy67r3D1ckHZXH5GT/Edolfc9120puz8filX1vcm1n/vG+WDH352+c9zP90W1nLOsnH7MlgMKI7pmktyAI+i7Q2EqzhG0cfa7ipFudWihgSNWBXVfYNy4FJDNGj2W+XWL30SQedlNac842nPKa/9o1eVr+q1VEtLl9XBkLDB1K1CTaEO/0Kn0ZYbPAEHyqnWD0O0H4lLBXNnDk+aqoLhd9SjcpMNSX6ax/oRRkcoqSWh8DJIFRrkE4LBAg0Y9BAL+HQwhP5WnwrD0InCXhUGSOn2x95SLHAizzCT8y4GbA1VSQzOKFB9JoOoaNhJa+DgIoVm5RWoqoKo46AN3qQO8qEjOoFVoMj/q8KmKQHwaV3gpJhc5PYd3vgPRn+93r6RLIGQuGrwQSHj4AdMG/DO8C1+4VZ+HJJfnuC22zp4AqWgBLw0reDwUmZhpj4vZFoB2cv38AoiI1IvsxzcCyTPNIcncVM45aGTMkZ9Dn4qv4gXXKZevtcNPcvJu1KeeuABJl0a+U62Vx2KD+zYyTewAWNVoHGfPtxS8mYOwYyVQ7wm6ZDn3iYOkHJ9XkUbSnwx51RCZlW+15sysABPU7MNQQUPsaoneZOnl0+WzJPX+ULkiOOnV+grnFYmjptFhz5Ovd++zkg9newUlXFJMwcSv5C5tIEK+fRrtTqTfzh/0PTpy3i2RmdSQn9/7CkJZ97zLQcnLzlp8CzK+ztKLjusVUi+NV4ni9qshQcrfKBCnjhY3BfTgqZ5p6oHrbYipvIsvJHiWJlqZtOCl8hXuq8bWE7BFfnIYhdX3Fx0Hcz2EdoS4o6/8mvlLne5u/f04UmbP9OXws7WvmyEg4synytV4J+R8sf20iEKwMoTBYA89/hExNcl2FeZhRxeW/vWN7+n1zJ+oP3MWGSLhKqtemX0mJ+7phYuNkqlbjH0ahMLA/njGIrh21+yL/UQC1q6WZQD3DTSXLxmwcLWtfWqSNRRGs0fGTZ4uv/Vr3mJf8FfJx/4WqUv9OUB9ZsmxBOdTZ882MxY4IMXJpRfRq90nXDfB5V76tUQXhnqE4tqbHR+xtvfrCdptKhGHFhkwJfaJv39eXW/dV13HTmEbbdHVU7Ztazt4fgId9WrHF4eoKfWeN3xc7oB/W/t73LGO95k+Xe94y9tu/knvbu0GHrCA+8eT/RhAJ/IQnvzo8ksA/h6UPYdFxaIHJ995Ura1+wBD3iYX5Vlb0D2ImZvQLuv43X0EQO2/2BB7S/1JXhes/s1PfWzSXFkP8GnnPoYvXLyH+o/sfiHb/ax+ZGegujhyiBDtBmJmLEQcy19/fNyl7t8+e9vf9P78LDAxh4+7kPisQ3p4uuh//WN/yz/fc43VR+eUIrYeFbEVJfScuY2qULffrDbl+oTY8lOgQUXjdpgoVyjtOv+wtqUHGwLoShV2e6k8S7Hvq8PUKbUYNlyn9Hiyx4tGrLAtvXI65eNVzyi7F6z3u5zqGLWnzC57VkjPHvLD9f+e7nwst8t2y+/ruzdJP92as/B7+8uh35NT699fadmAc1FLNipHZF1rKv8/rIICzHq4xQwT7GxoME+UMyJ5557jl7H/LSfOMQQkXHcMELDEqt0PitE2UaSUD0ynvoJUJ+2fVjVt0mMfyzAEX+qpYOjg9EclDzfJhz28asNLrcfMpUHkUZ3QXpTXuXmq40JQRrgeC1UGPnHfPlr2s/tEQ/7rWBb9jjIw4I1MJEEmTz49zrt+/eBv3pfN5eJU/EPuZQM/ri2SH2Djqp0sGFpitG2pmNa9XXIaX9zq0U8aZITT/6gVPvZ6cMZS4QtwERO86SRY3RgtdUwzJkYhzg6AZrVuFo3ZTTlqN9Vz1djP+wRNSZ3zAnyfKp5VXAuMqcP5LZVz7EYz3Nt4vHS3uFYeBy5T3KAqoVplexMOFywfeb0mNfXaF/0g697y7Luxr9ath1+07Jn4xXKZc87vxz69c+UbV/8q3Lu1z+qfrdTT2bmuU7tIt1Wnzakf/DDhXogmiT5SV2j4BhQiDLHWo8OTFyibLAVguqj+0pVbDvAMOYRoNoWOsd9u0aW6RifFtGh738hR32dqh5lg07Zqt6HnmCsWAqD0/ChyxirHCTN17UfPIEzUKsqWddXctUXq6ksVaLzJ6xT5/2n6qezgCMu1E9WiEFlwbaN9JZsA29gIg3wmtvf4dbGUvUhXLDARArN2UWyjkGLY3BU9dbmQ88iOC30emGp5arYv7RbMjywXVXQXDqwsbMLIHozteysh9NE5W1iBqS912FvhGtKMFGjYj4OWY/OPvwUK090ZCFV9oQp/712Sz1oLKXMXfh/7hD1XOrWcvie00EQogalJ7nBEj/lS91TfK8gecBN+ZI2xe9PvqfjW8r3+B5eDU/PP4b3J236CkyN1IAF+iutsSSgnGHm/o1YX1V4lBpdtBRrwDLyFtUBdSP5irNiE4OOvhEvcvoD15IKDJUq1mh1mmjl5Ec+U+pJnUlLXT1f0hJHvj/5qZ6UXQ7f05kHuLhZZBc+++xDF5NahtjiC3N1tMkgL1zMX4JFqCwBVHn0NDx6lNBB6vHgKPe0hOE90IQu6t/bmOpIm+B7OPjqCa8K+dwgrvApZuql/kUN+mMVVxbY1D3UdOAYeNLr3sKBycPNpXNqGnRjr9PVGrHi3ZCiy7Q/bECOhE/2giwa8iEqWJ0g2h88zPqr8hYWolJMjgOxDGxlb7TkxS4py8CJA16U4G0XOvIZt+McCRDnU8u1jovO8B/lPleqMtQn8eikri2lE6HSDkb9gw97sagXF9q2jyNKRIJXRbdt22UbBx20WQsjmzCNwVgEAORCWwieJBC4JNknYalG75ut2L6I3GBwk8sFf73Qxxee3ruSvgi4URf9LC6ykflhh11BG+d/p3xKr3HwRVFu7L24JuPEJGNhR2SzVsc+ux9UD4kDDZbhzbpzg5M3Or75kILD9Nrj/Y5/UPkNLbKRWFR72xlvii+UyS5ffHQciAWKKTs3eztEP2zFBozw+GTH8D18cVEwZep/A706e0Utbr3r3WeY9xb6kupRR13TdKqF/W9+6+vlH7UxfDxVlD41kyOghsK4HgYhkxytG7i1T43TQXr18li9vvywhzwKRscZf0fJTglT8W9442t1A39WvYGPBUkECdmqE76I2WOzjhf2bbriz1xZTx9dzX5wo75lS/1IhpznySf2N/vPb/ynti/R10XV19xWGJXxtN+7ny4lbhofi9oXyTOaKiNtRYrMLRo3z0bqIEWp2/027WcuavrjuPWGqyC6zYMp4WxLB/J8InR6846u8Catdw4Bdin4hDhsQ9l12PqyV6+Hrd+hfZrO313Wnb/X/Z7FZF6D3Eff7yvV6THY+9/RhjiF360cjg6clh9i4vElqp/6c/2D5hiklGTiozfRzo6jo45ApODvbQOnswTLSio3eJINBlhtWG1g3Bb0BiY854k3jkK1n2qaDcngEGYSZ19Uli7mR+LDn9tVTxyxeMwXENnAPdViwQk9oWwpLTiiJuJjbHxJX+7kyc9cLFWTqn+pVZmgnFDIX5R7bNB7SvJlDkfAGXPUqDZRLysIjaPxIBmPcYnSLmggOSxmjxiHZByDI4+9/cRF3vtRXas1E12q8K0ZSsP4I9jFfvBZJfan9rpydY8s2xEfmIdoz4yFVaEpjIQ9wREX2iOIzQ9smhdlwF0OASPQW9AUUeHyL+eIdu4zrYpUP7DthT3GOQvp5HZgPO5laRUp/FMvJsJ1jKbYVEP6HzLmcgAG/ugh1hRhECm0BC5LUX9K6Bry1BTC0b4NJ4DQ1cbo0Y6fEamrUS0RImFKFAEkt0/VSVms4T+5PQskNMvU+psWeqEMEKXUXo3V+CTPUN+Qq56E4KIjDDnmsz+Bst7UmoLYFM7oaj9J4LLPGRbbsb9ya7rjKFVa2FRhOTpCyZsKsm/3UsgTVPN6MIQkgQA3HMJSjhcMU0c7qDwX1kIPgiFqqTASOMHGQR/JD3gztoM8aQJCJgy9+RvMkLBP6mEK2V0CDh6YzS9HUi4artIHNusbY1VCqPdnCUMglmVbljBWtCxba4wx/7S0VL463QgApKzMuJyDbojqIvmURU9TTEGlYbgakYcxW2KX5MuyLUsYq1iWbVnCMvJT/q7cgYNwjwRW6rvsov5vkeQVfx/VJl/1LpGvcvAtl1qXkWLLTxiramN7ONkShx6aOf1r+MpYyY1+SeWRS12po8972hROvmUXjarTvVzKOM9KVWQ3vweZ+lfhvl3d/UeKhsJq4g93+kTep3Rp9fHP3WdSY69tMZw2gpoXjUvle76EfQHq8e7uoXqM5ZMP3YvgqXxGIvUs9jg9RWf4OXg7tj+Sz8bI3LI4lp4pVwNnaTpguNjPJ8bj5gmriOd8F5JNHk10mDrwLF+1Jw951GKwm7SgRES4WAh5CzQfQz6jNs5H8lgRM+44QgL4B4JagIcSecD4Zf06GKIgJejpz/8wIQ7ZahCvKUNNnny2YbtCcnFPhiT/BwdkB42YHPxo9pOGZ9W+meGvgNQ1GFSOZ/AY9T8v1qhYF238K344wlEEDtKoCtgPGfPTYtz8+UJfZOX2sBrOOlsynVCe13tVXdXPpb6S/OkX13wDAkF4XsFCDV92J/nGXkriqTV8G244TM8AmNveux62X3GZwZouKgRRwlfi4xgFHM6mVKXDHUIm0A4Rk7pwVeNiPDonfg3aFkMyrxT9w3slyRY+sTaV/vF1zEc87NF+dappyUpVBE+x8YXHj33i72rMeGpNZwn/x+kmuSog/ILVDrY4rdcm2exzxlNymzbqSTmtSuzcsb38WF9M44Ni8Wom/TX6EtLuObIf8Djvncnx0+PCunQIcB/KRqoEYkRa4q+tiiC7aqIAaCSgyAz7gApwNc9imjJJB7oBP8a7D2dOe9FW/IOOmgZYeyjGaK9YHQUZJPJVeuKUT2dmv/f8INmcJ9JP20F9AygodeX2BK/QuDTECruLEnaE15/nAbtXcUKmv1SkM6NiV+onBqnCbsx8klchtbSBkqIpV8tk2Ml9oKJiwrqTRCm8wD87CnulVyUjvyouPbdf8GMmfLM9+cjY28uTiXrw0gupDl613euUKKlab7CBeiCe/PGlW88bGo+OrRZRSF5EqbyZjVwTkpjlMaxRmkJgSNEPk+o2t3jSsQ+fDhUVoReT/kNzmwkYHjyBNbxIvYiidkgIqiRlzioBXckLJWHbFE8VCSbodkBcMKo86BpHIaiwNY3VIbWfiZKkHdHBGE1c4wcheeqJzWoy4dSc/c0MlrAmQ3GQYASs4kSnP/EPUJNDO+8K0Xyp3Hjvc131g3FPI9iv6lRfc/jxICygBMw4mY5t/wve4Rj4kAtN0f7SIf8IRRubTS3+IEeKI3Fv5VrfYI96Jys8/X5toT84w1iFycQ82Al8zlkd11JQctSV5PYLyJFp+C5i5tMhJCowBNbtNvLT+oK/Y2vyiTOHfakCyqyHYp03ms3KEvSqASKg06A1MaO8561Ktbh2m6n+UChsBjYH3kiZCqaPpFWgLD/oyEvk07+WBzPFUTI9aByZ9shr6wANKYXNMGGpdmo2yDQobITeCps2hUPAJnxoCjpgQmDgKgDErm8gYvL/Z+orknDmq6lRz5tw5sivBPf6szX7fJE8uOTp5adwNgj2p+nSyk/1LSqvxsYiuQ7XqejAVv2Ga8BElqKqD5nUrlcqoo3/lO/zEBnOeZRFXzT+s+9npHs1bn0fqsIKJwp96E2ZaqYyL81gJ8FP6ss9HNTFx2qyEVMOROptxAXAcvJLZPtK9Xqm+CxnDi8w2cS5UfxFzzK8yVpFQS1Ji3xP/iltifAKiNXI9tVDVZaXz5dqTcw0T9cSH+VxKXlWn18aecm6YhwyVX3Gp274hOiK5s6G96ANVXSGWJCDgwtoXXipA4Q4JbAoGqekgA1qcMYx28HaTO/xY01jN5PPGuSHdetQL7vDmi8IxQERAf3lhVnIs3hiIc9PWW3zYtxKAZTSIHlN9P9McYOmkn1RXFBb4+eCAmVR5b7lInBVlzES6FSn2iU5Jns+ynlzRe5/dSGAlYKgowZIqbM/XPCDxj/9S+XkVQQxquI61RwcyVVMvtoO9gMYP8j1xw1QH9+wJWUsXDkjRzn/AxcGqhvgZcd+mIDxKGdxlEMzg/IGRzzSD6GlL/yEFQmSY4E9+5Z+RbvBIVLlhHtxGvFIKCwrz7iAoX2IDTjxbNB+WTe84U202fvV9YEF9uaTbinatXNn+a9vfkOvs35aT8jEHl1eU6tPQGALxtZ2+/EwfUO9k4HqIY5I3n5WYsYdf9r4QYkMhi4W+UI+dVu0HsCRmj3ByTfNzQhvdqzqWwr0OpK3r7dt7c8gglKELssawGb6FUQ1j5G+eQ5QxwCoeda4igcNsjUbCBzq5JP7HQsv/CN2wOR2on/CqalaFdBilZZrf0rhjDHliA82qVrkFFybpRVJFUPeK6tYxKLKQIOS2pUqSvhqj/ikmiHHg1SUd2f4VVN2wkSYWQdXJJmSlzzshfGk0681E0GqMeKpJ1T5KcyQSuYDyrMdWU+Lp9WILf6pXa0pe0v0m6He4WG0AIx4k5XMMvnS5PjWqC2lYl9Y1JEED+1B/Hs/krHPEUph4KUJfbZRSS4LblJCAKOVFHgsK/mQnL3diURXTHtG6cC8iSLaEuVYq5jIPejCMGPNg5D2MVP6ERLhXe9HyDW8+59wXbJ5lbMvEWDPGViP/65muBHtEf1EPtTAkfcedOonYHJN0BSrLUCHFaBpdcGVbtcjQkVNcxz29e7tJEyu5CwlFWuVR30MrZAnKVFVy4TaFWFIZtATgb4IG60d/TiZA9uUuIEqrpEEZMMh1qU0n3lHMtjbn9KG8nLSA8eSiiXJHaWTX+DnmmPvOCyuUScnySDrgClPfKpyPuFBLgZCyIVthbS2aKhTeOVE+mXa1Cnxe2zoEDmaQzd2M1lfKE1U5InLHGwPmys10dxUcyg3XhMSb6EFiiaKxd50NRKAXIjM8KoOTX5V3EuZLI//B2q4qlpRPuOygu6RfM+fMHZSfgFu1fK9bKfTnafWZdnMRhZTVyANAiswrUAa5BdAKZf5ApYetYQtEZnD3MNV2KgFeHhz3GXeq0hc5m3oVDNpaxjjYTBNtVzN1s8xacPcExoyJFo64Sz0rd9oU16El0mXVh61qWNkXwVidMAJJch1uYu9rqq7xa830tGyjVBFSrVZaPKVIfmW8Fpg+cNIb2VbhFtew/4p+DYJwag+Ay1O4qFxdV6MufrScvDY354roxz9v6csB4915eAbybvynbwbVnKcVED3qTW6CBbJVk3GiGSw5fk4cKmGsyLnsQGbGLplT8tSSKYluFgIaW6mYuXW6nN+ninDCijLN/+jHE9KhJ2mJh1T3l8+hLyNtGuMUNokK79sEw794YUjU+3bb4Tif7uwBrHoHG7Zqt72KxztN9hNKGyFFD7kwgh5VB3fwjj3GE4UuS5SIS70qy9CLKq/cchgBh6yMGl1xrkccTC/Dr0vMLamwHYYj9fhupseK4QmfWRNtwq9ffMFefBHPOmr82gJ6wr3qlJlLqMEP51zUMKO/Rvax5GyM8HSH0Ejn+Smt2cSMvABxE0YTzyA17+60IbPSUPcOiNQXozhVj0W/eKpOpPApfHe5mphuxTeIZJxM6aiXUdikjUVIkyGbdimLgwaUbqUwTqFbkk8rodyuqtTVWKfqgA8FW0Ws1aanYCYZTgS7nNL6pCKOpptCe9eUXPI0S4pWPO05WIqC1rqaZ22BsF11MFj0Xf9td4T1eOiPPDgGWP7UrQbGDwXf0MMTrqadiDCErEJ3W1sus6pubNr4dSVefJFmaOraR+qDRsZ+MwjnNWZGSh5K59R4sxJr85frlP134ZGHUVCVhq+VE3CpR5J8MiaEvMS8syLAbLINsgNkNlNAQpPbbnBYGMhjToBC2NG4JQIPVPJsDNYpt3ibJj8maMHblLqrF6qAqbUojnE4mLiWi5e+1TPDdYFMVNvJ3Hky+E7nmYjcL3WgWvCtERv2EmuJtf6gTDVfypI27XouSHTdujxUYd4Qh2tRLieBfNk4khBgtEsocR4C3e03jOMD60VfUoo+1RVKEMlCbdp3fgfeof2znY3R3oUgtUP6hm64liJQ1ZdcxhgUdmctf9HCENLZe30p5oQHNOFEyKvv6wUhgVpqE9PHGvrKSM42aa6a13CbkYhYpFH67E8vgpIGQgJZz4yunyhd2P/oskNZyY7lIWaJ67nr7BJku/6sYW6+WvNHbS4lqIQ07HMe5w7APqE5C8v/kbyKoz7vUJKp7ZCweq10aFCCnR0BgDZNy8yoSdwFRZuiV8VkfjMrawKW2dDJIB9uCOFXI9LmJy0RHOgVzqmipV4fuq0S+vEcvLL4bNCSc8c/HJw0sj7OC8Hw7dcuiQyy+n6/weftc68eS6Ex1JF9HTDE0SOu8wRa7Caj5NOjN9QiPh4/MZYHamVXIz/Kh8ii+ePShvJV5yyNmIX9aQeB+/+yvCQki/zwK7+eEnlegtZ38wbTYjl2o9gwH+g8UeEy9aF8zfEmqb1mpanfMvRk2+lfFrvvrw/2DGQ8rTf59icyoNLHuDVpksis7zuVWhrFVvEK5zpOmhAelzKWDt/ipgXsvGDFnyiqzOJW5x5DA8DM8Qqy1BXgkM6jullny8nbx4OTgGkXODwXxevMp41AY8vJPOOChXXKWlgBZi3Yv5CMG/crM6Hxs+Aw7ax4cPAtRRqcktJizESiLaBzPUQGnpM1CWF7YmcWeiPkK4XGuBJZ2xDZYQS7nkCrSPyCIUemGvROA7W4RwD/EcpiMjQ3+AKhsaKxj5ymYsn6VWDs7Tbt3cy5vmjMWIbJfYh2ygcSn/NeykO4U94SowMdQtrGTcWcuwzdeRfywVrks3FP1xZegO/egezuvgVMMcullHECf5n6AwncooPPVbTwpm4Tl3oEoK6JT6k9n/Mdm8GpiJpEHzCmXc46u22VW4ylVGKdqq4bKcg1SN9OpiX1L8iIkPrOI3bK/vZmOcSl1yP9Gip7dhsgS9wqnc58Mzz9DQS8xey+lOdrWU4wKAEIvkoIwmO1NtLHPhBJjim54m0P5ZHKkZIQIMdCOLNjpPktJ94TC/xT7ZY0a4pxxtsg62msGp0tCqd5e2l9cekk/IAadcOWWWWr39QkAgo9KyErRb3n0lJmyvh1uAZ7l/T2kpqFnuFRN8MlLPGxkOvuMiJcOpqnIjtJ6UM+gLux79bRwaj/VAVuulVYTdtVZq+bpo84WHKdN5mwCAlbLJ0UblRok+NcaOiRHoPKC29ZgqO8HkpPDLnQvo6UAIzHJOSsXIOckn7p3eDztQSOXQgjjEWKHr6Uz5Qh3qGXEj1dCvpD8nY44DBL0iBbl6Io/UIwwtEwtGsfF/VKtGjEk496V6fD7VKrsyTK8vkPS5hcpKs0VGmRiElC3CX/OQa/KnKNBVcRp8QSYdmWMici2yv47OEWrKXd6EKu0OK3jps1QU/ssQVKx7a6A0CyDBODq53ClxXTjBzyE5GhPDyNFRV/+1FCitfLNQxjMEDZB8LH7i5n5B8Bne56g70JQaNGOiL65/0zHst4EhIcswpuGryiTh5gsOM7ZC04F9qX5iFHQoFKduULWjuRfJL5VLDUvsLzSR7y1Mu8yUEIVZDW8iDMlyeEimDrtUxi3DTcFlMRDcFAh1cVRjX5CsPGTZ7eZNWIW8ZKwj55r9wtlNpfZb4ad7zHAg81ZPlA9JB/RFclLpKJph5YwdBSuNVV2sLkVK/WcTvXAefXKEjrvLy87cY4NFfmltUBvfTSvZRyjNfZCd9Sz8zT94s9zm0lJvyZfnS5WkttUzKNE42RLJkbhqFwUOfI1GRODeu6NmApkFOQDDnVjLQwpuCTas11vLR/pphjTKXJJql1v4DxWSpqefmKI74bGIBvqKsvHcVfK8//U7+LGdOHYB7o3bfyCo1UWi6Di0EVd7N0HgbUJWQhdI2TirG+gRnDidpWg7s+Jg20dwsVqD90jwW6UqSQpBMMr0umFr9oAVb4Kr+5CGfysMSMjrGf9hGyT4rGNWFsC+Opgu4Srh7Cu59gogN0kgGe1WQzDwcKr7hEKwaxjgTdAjfmhMVvZg3ZVaXe4zIdvrWFtogxH8pMlVjDos1FsRLxYarNDMc4AHtobkTFHK49Qz7SQ3+eh1bBVO+1zWWGmy4DSWQ9JGskNlmZkhibxw48b1B8H25h5NGTurkzdaVTROyiUOrZZyL+wcdBVeS9NUbPfG5KZLftqKwwIQdcRu648K8IDUjC2groGQ1/MMn/YteFsrw0XRcS8fQBW8tx6KhhcMKAsulUDuiwj6oHkoBOYrNq8apzhH25e8gIk21QKY0Ov8YYbTYxNB8qUArJ2NVYuvCscg24oGv2nM+yOUtPAKTiFoGNZGAYoxGOfWl5r414Mi+FBYop5eDfECrPeY4G/il0f1X2uWe42ui8GOEsENNwuNByxRKPy1BAQBTCdZy1CiPvdbkRDMwaRn7qVdkS9Uy7DajckpCXy6ZtxGtKUoGa7lD25oHCsg+VU2j+KmOYuv9GNlTIctEo29x4F6utzSG04/k7qnheLR/9jPxucGXiX861HnWa2ztkpOF5itb0cGeSN6euAAuFDa1Uma6csvVfGyjI0KouppLVXJ5+Z4ia1m0ERUoZ+ocM1tXTpYUT7FV+Z/CS/KpFhgSB1wdaEbTGiQhe1ZQPLmGWCYK/PFUQxKsQgXarKpP9loOovtuL18VMMnmhGEnkIpeNViBVwrapo29IeyiolldHujFGtd+5W3c7DGQsp5Vm+Wjw4+9WGptKaZ5sSrg/458X/9xDVfltFsGz4nbMBENsoP+0B68i+iD/HIyPT41DLixfNIz76ObPiBLClp/DPxqj5dcsrcQWtKbShHyp9v/F9hJRyD19sGThpC38vLjP/iXnz+CvkQ+NLtlsJfyoPtWq2wt611r8AL5rEoTFABuuGEZVxN8Pu3Vy/Qw8ulbj18tvFBeyFH790zApFbRAD1/V0eI6/9k/Pr6A/fnElxdKWXVMod3QRWXjXHKZb4/+dTd+9SFskf3IR7hoxBStlvPdwuYVkCN5aO9w7tYZKuwNPjaCXYSjKQQV6y6GbAyRvsLL177V48R2VQUaoKelCyFGasT24ANmTyCJ1VXWhsth4e31zXlg+5UmVIvQr4GFdF1g6kRO1A4o1NeOSCpY3eBMsmsi/jQtQgfYsse006vH+bE94LG6TC10wdpof9VieXSUOLIXalAWF6HUfyqTBMFqDLGCbZc1WVS5Wl4ldNvywwqwnDlrypc/4TNUOWDOY62k4iUh8+4oObcRh74FJjkKT9BZ3FkK5FdnvFKK5TzSmeg1TihTBFrfZPoGdeyTvNScDlXezwwqfmt4MfIr0hT42DT+Du4sTBW1UXTlsCdfNruTMT5qepfREcp+BYTFzoNtYxdPwkIAI5U4Saicsbc7V75rFtw8lV02OzwqEwa8CiNBlEYXk7vSK4Weren9PQLfNqHnzSl9XrMI7/MozncslMBlIgxzhsUMiVyOC9AsQ7l1q3SsGCQcOvd4hGXAh6v6CO7wHiNW9cLxRjaW+dIl5p86sm8MrgSVbbJJCDr2fiJmuZ9p3ANQ3/UKMbl2GJfSq7Iqa3r71oHFBFI/5AlUc7zqxHjg9gcoortpaxPRPcztIjYV6G/fx63IspSUygOLwIeHaf2EWtVGAopnzk6xjYH3tBPeZySI5vp0o8faWzBS+1ps9o3HT7he+dh64PZiFOm1IcK2nmqaMDASe/oAliFs6cER0SucuGaTKYWpNOStdX2N16HUcy5bhM9ZCxo2dCcWOqTcgZRG6lWleLytR6xLuVL4apyXP0xMUvkJHuO/7X+wyjpvLFQxN1yKRwKXBezWOOSqlXsUL9Os+sCQ6+yCRiYak7pzBEWTDErnoOU8jKK255rnRqbsx5DY32gRryVcYRrhkMBcyUT7PBo9jBxRccX2fReuTQiqP8j3T0L6pM4zTtakkCR+nKDDdhRcWRu9noAF6nJqNjDSd9ffklkep37l1/k/6DhpyefdjMfbPYxHSaOKV+WM5/KR3nsPyUSMn1KrqX0pAzcSzEDbSl0YNwry18SXb1MgxPIHLMV7lEdOhxL4jTvGJMUAk3tSN7nr2SYNF+Mf7VQbaKRPgpKI1wtm8Ch6uvVVlWNpZevKhstVZBPaamz1zflSUXJm+XMl8Mnvc/hXbjYVCvgOTydqbiaNTWjcvIod3yTSF7TkvjDm8TkUZ64TnTEBX1K63E9PBKcFNCRtiakhcUpf19OOHMUJEzep96/RXCP6+UWw1PuaTmlEj/kwyVEeiiandbB57yKN26Qy5r18nHdOJWX7aoCL/JV0RxHI3nRu7Mx7C11KkbtZbfMhaal8knvc9ipCWkRvl3/iuj+2jNaKuSRJaWuVLZEPhmTWeX+smQa1WQj70UpZ0qZLGeevvRyK/H2fOjo5VMu87Qx5Us884UVKM+u4xyGimu8FejtL5JPfVbROdfP301npwww2ZNuspC2U5GdyBL+lBvli4IhhkX2RnL7KVwS+YxBq2mtW9RpqlHjIwj78STIy1RzoWzPmzA5Kb1YZHol3pQPLcMx+1ViUj/lHk56n5s+MTqSoVBTG5/JD75zaoq2qA4p57ZROfu/Yz+RRyVyic55I3Po+0u9/P54V6ajCV+G203KeX0cVBgEqVLZ94b5W2iRst6uFEKtcgknMnPhnSKicVwqBndGCx8TDvsm1lj2BsFnGTC0jHCtBUSzS+J37kMobjwUe/y0PKVVcWfQMg3+JyZ8GniSY6ADpf6IQGCihabwwAtl9SntkpPiAZM6d1TkOP7jaO7XbjXgcRImWgtl/8k8yOlRZXbW46pTxmf88LDvGVW2Y00wIwpHD1cJZb2txPY4wU2ZNJgETnAO/hRzvtjKiEWF8B9sKk+OkI9Ris9RV6ipOfOUGPLUBceQEpuYkXwO6IqMDAks9/cPgasBsFfoC0upUbmNDT0IHqMqb68F2oopBZMJ9cL1/SfjE34EY2896el3cqTKcE7Sk7ZMP+FbBE9da/omAH4t5k2tmVdBF6tEzZrKVJZ5I8h9PmgA3kmCWWg4Eay7z2s0R/rSaBUkLtnzcpNgd0kZcKDVGo6dGavyKhB6+6PoqSxzkVvsgxUmp0kx0R1NzqV9YYO/c9iYFOsrltNHykeXSc4Dynv/D0gQ5rS/XCfZn8KfhjxxysiT92lKm9qHTkr5hMmntMrTtd9Snksqj9xyKX1L+/I2+/JyIgvwqYWqXnr5qHnTWe1NywvccKhXM35GuuxzjXbCMJD6ZlLRw7oKM6dUMHJ4Oxzi7tJkMCrVzHBlN8yhNzWlJX0l+Z5nNfLwk3peYBbJ+qfc4FmUerlGp/4i5NNw8GTC976c+FFe5TNeTaBW/EDiX0Wa+qm/0zKMicu8CR8AgN3V1X+wggwlUsKZB3bcd8D5vNP1qEXyKbs4H+wHfapxsdSArfIecNXb0fw1cC6GBvk2Z1T5vVK3lhpmR5ANX+LmlbQHX9aY2Oj8W2kZt8wzokM5MeEVeFJqS77Mg7oo/oOexivA4ZBQ4sgXpVr7RrL9lCcXJatLwfwppNwhaNIwD7hkm5Cts8f1MDIk2625EfUw1bmojHBf/0sln45M7KfdzNMG5WYfWYpGBtyBUcfkgSziivLiHcnDX+VDe+iw4oYIINlG8pV9wvr/SLGOpak3qkjWZUpqZRgcmL62jboigETqTzjzRYKLaInrc2R7vVNdjVaFXIWeKZV1OPfxFAQPD0m4ES3xQR0fJ4bM2smbLCT5ogR/TxvJQxOR+SOT9WWhy1PHVL5jOWAwfct8iQL1keGJY2KW90/A0YXsr51aIt0h+lqJ2ZWO5khK1i+ww0+Ag+q8/wm1IdfhYPREIophlRNHX0+HQVb71mRFI4EqCDWsRG7uSkt84vp8Ea3Hpa3BzV56ih3O9iFHGX9CY9Y/dZLvLyXvYCnPX4OtpIW1jIPP3zV+7S2vFqP92RVdpq2xXj+4WUA3t7M+qSsJ1DZTehm+ZSTiRFv5yWrIW9M3lIhpP1W2PAUTUfVZWcU5WFLes7oC1aDZ0t+Oyf0v9ZL3PFP8YDc0pJ6oe0hnHMKVXsPg3KBnoI/l7LX8j7btvQKXugNq7W9urp+DJ3QHT3haJVWI+Me80eRFznBUzubetNwICXTxz/7jtjA945TM+J+4rGPvIbCSs5Usp8N1/pNIcmduPR0+y0vz3n5SAxeOoDFT9a+31uovWrImW4opH78WOtGfRfhTNiuS82Tqts4UqLm7UB1ZvvgXc4ZmaFhhVKBMaiqqYuMFe+yI7jm58sIPWw5eyo1U5QcE1F4+OFtnkybrSg9caNqQ1F/f2dF24Cm0HLhcSvxk5akfGpdLS+mD/YzNauQHPdn+g8VB4xhHKW0Ah53Vy/eyK8lDW31a5O3qpbMXLZYY6R4VBv6F/b+SRyIUSJMwLJQX76rGH3xVJfyodrniB0QQTK9MHr9T+ZQTu1NTqJJoWYTWwyNeF+ohmWqexWSZlhO/JO/kockVp1XLV36yXgZ4uGQNWl/GDjxOU6OVsL/2Gxqo2k4HlOeJ0KiunCabs1WmZo38kwBGdZwoXImWrFOeDFPS+/zS+j+Wp5RpJavJM5bOlg3/U37ME7Qq3waksDnYRIr2H+R9/jK9nr8qPAzoTh5QOnwWs+nhYsca1UHiXBw5nvRnxSjXfmU9Ax3aNPW1AyaF/XEelMlRjNXFgblX0LOn0p6+SB6+TL1zU1yl9T7DskgkRZfk1adepof3q285+YofyXe45odw9l8H+gwF2+94XUagxwl211MOnUOThxao1iXdH+FT6rsec41TNdLkhDRKh34+gnehvJUsf0i9PUfq6XHLwQvlxYyPq0nLyi8iLFC4ElsN3QKp/aCqYC8/hVND2icnbizWL4pfz4euaMTUIpmKc5tWYyO+imsSJqpkwYpNnpo763GwpSNVxNkyuF7+QO4frG6RzmXMpyspspJ88g55SgmTwav5Ev/FGtw6ukJ1/q4qfC5Qw7jIgYSSUWMZIVwVcg7PNOUtcfCFVqRiYSBUDucPpL3wl52HnNTqREG6kk4x/RrhTJjwJW+lNd8pZz2mcM/b/wTqqFZiDyf/kEdNl6m/fd+/9THHoDur3mFaOJKW98/ZEvC2N7xGgpNCrdaKtRMx6dlEaAHn5Go3DqFAcAxvXJgeJuwuVtyK46/q6VtyrDoVgwUesupWQwdRmtynKPVaezg4Vzpm7w4eaj7WBj41kpP6tgpMHntpcbu4CGclHjZIRjWSD3vuFcEEQ/OgouyQDhIcm6iSmBbBbJ00ZRIyIQiwNKXciLEhO37h+BF3uH4MC63/tCp1wonLHHV2qNPbgT1bh15JpNU7+BdpEM4DAo7eeOfnfkjWLfb2WiiIFCe3XgGp3riKhtySWyqoHHPo0SnQ2F+st8m3t5QtbRwKJBiKmvxaVXbUpabONH5sKnVl4rRWKmtXC/roiD0x2V8IDRAcivKkNRJbWOgML6T/30RSL/ybpik+65+8Sc98tfLwZTxWk6fetL8a+ZRJXvKV5Hv+KdzXN2lTvxP/P5unF8tanTJ05aH/D63RukGGKvmnuQw2edE80cPTp65bpDjkGP8hn3I9valYIG8TFd+72GQEpFjSoY1cW6V8r3M5OG0tR7/U+GlgunKLv4w0dFY0K5/lzpGV4p96nHeVG6np8B3YLCzCNeJPGBj5W3Wnr/hBSp6EjdRh8DOgoRwc03LKLc1Xz7lUFswK8r3z8Llca6iGbE8rWLHwA8lasxw2qnXMQUh5cmHiCMUMOt2GvqAFzhpwQ0gwQRty6OBIIRGXUJSSP6iD/KJyyIpSDTQ7CaBfcPbl1AG/7VQF8JBqFoWOZvkRsfPLikJkdOzwHThi+UkXmh18pUAmeFr/Vt8JT/K2HAWrlccW/DVh0+WUx6eaks8o+OARLfGwWb7K9PHveXq+leTNx0FpiXzFXVJ5K9VhifwCW8m7KJ/KL+I5ENwl1Ud8kM34Z7nP8QOeTFOa8YlUYUVfKt8Snk7ejdYbTMPkPd8UTzkVZ544cskiDk+qb7cjJogOrfI1Fcnfyydc9YXiqrunQf+Jp+bZEA7ZpFLOVIl9+mpi3IcMxi1V+Ro2y+QkM3HoF5hMWXhI8STGfVd//4WujLeoOfhTIANn++LNjpiNMAjXxkOZ+MzfO10VpvwQmUpIT1Omohdmq6//VHy/9Y8ASyziMlRqqmmZcuuwQQ97gl0t2n04/w/3odia1ntiP8MzMTtCq4A94j80Dw2wXSkAABQ0SURBVOVUn8ByOcp7GmUsdJnIqTs5EQEXbABQMlVCwyV9msMvXA7w5B+tH4ilGU39B5qnb2GfI6nHBiaPU46ISPJnKbRJRv76S8DW6dYIRdRLifYf1j/yqi1Y4tg0VWS172zoP2G3HlFd2VLTElSndgkthciz/zazeYUJMeeNcZ6N4v6c7TWNaPW/dR7ULUhZjUU+Ji7yrkIjPVN81Wj0WMNIjEJljT4GLymRquXh17zuvnVr15eNm9ZrjK3VZqJ60FAVhnXnrl1lz57d5eCtB5U9e/eWdeuDx/JrI2BrNTCZYPcxeVe9fH4cmAHEV3boJ3t277betWvXWbfxZtLHkv0lmDVl985d5eKLt5VdO3f6CY/169aW9es3lA0bN5U94tmDPzsuLBu1WrZeNvbs3lXELGN7bHqPdkLFjrwsW7dsLus2bii7sb1nX9m2c3e58CLp3rWnbFy/sWw56KBy8fZtZcf2nfJrr3SWsmXzprJuw7qye8/esl38e5RTs43r1pSNwvshTOlbozrswpftu8umjevLlq1byx7FY+fuvaqD4qdY7RPPunXrHLfd4pVUWasyw2ev/CS+xBnb9C8PK+cmiCfaQSXZ0yelEVDaC7NSykswUqWvkR/r168r62ULO7sUo72qP2mtGmatYmplQtF26LYO2tP+yDfw4kcKHIkyPmEf3Dp4qlPuM+aKetGPsNX6ROVzm0vd3j1qL+mgvNZ1q7pUBr8HerUlhN2Fj9Tq7cIaxTjwtKt9lQ5w2Lc9Cbg9qK90uL8iK73wK8oNBg29GlFs5J/1hA2xO6EXmhP1gZD6aDcRQk/wVE5hQ4HlpZex5Zi6rZGJpoGfPzb2DcsqC0B6H20p++vVJ90vqh/o2aX+Sl+PlO2jXJJrxQc/fhm2QnShVP3WMa9tTwwyUVfBoUX+oMcxQavka72B9+FwTZapZ1Bg6oF98/nEAUR8wxbagHarHuikjoy/6G8RC4e56kcTPI4ZusOgdcDS9EKwmxrL8Mg2cxnVdz0cv6pH/lkNCqhX6hGP+yvU6ht+0U+lRXwBY9M6hc2xgj4qT/wMyzDV55F+64IOyAEH9d+Rwbjg4cSqNly3XmN7veRjPtgn+9jxdXPzp5T1mpOYq3drLtyrOclJulGJUs+lii36N2qu2KC/jBc67YZsUMe9tAE2xMu8Qt9lXnHcmcvpl+pzzIfEaJ36JbapG3Heuwf+GBOmaWxu2LyxrNP5hn7HxQO80DZu2tT6FwaFlo49ZceO7Y71xg2i4wg1QTd+YYc/+r4eu1i7dkPZtPlg+bBBc9/esm3HrrJbEpu2HFQ2SP+6DRtlU7aIJZ2SMahzyL69cBF5+pz6B8ESz4aNBymem31OgLp+w4Zadzdq2anzx8UXX6xz055y0JZNOu9s9TmEYci5Ti3kcxJxXqcy9dotGrXYrbl5vW6a9u3eUXZuu0Cx2l527txR1mju3rxxi89NF3PO0rlot7oaw4tz3F75umnjunLIoVvQVrZvR45zDPr3qf6b1KZrHVPOh8yNu3Ui5LxGTBlptLHrStsISZtxzuDcRru57wgPP7yEivFLyGmTDWrHgw7eUjZtWO/6bduxW9cLzEHMw2KCX52Df6S9+8DrD7x1Sqn+0/fqyHDcse06qu3o7xs3bpTeHarTunLYZQ9VXXYo3tR3j2JO31Kt1Xc2H7ShHHzQZvUh1Xut7KjeO3fsdMzXKRZ7960tP/rxNskp7mqcNfJls64RNFQUiOg/GzdtVXtvlo2dZbdkOU9B26J+s2XrwQKZr3dLdpfsbFA7EQv62J6ybZfGgOK7TnQ1jf62qI8fIlsab1SUAbN7Z9myYV/ZvH5f2SrDxJYgrN+0xTD9izl07ZoY12vxW7FmvPmaQSp2qV5cR6yTccbiHrU7/Yjz8R51EtqGsRznOs0B8utH27aXC7fvUAy4NqDC4pXOHer7zLfEXyqd02b0DOaUmMsUYwqikuyyjtgmeUzLF86Te2V/h+yvP/jgctiVr1oOucxhipPiIN416hPiKGv27tIf12yaL9wfMcRYUaY2MY86yA71+R1uX/qqPNDfrr26Htx8mMbxQbK7Xryypb91ao8inbt3ap7Yu6Ns0LUa44JEX2OMblcMdss/zx9qizX84opf4rlI42fbjh3qD1vUbuo/EtqjvrzjYsVMDJt1rci1HH1vl+K9K1TLTswh0YPXiB5jcK1ivIe5R3rVWJ6bdso219PMp7vV8LR9RH5vOfTQTeXoax6usRD4zes3q2NRJY1dte1uxWWv+oSqLP+ZljaoX290X+C8zSS8Rn3F1zPSTyPt1JhnLmGM+1qhtplaWv4UzRm7FJNtGl8byhauleXzj398YblIdd4t3xlXzM9bNaYuc8jBwik+mpN0oVvOv/Ai1W2H5sU1om0sW7duchwZb+Av2ran/PgijT/NOfTnOPMw5qLf+Hpf6vGTOcHzBOdetQvxITZ5fUWdaCd4yczDeKCeQjLXqAjZbZ15IDTvb9I8qXlKnVN9TL1Cddutfs89y8ZNm+XbWs2zmk+kb4/aHX+xSb/ZxxijX2o+ufzlDy1XvPxhskLDKH7bdpXzz1O8dA+xYfOGcrnDDimblW/QXEQF3OfU74jjWp+LNDY0rzBGma83qL6bN2/xPAo/lfO1rPulYqBG4r4hqqmevk99Sj7v0zxGHbmmXU//0/zJmOecjjzntc2awzZt3iy+NW5jxhnTDzHw3CZZueG5Sc55fELbq3HEeWWzzs2bNm1U/95QLrrwYs+3axQL+iu+Yps+6eu9OvZZ/MMG41IcGr/bNV41L6mfbtXcuVvjibmMqrpN6RcICLGXOU313iLbW1SnvRpn24mdyFsvc1mdTzeobdQ31qnPC7lug/okc4uuB/ijA1BXrseYN2jnDfrbo/6/lzlhp9poHfOP5h7N4VvU5zeoYXeor27TOPiR+vz5uk64SOeF9erjm3QeYPxwDmSwMO/z58aUT4xp5l+uw2jD9SrTFsx/9H/miX17NBeIV8My5mvFZc06XTvo+oT6bJNvm9VGV7nKlRVv1YG+Jn2cozeJzjUA5/Ttmpd26qS1XffF9FOuNaRc/Dpna5672lWvKvzucu53v6+2+nHZu+Ni22YOw0/GDOcOEjFarznuModd3vP+RRdJl+Ll6x/6NXVkDJibOZKzd1yHYVKNq76uOVLXb+ikHbdqDHHfvFOT4kXMC74f17hTjA9h3pSOPaIxF8V9356YRxUf2p/z1Eb1kU1r1G80LndqntmjvsB1iN12/Pd5zGr6lw86t9I/NfcwFjeJ73IHH1o2ybft29SO512kmKkG4tu6lXirL3I+V9tu0TXCIYfqHK+4cf2yj/Gl2G778cVlm+arffvUpjLCeWL7TtVP9riOIoi+h5TFOPcSJq7H6/WL2o7rAPo2bc5YIda+91Z/5VzJOYG5KvqH+pRYSTk3ssbA/LGefqJ/zOu71CcZ06xjtGtH9Uv6Ga25R42yu85/zIYMwLWy7Xs0tRyxXSdcnNMloYD6esIx1XiQzfXiwQtf/8tPri+YI6lP3ntpinF7oI+ou6IC8Ik+gn56TdwvxLULfQMd1H2j1m84fwI3X0T3PCB1jFvmMOKHH3H/HuMZHfQh6sR5g/lTStQurEUJJ3r6E9GM84jnb2Ys+RbBxp6dR1x/ipNiC412Ya6lDhs0V8d1LjFQn+Ba0fzIE2VdQ8iXjbqP2LJ1i6/3OYeu1TzKdQHXphdedJHaSNfxF1xwgRdO8+INB8MbAhEDE2UZiKDjHE7hbMCzfDTCHL+5/8zjh4lhnj/m+XM+f3BenM+f8/XDfP1ULxbj8ny+fpyvn+f7h/n+ab5/nO+f2zoD18vz/fN8//z/6v0zD66w+MgC6XnnnVc+8+l/Lh/96MfKh//2r8pWLTDv0w8gF2kR/KKLLtTiq340Ouecb+dVjye6+TBHYI7AHIE5AnME5gjMEZgjMEdgjsAcgTkCcwTmCMwRmCMwR2COQESAJ/l4E+AHP7ygvOTFLyr/+y/fH089br/YTwTOi2tzT5kjMEdgjsAcgTkCcwTmCMwRmCMwR2COwByBOQJzBOYIzBGYI7CKCLB9yXvf9/5yypOf4G3NNms7gnlxbRWBm1nmCMwRmCMwR2COwByBOQJzBOYIzBGYIzBHYI7AHIE5AnME5ggQAZ5ke48W2B73mEdp38t5cW3uFXME5gjMEZgjMEdgjsAcgTkCcwTmCMwRmCMwR2COwByBOQJzBA4oAiywPf4JTyrvP+vM+cm1A4rczDxHYI7AHIE5AnME5gjMEZgjMEdgjsAcgTkCcwTmCMwRmCMwR0AR+P55F5Rfuu3N58W1uTfMEZgjMEdgjsAcgTkCcwTmCMwRmCMwR2COwByBOQJzBOYIzBE40Ais0WdvT37SU+bFtQMN3Mw/R2COwByBOQJzBOYIzBGYIzBHYI7AHIE5AnME5gjMEZgjMEeACJz1vj+bF9fmrjBHYI7AHIE5AnME5gjMEZgjMEdgjsAcgTkCcwTmCMwRmCMwR+CSROCr//5f8+LaJQncLDNHYI7AHIE5AnME5gjMEZgjMEdgjsAcgTkCcwTmCMwRmCMwR+C7P/zRvLg2d4M5AnME5gjMEZgjMEdgjsAcgTkCcwTmCMwRmCMwR2COwByBOQKXJAIXbd8xL65dksDNMnME5gjMEZgjMEdgjsAcgTkCcwTmCMwRmCMwR2COwByBOQJzBHbv2Tsvrs3dYI7AHIE5AnME5gjMEZgjMEdgjsAcgTkCcwTmCMwRmCMwR2COwCWJwJo1a+fFtUsSuFlmjsAcgTkCcwTmCMwRmCMwR2COwByBOQJzBOYIzBGYIzBHYI7A2rXz4trcC+YIzBGYIzBHYI7AHIE5AnME5gjMEZgjMEdgjsAcgTkCcwTmCFyiCMyLa5cobLPQHIE5AnME5gjMEZgjMEdgjsAcgTkCcwTmCMwRmCMwR2COwByBUubFtbkXzBGYIzBHYI7AHIE5AnME5gjMEZgjMEdgjsAcgTkCcwTmCMwRuIQR+D/s3VtPIlkUhuFFI4igkGHEgEpLokgMNhjU/3+HwTtRQY10MxJtJh4jKDaCNqsSjA7SyHGIvJUYtWrvOjx192XtWiaTiW+udWjHNAQQQAABBBBAAAEEEEAAAQQQQACB/1ng/v5eyuXHpndhNn8Ru90uZrO56ZhuDhCudaPHXAQQQAABBBBAAAEEEEAAAQQQQGCEBW5vbyWb/UeWlhaNAGuQFIVCQY6Pj6VUKrW8rC7dnJubk/n5edEwrJcb4VovNTkXAggggAACCCCAAAIIIIAAAgggMCICGqyl02mpVqtisVgkHA4PLGDTarVkMilOp1P8fr/YbLam6np/l5eXksvlxOv1SiAQaDq2kwOEa52oMQcBBBBAAAEEEEAAAQQQQAABBBAYYYF6sGa1Wo3KsYmJCalUKgML2A4ODuTXr7JEIt8+XImWz/8rP358l1gsJuPj4z17ezQ06BklJ0IAAQQQQAABBBBAAAEEEEAAAQQ+v0A9WHO5XLVKMJ+kUvuytrYmmUxGHh4eBhKwJRLb8vWrX3w+34fBn56eJJFISDAYlOnp6Q/PazWQyrVWQhxHAAEEEEAAAQQQQAABBBBAAAEEEHgR0OWYVuu4hELLot8929vbk42NDaNhQCqVMqrClpeXX8b34494PG6EZB6Pp63TZ7NZ0TkOh6OteX8aTOXan3Q4hgACCCCAAAIIIIAAAggggAACCCDwRkC/YVbvvKlVbPVwTZeIPj8/Gz8aOPVz6zRc68c9UbnWD1XOiQACCCCAAAIIIIAAAggggAACCIyAwH/DtUE98jCFa1SuDeqtcx0EEEAAAQQQQAABBBBAAAEEEEDgkwkMa7imFXTaIfTu7k70W2uvN21moN9c00q7XmyEa71Q5BwIIIAAAggggAACCCCAAAIIIIDACAoMY7imYVo6nRa9N7vd3tBNVJsu6LaysiJTU1NdvzWWhXZNyAkQQAABBBBAAAEEEEAAAQQQQACB0RQYxnDt7OxMTk5OZHV1VSYnJxteTD18e3x8NLqcNgxocwfhWptgDEcAAQQQQAABBBBAAAEEEEAAAQRGSeDi4kKurq7kvQ6grcI1bXawsLDQkwqx1+bb29vi9/vF5/O93m38rVVr2nDhvfutD765uRHtbLq5uSkWi6W+u6PfJtMXMf38efbc0WwmIYAAAggggAACCCCAAAIIIIAAAgh8aoFcLifn5+cSi8UanlOrwDR8m5mZaTimO+LxLQkGl8Tj8bx7vNOdh4eHUio9SDQaaVj2ub+/LzabTRYXF5uevlAoyO7urqyvr4t+g62bjW+udaPHXAQQQAABBBBAAAEEEEAAAQQQQOCTC5yenko+nzeCqHYeVZsKbG1t1SrIQrUGAn+3M7Xl2FKpJMlkUhwOh1HB5nQ6X0I2wrWWfAxAAAEEEEAAAQQQQAABBBBAAAEEEBiUgHbdPDo6MirX2qnyqi8ZjUajRgjW6/stFouSyWSMjqCBQEBmZ2eNS+iyUK0mC4VCTS95fX1tND3oxbJQKteaMnMAAQQQQAABBBBAAAEEEEAAAQQQQECXfu7s7IhWonm93g99o6xcLos2FtBuneFwuK+I2v3TarUagZpeSKvsstms0Q3U5XI1XLtSqRjBmj5PJBJpON7uDhoatCvGeAQQQAABBBBAAAEEEEAAAQQQQGDEBDQs08BKGwFUq1UjaGtGoGHT2JhF3O6/RCvKtLnAIDcNzfSbbNqEQSvt9H5eb/osek8a+mn41+1GuNatIPMRQAABBBBAAAEEEEAAAQQQQAABBIZOQIPAYvGuFgQ+vbk3DdzcbnctABx7s7/TfwjXOpVjHgIIIIAAAggggAACCCCAAAIIIIDAyAtouPYbAAD//yNimQ8AAEAASURBVOy9B7BeVdn2f5+aQgIBQpX+0psoBASkSagRpUsAEaSoVOnyiijiCwjSlCIKCChVkCq9B4EAUqQqID2AQgKBtFNyvut33XudE97/zH++TwcmM679nDzP3mvd9Vpr75n7ytp7t7z11oS+qFtFoCJQEagIVAQqAhWBikBFoCJQEagIVAQqAhWBikBFoCLw/4RAa2trtFRy7f8JsypcEagIVAQqAhWBikBFoCJQEagIVAQqAhWBikBFoCJQETACLS0tlVyrc6EiUBGoCFQEKgIVgYpARaAiUBGoCFQEKgIVgYpARaAi8K8gUFeu/SuoVZ2KQEWgIlARqAhUBCoCFYGKQEWgIlARqAhUBCoCFYGKgBCoK9fqNKgIVAQqAhWBikBFoCJQEagIVAQqAhWBikBFoCJQEagI/IsI1JVr/yJwVa0iUBGoCFQEKgIVgYpARaAiUBGoCFQEKgIVgYpARaAiUMm1OgcqAhWBikBFoCJQEagIVAQqAhWBikBFoCJQEagIVAQqAv8iAvW20H8RuKpWEagIVAQqAhWBikBFoCJQEagIVAQqAhWBikBFoCJQEajkWp0DFYGKQEWgIlARqAhUBCoCFYGKQEWgIlARqAhUBCoCFYF/EYGWltZoeeutCX3/on5VqwhUBCoCFYGKQEWgIlARqAhUBCoCFYGKQEWgIlARqAj8xyJQn7n2Hzv0NfGKQEWgIlARqAhUBCoCFYGKQEWgIlARqAhUBCoCFYF/F4FKrv27CFb9ikBFoCJQEagIVAQqAhWBikBFoCJQEagIVAQqAhWB/1gEKrn2Hzv0NfGKQEWgIlARqAhUBCoCFYGKQEWgIlARqAhUBCoCFYF/F4H6QoN/F8GqXxGoCFQEKgIVgYpARaAiUBGoCFQEKgIVgYpARaAi8B+LQCXX/mOHviZeEagIVAQqAhWBikBFoCJQEagIVAQqAhWBikBFoCLw7yJQybV/F8GqXxGoCFQEKgIVgYpARaAiUBGoCFQEKgIVgYpARaAi8B+LgMm1CRMm9H2SCEz7aFJMn/JetOiTjmZx19ISrWrv7e0NHgDXO3NmEFSb9md6n8jQ67P+zL6ZPo6+vmhta5FMn3U6Ozq8j+7MmWkLL32NPXz3ur1NqtjIra1Vx01U2IyWVuv0tahfh+iz09beHjMVY0tbW8zsmalY0c+4LKcvZ9KqNuxwjC35akw5v+wL55b+pNXItba1y19vaVYo6MuLDfTFTNslk2bTTp/yZyNv8ECBSBAtOCCPbiuG9A8dS9lwjkrqEDORSwy/yoWDtJjt2YAdOzU+tiD7KS8F4jZukunPHluNjNpQZyMu9h2R4mIOZJ5qVBAtDASYErNstrUnJg5SIt29XfHYX16MPff6jo4GtnF33xpzDutEVXZyTBhrz5+SmzyDUUGAcQDz9yZNjk222CZmzOjqN3jsj34QW4/5knFuUVx9iosP+m2aEziaMrUr7rp3fFx11RXx58f+kljKl8QKeGmPY234Y457X/pzzjk83n9/so//b79e/OsTMeXDiT6HjKVy9UlNzjLCfOP8chgMrv56e5RzE4Nl1dg+aI5Yd4NN4r33Jv3fuv635Q4/7NDYbeetNa69/TholguXtsSu8dCiHIif4ImbnIibDeyNoQRonzqjJzba5Csxbdo095ev+UbOG5dfekHc96fxceyxx5fmT+X3kIMPij123UHRc13iOsQ1IePPfDgPuKYwUmrPvzw3JMA1jnPX46lvZPI6ohbM6Cf7uZaQErKcL9Jra66jCLovUzZ+/biCnbCUMj7yupvC7JfzpmDOL/KMy0xrcN7qOtrM5T71c/0o/pDHDjGW67dzwh+GJMi1g9hpd5/GlWiIYvCweWPwHHNrr24VgYpARaAiUBGoCFQEKgIVgYpARWD2RIC6RzWSK5xPLMLpUybFjKmTXEhRLPWqgMpCjV+zVC7Mso0wKLBUgKrYZKPdJJKqL+1qX8Vkf2FGYZj2yGKAOFOx1shkYSdbKNteFnFZmENmUSmK0FMsPSb5KPRU6OJL8glPFqs0ErNtuhjGYFOQuhyUnJQoFOmg+JSGjMx0sewitIkX+yZYIOA4EC692odYxA92iAD/STwmEYTszF4VqyqcKWjxYH/WccSOEb3UFfmDHYpfxf4xkooetRdixto6bofoU0gZu3S1T0COA5LRx+pNx/aDj1JEI1DGDZnE0EqYsb7bJAelQNHt8abTccsfThrhRtN2ij6xgN/Pz/1dHHvcsYpNBb5wWfgzC8ef7r015hjcqXiSuGHMjHEakh6lO/NGLuC32HFLxFPPvRRbbLl19MzsSTmF9MJzT8heuzBPEiHHQHhA9rV0xGlnnBWXXf77eGPChMST8WlvU24QEI0TY2+EHUtvL/qZv8dKEbQpjkIwGz+wIDLNDRgL2sgTXD732VXj5j9eK7J3mucDc5/4wMUYSs95WpcmkcRgREzaB3f+8Dfp/Snx+S+sHzO6uhw/NiyvOdbdLRw0hphpVzu6OV9kHx+y2dPb4/HDX4/IO37BFD2cOD8DnTHNVO7Mi6/vsnOc8D/HROtMiMxEi1/UmZct8k8uzEN8Ei9jjj02ftp8Higr2e9T3y/OuTCOP+lkY8n4s3GuL7nEEr72vPzyy5LDIjoOU2MkGXyAtny4QzEqyPTp/CVPTORFDIjpGNvq0UGZxzLgOUVbEvP777dv/ODIg6Ora6r8SFciHl9A1QYW5TivfXnMPmBwbSKuEq/dSQ9CrMyX0ue5YqP5BVbgWa41tGb84CqbNBAqH8XjsXeT5pP8QnbhnpyIEX9MMY8TOjhmU59zwJ8O3awd2thMmmkfP8W/dnOTiK8BAqZcL9BvF7adQ0dUcq2Bqf5UBCoCFYGKQEWgIlARqAhUBCoCsy8CnwK5NjGmfTRRBVcWWVnGCRAKOgoxirKmuDRp5AJelRyFlwszKtUsqDl0sSa9/rrMBSAFHzIqdjl2f1Mosm9f2MkNsiUJFvxglOIui0LHSRFoPeKjW19szU86h2Sg2MZvxuVwm/2ZfSrs7VfRQwAgJAMmQaTDhn5ikMcmMSioJZfxoVO21MUfhtFzYW+7apEeffiVtmM1Jk2BngRNkhEQOyWvgqSLaPJz/PoFA4p/8ifHhqiw/4KDxFw0a/zY2FdgjQ6o6SM7xEQzZAHkIQQruZbC27k07QRAe2mzTdkmzhz73Mde+6Ch8aVNx8RTzz4r44nz2muuE3+44nzF2+N40lZDiogIMmGBNRkAHwerY357erpFrr0aY7b6qtYZaU7Zb8Skf0yI6VqBmaSIWhl36T7719fim3vtE6+9/rr5FMs7z95o74B0kpw+5AqW+NSBWtiEi/AAV1ZGuo9mZMCbcfRYI6o2q5Z5NDMO2v/AOOrwA7QSTYRYo4d8zhs3oFj+GuxFzBnbPBeIQwsxteLuwdhtj72cH9H1gg3jxniZvGKeKgQp0I8/deevGj3XbVfzq2nHMTIoQvp5zgkgVqkyB2xPX2uNWiPO/PmpschCI22Zce6D2AIzdNOIc+E60QtxiW3mD3aMoeTxJdmuntZYa50N451/vO3zjoh7epIg7A+ayGWb6VrIuWKrRaQocPcKmAXnny9GzD1nP8HIiriJk96P6dOnyzdzKYlmhUCijgejeUlJnNJYxBGHHhIHH7AXw68wIK1QIj/lQDxKwPMEYJqtnAfE7TzVBRykyjd+yKPMnSRPB9qMEXJIS7b/XMUHNhtfOc6QtpjLaMpKNq5XbMrOY5H9ittRpA3HKQn6mO/8MW5JxHFWOEz/2on2CJ1rblkZJ2XHxPjiW2BafsiweSq51iBXfyoCFYGKQEWgIlARqAhUBCoCFYHZF4FPgVybFF2sXGswcEFHYUdl25AUkGqqxqi2XGC5oNahizWqQm3Im1xBTIUpxAiFXBJcpcijIEtP1Gou2FBWW5rGFgVdEnAubCke5cMxqBvCCgIA2xSnyPfNzF/scWuo7bk4loy6cGV57eeqMuJRY9OuTv4sl1+26n6Kb3JrbW23RBa62pcBr9ZpMLKwHYFDU5CXHClEM+GMxYWpOvEL+aFYS5zYIVabskeKYsGvXN2mL+OuY/Cm2EXXmKukZrWWCQ7kTYI4MtsoxTzjSpmd5EMSPkjZPkB4U34Jvf0kQvhJUilJSBFeLrZloxmznBMZ4zvvfRCf/fzaskbQ+hGzc/CB343DD9pTB5ofBO6OtF78c1snm0kBJQ/hwTTgNtOLL78xjj7mB8oR4iNi8UUWiYfH/0ks1DTlmAEzXuMfezp2230v3Q46xWMOSdMDzniUmFD1bazMB7tTGyAZo4Y4wB5jwTgn/swFIktygrlmUlOBDxAVZBFx8kk/jV23H6Mkcs4zhmxlDJjDREGOJhGb5Ms5VbCZrttfz/n1xXHKqadHV7ewJ+lGD4JJMAqHpFJyHiliAYYYcftcwYdkOAZyCBNWYSbhq4YmBrAoZFaPxhkddcbw4cPiW3vtGYcfeoBuIZ8UHR2DjJ/HpznvCd8+OWZHoOKLzXF5EDPfX553afz4+OONaY9yyJzwxHmZmGs35zYGZIi45JQ/EovbbrkpFlxg3hg2bIhWnE03ATp9+oz46MMpIusiHvnz43HffffGtdffKHXIMuEtm3krJueUctUtrlyfuNUV++ede3ZstvEXLdtuQlX+NGfK3HY+fDnHHNdCLoMFXUlOigAUBszDHFbOXYLPf74+gD+pCRfIQuJohEGBLC2O7zzf+c3JN3BdBBPJym/+ssN+2vP4qcn6NEtWI6Bfctac8LXSGlbni4+vJSTDvzTufuLy6tD+WFtNrNXbQhPD+l0RqAhUBCoCFYGKQEWgIlARqAjMvgh8KuTa9CkTXQgCQxbGKsSa1TgUj6Xgps6i3qKes6y+ICYgiJIUoD+JJY7ZXMhDanBMwalfimgMUfCaWNCxSjp1UwSjpxLPctqVXMqzm6stWP1GP88xo84z+YG9RqeQCC5CG1vEQkGZ5uWDEPKrP3d84dvEhkRc6MtXrpoZuEVVIpZxKSqDWQATq//olE2K58aWOspKJ2QLOWh5ZIkbP9YgUnwXXfbd4jb2vLKIIDBg28gWnSzCZ9XHADmwUTinsDW9oouhlnuJCREZQiZXsEEskIszdR8YOhx8Az6OHUeOGbHSAtn0m0uujqN/8EM3KALxQH1xyUW/iY3WX7PJBUn8QupAirKfxzkv2Ecz42L+/PcxJ8UFF11om5BBY7bYMi6+4KyY2T3dZAx6Tz7799h62x1iehfP9kpiBSLFhJJa8FrGgxR4VhzxsnmeeidjMzEjoZKX808DSh3b0lOn56LwK3Pxvrtvj6UWm18hZ17AhCw6YDqwSknq9izfksFPYg62rdE5aEiM3W3vuOXW21KAGPmHsLFHJ2NPA+50G/MfWZ5n6BVI8gSeWCg2kgQiB+xkv/sUIye3bkr2+U+ayy2zTOy//36x5aYbxVDdhtvTPSPa9DxF5ocNKB48Eo39iuVi1V+eT8xBnb8i0zo6h8aodTeKV199Rcnm87sIq8XL6jgfMh7GW0B5buC/V6sFhw0ZEr8858wYvcHawkle1a405W9g3hNPjzrA7oMPPozzLrw0Lrzw4njnn/9QZBpvxQkfb3QIVL4LaXznrX+MFZdfon9q+7whNrDjW3bLai7yInPOFXV4H/ues8qL2I23fSCpjWAlCxY0Ax02sWWc1Nor3OhnLvv6S7zoAhKb+kyM4hcDMoQf5BGRuDePi33rUCe5RwddQNOR5y7KyMiOz7l+eXbSLvY414jJSbpL9jS3IdYquWao6ldFoCJQEagIVAQqAhWBikBFoCIwGyPw6ZBrH73XFGUquFx4UeCrOGyKMPDJ0pECkNoOMkLLQyBjKLgskEWeKzV21e5biLQihAIxCzq1N5UfhI6q0lxdpQMKQVaV0G/iQWb5NbGlOCgeP1bUutCkAG38UIgSL75tl6rbf1kPNn5d+GqfQtIPj2/idzsFZ3O7H6UvOUOG/O/YG7AcUymK0ccRsmBHLKXQNSGjA1J2RNo3gaIG5EpRjEKGmYHbJioo0qeYnS9Mg7YSI/r9z9KidhdukFVuUx/jiAliLXG26fa6XD2VY0of8uixbx0pEXXBhnbiTTsMX44VQZN3tusXQqulPbb86o7x5F+e9DgiI6vxzzdfjt7uqWrLAr8Qt4l1E18Ta3d3d7CCyCQIuWvF1FZb7xQPjh9vGMn76zvvGif8+HDPDUiknp72GLXO+vHuxHc9DvjkWX2kBLHj54QxTSAbaDTmSMl3wRXMaFGzCTHySXoDcWPDGOcYJj45Z2VDnznnnCvuu/PmWGC+OSXs6K2HPYya5G18lTE26aZ5K/X06dD6or1zzlhi6eXio2lTHa/nF/FojCFMwAAdbhXFvGPSLw4HyOUkgMAHApVTGyxSlnMB+TzfSk6eW4oVIru7t9v9nJ/YnWfEPPG1HXeIffb+Riy0wMjonqFnlYmg9HWBlYCy5Rwxyn6DZ8mVHJ54+sUY85XtEDTu9CHH3PUYKRlzbTo26duqX43bRRecp9Vl6yp3jYhXL0pHH+L1+a9UyjnVpOUVi1rUFocfdXRcp5VsnPL4Ywa2Cg/mhyB13Csvv0Lccdv1grZLeIsYxLocc14wFxj3Xj3DjlwNuKFWkthSX+aYeZec3IkdTwDF5/nIarwiLy8khw2uN/r1vGNAdcA+56s76LNszjVyYe4QfKKAGBbyfPORDrkep018SVKx5Py3qL6woz75yuuuQaIx+/SNVb6w5Xkov4PnmCcG1RcaGKP6VRGoCFQEKgIVgYpARaAiUBGoCMy+CHzi5BovM5gx5X2v3MmiM8GgpnKJ1hRXtEKW8RDrvGVM/RJwManfUnijQzurQ1S3ZrGM4bLRyUY/+9inoKZgM2EwQD5kEdeQBCbgsJ0kTpJeWfiyr277w1NZuUZ7rkihNWOggKc4Lvq4d5GJngpLF539NihQswjFZr8T9ZNSefmDLfOFiDrKrWEljmLXJNssfiTuqGYtcsGkkJLqtv9Zi2EKa4rfdhXbLoKx12BiaQcD7irWwRhsIS1llxTsUF9ZioMnXrIsz6I8RUwQykZ/G0A1G/GSU/FHHEk+iLwRgcPdqOMffTa23l5vYcS3JSO233bbOPsXJ+sh/3pAfjr2WJmokEzJk19IHufHwJp3aIlBw+aMuedb1Le+4h+y9bSTT4qtt9o4eCOtnMWe3z44/njTTY67Tbfygo3tEgNzzJiozTEzPxjzQoDlPHTW9Kvd+UvH84uYZYMPY4td5jltECaJXMSqq6wSt954laT0ZDidM8w5z0P9ggWQk3P/3MS+2nLTHjGrhdV1z780ITbeZHPtq1dB2Ds56OPVRMQubiXjScIzRWWHoLFsexKSDriaHNJLMXToviSwU9YxceKixg/5STDHPM9FNXg+Mf/XWXvN2GGH7bUacV3dpjmPxpbnpwm3Bh/slOzA3xuutO138H/HH669zuNc5PCDWI6T8NUBpC/ta44aFddf/Vvl3ePQaSsz2VEaJLC1U8nJkTBwLBrn9s4hcda5F8cJPz3RK9u8+ssW5K/RZcz323ffOOao7wo2/gNBJhRD6efc7mjX24+FKRsx5HULG3lsJWftBsulvqNEy14FH7vwenLD2GpOyC7zvkOkss8x9aPLHE27/Da+FZdzVAt9/WioHVsExIe5BrE6YCMjsBpYSYY/YmmScBdf5EcHmPev4jO+six8Bw+vbwvtB6vuVAQqAhWBikBFoCJQEagIVAQqArMtAp84ucYzlLgt1EViU2BmUUZVRxGXhXKucskiG7Qo1CjEy34p5NzgKo29lC+FKS2FSKFINYGiNso3vr3aRT5d41HANUWlC361OkbbJKYkwrLwRJY/vvRPulkUcpiFKTa5LdDtFJJFToUoeXoVjIm3LORdSMqeSZBGj2IX4oCt4FUILgpw2j5++1TmQMFc9ByP3RME1IDDzcJVRTXHZTPmitNFdtOYeWWxX0iMHCcyVCrE3JAbjcrAT4MFMgpJ8aYG7EySTCJnvEJHUUi2PzbFSXEOFs5bOOhAIvoVA+NZ0t6p55vNiA8nfxjjHvhTnH7aL+Ll116TH1YIiQwUEXb9ddfE51b6LxMIkBiFbDEJaWfEDyoE1swdjvGheJ565q+x2VbbZn7qx/01v7801lx9FfENM+OlV9+OjTfdLLp9Wx3PQyM84aEPuZIDOx5Tz115Uh4c5yo+dXt4E18IyUIyQoQImrSpfeTU3UQqOJg7stkhoS023yJ+ffbP1A/RhJLiV3xk5Tmi2E0A6Ti39CdBHyaJIZm2jjjxZ2fGqT8/w12QiazmY4zwTG4miBw08wR95iHka3tD0rKCETJZJtQPKZtv3c3z2vGovdxq3NKXBI8fWs+5YYtJ5/TpnMUHt8Bm5lwdCK0lOjs7YpexO8WPjjlSq8G00s2Yl7yIKbNLTfnWrOie2RqfH7VeTJo00XPE81b2k7hiFvDJcesQeXrQgQfEwfvtbkyx51wl4ZmKfek6HwhNSF3hAu6iq9O/Bqy9Y0j85uIr4vtH/0irK4UXf5oo9iSjnJ9DBg+Oe+64JZZcbEHnZ7JVcthGITHDB2NLvGmHMfU1TYdJ4MsqOk1sZWWbzdhx5uckFSu+0x5nlNSauek2cmM8JEIyeV3Tvo59/lgB/wNt9BWd/BVSuJAIcj4/tE886ZrcbMgh8QV+nB/GmC4dp5PMdfDQuevKNXCpW0WgIlARqAhUBCoCFYGKQEWgIjBbI/CJk2usXJumNy1myUWRldUXRWF/QVWqryy5LOtCVsVeKTQpZKn9VAOaOCgrOzBndWlRyyLkX6zrOIkn3WInIevo1/XdxxQH4uqv+pp+bHvDlmxCiEBOQJYpJOeTBAf+sq+/MEVRev15coiMfl2Yl33FbFyQ94YEyeQvpIBvLZM85Fq7iAbnqG41NbLYJLfME/us8qJAR8cb5rQh45jw7yo4vWUv8aUgRTW4QQ6UB+oTiwm/pr1/fLDTFOiMnQdFXmwJWbcxPFnkQ7bwAgDIm/aOJGqICXuQRZAXbbpN8/Y77om77r4v/vL00/HiCy/pdsz3RP40pEYmbyyXWXrpuPPWa2NQOyuncnUORAT2EBMVkuOnYxf08p/jlP3sn3DKL+LMs89NbATGsKFzxGPj74sReqg9t6H++IRT4uxzf2k9bIKTyQ5zwJACalF7kjAy4HHVj3xBrrUrbhY7ERD5lbmAvFK2nm+FxbaOTTRpx5g4D+Wlvp8cc0zstcfXLOMxa2zmbYEcoC8D/CNQb/xiK1kPxrO9Y3BsMPrL8fwLf/McAVc2q0g1d7JNB/54/LXSC9tJ4IEBotBZ/EL05pwjR26NnmPo4Fh80cVikUUXjZHzze+VWdhbdNFFYrBIrTlHzBlTpkyN9yZO0ts4J/mW0hnTp8Y//vm2npv2evz95ddsF4LtqCMPi2/tsYvnbfolYm2Kh5Bn3YjpljsfiL2+9R2dPyINtfIQEihJwoyZY6/ClOL5GtvNR3/Rq9nKM/I8TgI95xG/ug4pX58D2im3YBa/EPUdnYPjmB//LH513nk6bzw4pKuFjzke4LbP3nvHT44+XJixGrOZ985BOEsWtNnIyeSWfDGH3SoBx63fcl7RXvL3uQ+zpRY00IcwBY+UamwzF9RPbv2kPVaQUxtjiRlGtk0rETmmL7FARLL6M7FrHOkjSnQG8vAz6KTXT6LJPP2zYuoW2uXDRKxDaI0hwyq5JjjrVhGoCFQEKgIVgYpARaAiUBGoCMzmCHzy5JpWrk3VM9eowij0VFJRQbmwgpjwGxZVSKlBRWvKuCDVMUQF9RvdfOWtR2pXI/WfV7jol37KxLyNEh2IC4r8JGHStwSsx+qyph0jNMtvOsn9ftJDff02EM3Q7V8lpRtcYKYZzCchIlKB4pvCl5yabvdLyRv9flC5eum3T+s7zCxEG5zKSiB8GUMpQBRy5DbnhR197Exf+kviIImc7MgRICcX9PJL4c2nkF4Fi2xT0W17xATmrrQzwCY2SCMIOpNwONXGCijGqtx+WorqElvaAhtGLcmu8gIA7HWLgbrn/kfjiMOPjH/ybDPh2TVDq5UAWD469Pytbm7l0wd9cjv7F2fo9s3NRKBABJIz8YJDYtRPAKitFO9Sti7zYXpXT6y/8Zh49fVXjQ2E3wrLLhf33X1zdOvFBW1akbTYksvFtBnTG5/5s/CCC8VKK60Ud911l7NnVhDPV748xi8J6NJKMOJ25MKPkMCqkL7EaHKHeeK4hQkwgrXiQsFzgznKpr7r/nBFjFptpabblhMbEWYmS8FJes4Z37LTNNkA9iBbJrwzKTbYePP4YPIHxpIxz5dOMI85T3L+45Pbb/tEWoJtIeHIAeLE57B+Gc/55hkZiy36mVh/ww1jheWWjdEbb6C3gc4p8qYrb/numqLVcXnb5YwZwrWt09jIo20PGjxI57KIVcXXotWKEe3WA8EZeqlEu3CAeAMaziGwZD4pwsSUDvIgIzW3tQ2KHXbeI8bdP87yzG/0kPGbKSGekdMtvo8/PC4WmH9ux9HH/GIBn/EH3vSTQwM2+Ex8PM8synWN69BMxRqx0Wjm02vyh9zA+DLHB2nl32uvvKBVeF39fT5f7UB2OEeFr89V2pyTndi3V/VqbvMsOoWofzlPkEwdK/XHzXiygSM9xJ8rgxOnzCH3LegvcrS0ZHM+WF++iJUPm9HWLnFgF1u5io74k+x2/ooXn2XMTN4rz4ytsYYdnwfYiRhSn7lmjOtXRaAiUBGoCFQEKgIVgYpARaAiMHsj8ImTa9M/mhgzpr0vFFTss9qL6pN/FG36c4FFQUZLfzHJkTa1s6KCYjFVStFZCkkVZHSoCkP346uwsIGfdGcySYUesoUgoKgz8aPmLBVzlQf7WTDmL8GVorHYxE7mIgfqT//Ypyhs+uw7bVDQI88tderODTl82b/NuM+5NroI2h6S6gAv9+vXdprYkaOdtgFMkUm/JiKEY5Hzjr7od/ZShuTJI7U0RTE+DZt+vSpLOPc7wmG/DRX1IjZsr4kJkgGSxCvnUhRp67gdfzo02aR9vL/zzw/j2/sdGOMfeUSisBIiKyTTwtxR/Ll6h9HJMDA2avU14pYbroqu6R9pbLkduLw0wa7yy9hAECTx6RcdyLnjld2rr7s1DjhAz8EiT2CS61P0vLWdt/+yHEU8/exLsemWX5FfdNQkUOYeMXf85vxfxzf22DPe/+ADE3ri9vww/tVXXz2OOOoor1gzTNLBF2MNTmwcQ/SBExjPVCezBRyMj14KwIYvNTVx9cU/33pZBNMUwvJYQ2big7jKecBYmthg3mGDvPQPGZLrEek37qEnY+fdvmnfJTZ+E2OJaR9xzj/i5MUDjEC2EqvD8kq0ncfuGF/Zakwst9ySItjmjT49945nijF2bSI6W0SSdfG8NCkRBxt5ES+38DI/7dt4yI9ysoz8QcgQVasmINj0yminyM/MJaUak1hVUODWnCuSf/HVt2K9jTZFUEehW2tZCZrY0oYuz/ea9N6b8eKLL8VPTzo9Nhm9fnxly9GOKclJYiVGNCCPNIY68PnYjA89ueFbb7P97VXx/WN+pLjJV/84gYhL+TBmPz72h7H37l9jEHNs6EVMX3zIllwZRweudvDiuoU+W5LI2pFpxoXrHK7YwNfnpPy1SD6vd/hHcsAXeaXP/A+KJMKyzYJ8KV+vbpOe+5v4uKXaG2OpuOwckAi5sUs/GBJhXocyH6LwXHDMOV7YnvU6Mki3hda3hYJg3SoCFYGKQEWgIlARqAhUBCoCFYHZGYFPnFybwTPXpk5UXZUFZyniKO5cuLkIGyj0WNWRhav6mwINOfT6izHt/+/bsVykIafijALOpSlFnjbsFSLNNtWfBaK73UcxW25jM4nTFLIEoV2TLi4e06RD5xY+15H2qbK/sUssAwUslok/0+3PRYoQBU29jYQLZyIyRvYvZ40/2m1Ix9SpzlE2XfhbV+io8Ebc5I37iEMFr3yBiMJMcz6mOckd/aidQjcLYIkladMQYyZ31NZPULKPDl/ebMD44QBb9EEqpAQWaUMYP/mWSJ5RR3gQXb0ibp569pXYY8+9442337ZVOlFhrBiTHNPEE2MjRG6NGvX5OO1nJ+rWzUEe+8ZJ5iLlfqysLWPgQiBNrsT5/uTp8dk11hHhwgPmteJOYgvPv2A8On6cn+8FnXT5H26O7x5yuPXx0SJsvrXXPvHhhx/EJZdf3o8dJM3D4x+MI793ZNx1z724cw584dKum0ZwwqCxYi55Xy3CJVeK5TPMOCfYwGDjDTeMS3736+jtmu5xpi9JqgZvYsOOfDDv+wkP9PHrTTuaq9/XrYsXXPgbk3s0JxlDPCnFOZa3RcoWK9dMnpCDfOm4Uw/e//ouO+tZZfvqzaVzaXXhVLXrxQ/qJwoppC12m7jkWH3qFRh5vpTbFRMNzxkHoCwcZhKNllWDZwRYNsmkLcWsfJhHzHdwYqONAAYPGxELLvpfMX3GDJFSBCM7xIM9xdihWx7B7Ibrr4ttt90+pmml4lFHHBYH7buH4+6/dnkOJjbIoytjwjmJq+yhhWad3y0dseTSq5iUBDtjSG76Y9XcmquPihuu+a2uZXpmHR/HRneSwGCGb85rjyU2NT9ZXQjZ6XH3mCgnbRz7Oqc+5Mu8UY/7iUkcpXHxuW57iYPhVDcbP+Xa5gYikiw26QRzjydKakee3TKmtBBfudU0zaasY5ZOE5F1+225temTQdqHDJvHbwzNOOp3RaAiUBGoCFQEKgIVgYpARaAiUBGYPRH4xMk1XmYwQ/+yzs0yi1UXFKYukF2sqeajmOIjQQo53hrKKiSKNz/YW4UXxZZJMf1mQQbhAtFEQZ3lmldGqHDHfhbqKoB1jHU2fErd+vijKkTTxEGzT3Huwlwd1mq+KC5L8WpjzVf/Sgsd4zeLYa0swZdiwx9xc5skcWZcEpb9Wck13/Zqm41ME3PjxligVIrtvA02i165tQ/yxy4+lbbiLQQaRWtDCNBHrvpHhpZlPw/tDmxK0Uu8vtUSGcVvrGBv/Ickb1zs8bPTMGY/kAng6OQxrM1+M6YyljSzkueZv74aO+y0a3ygFWB+3pXizmdUSVc2Fl54odh2m61jiSWXilVWXiHmHzmPCviI+efTGyRFzGEPV5mXjDLmipd2SIZ8O6JsOpS0yUGLbgc86LAfxJVXXy1ZkRyygc7xxx0Xu399ex3kmF16xXVx5FFH+6UVTEuwPeuMM+LQI46KadO0iqzJdf55R8Zjf344Fl18qdCz+3N8CUy4JSGqRrDVJ2cvsbrJ8bJ+j9VAjtNYN/2Mo86J4479UXx9p68o95xf6tUm+zLCrbVe8UV6kicPMMhVYDqvwNSG+2LQoGGx/KprxNvvvKNbC3kpQRJpmsAyhQ5jp1iUqG/lw5/8QG616n7Jzyy0YJx37jmx8vJLIG672Pc853x0PMSFT8YC/2kPee3aGjkxd42BWuRUB5IHLxOHel6iccAONhyebWKPFyukXUC0N/Xpt/ElTyJo5tVbYBfKfnKjXxhDVOES5+Q7WC8amDp1quXOPP2U2OYroyUr4g2D2sDTmw6FtmMwudn008e1C5s0tXZ0as4cF7+77FI9Ry7fhomFXMHb5+fQPXj/Xco2XwjhVWDYbmLknMsAcx47CvXx7D6vvNM+RHESVugNnAMFE8YEG2VeYMNEmX7Jgo1j9oiZofD1SXp5PRI28kdMXkWsfeOA2VTPIWv09aNm5q869Y/nPqZ1rsfMfXC0kMctpYmQGD9+fUWMFxpAsNWtIlARqAhUBCoCFYGKQEWgIlARqAjMzgh88uSabgudJnINIsE1FYWydij+qbVMAFClwWoUKQo5imPrZMFoQkmFOHbcV+xQmUsedeyh4wKXPZktBAN1IB74Z1dlHyG12perPgzRxoYBVlclsTErIZi2KUab0lEykADWUmfGQamKOSeq+JL0w3+SFDJPQMjgC/XmmLbMo4kNP7JLgYrVXH2Ffipk/FilOG6KWO83hTl4gblsZDGNJPsQHuSpQ9lycd3koZZsd1oZHO4QTx1K4maf38Ze0+jYwCRJHQsae+cuWXRB4h8Tp8TmW3xVzwB7W236MPbCCnubjt4k9v32XrHO2qN0z1pXzJjxkVSkq/sv29sHW5/5AEqeI8rdMenYgeqIWxkL9uSY8UPe9sRfX3wjNtPtnjO69OwrHjgvjNZcc6246bor5W4a0Rije//05xi76+4kaRwhmPbZe68491e/sj0IQd6UufKKK8XPTz9Jzxzb3PPRCp5wUpxlM2GkY3DkWWbkkG25KimJZT1xjLdyMscVF2+ZvFNvmVxs4XkIQ8pgpPH2vMqxNSmsmMmXXMt4FeKLeMDpuRdejdGb6ZZX54ctzS39YJBwe42TRoBGHXtsRXaB7aqrrBKXX3qRVgu2J6naOSR6u7u8cgx/KEDmGDut5MMgRBY22Mov/YwNzf3nqR0WEo5Ys495CuHuucRctiPs2aFMCAsdej7jAVzVC65PP//32HzLrbm8pJ506UsCUTFIlvFDh39LLLp4/FnPX+ue/qHlcaXmxif7sq3xIG72OZ9YqUVMHkfa5IFbb2+95+H4tl6owDF22LBFHnPMMVS3M18Tyy+zhFozpnJtKC8BwD5YQnDaoeTsH1syiC3a0S4Y4gcZtzb7iPt2VBhpHXDs2Ju8yYWcwMR+uC5oH/Opm9cyX0NMiOZxnt+JHYImRRubvlYpmELSYql/7JnTitFx0Oo88pbfXMkKGdcSQ4bPW28L1RjUrSJQEagIVAQqAhWBikBFoCJQEZi9EfjkyTURa9NEsFFoQd1QBGchmMWdCy9h5EKPYpF9FXUUqaUQy2PdsucCWgUZ1SOykED6LYRTKeLy19WaK0P8FVtUcS7kqOq0uRjHnPax23/rlo9d/zWFsxpwR1FNXx46F47zliiWNBVPWfD6CDJA+XiTYq40UUxgoqKZ/LBXVowkPvSrsVkhVgrfUrxiCxja9UBzCnXjIXtebeIYGpwMQ2IBXBgdyAFSoFkhaINNXuhL1jiTITEXm5hw1hjLPt8CpvyIO1efZDxNAjk+Hqck8+xKx46qtSN22nXPuP+hB/M2NlT1GaI3WZ5z9s9j9Je+qKd1iXxSMY5tkyAYcDxJVtLnJjSlnyu1MuYmEfcnEcCu4pT3Vr3VcZvtd44HH87nu/WICBqsB+qPu+uOWGShuRsdnvWlfx1DY+XPj4p3/vFPk2GtItKGdA7yrYYM0cxm5dcautVv57Fj4+BDDvHD5omXf0lTEBtkI/EKY5M9Oe5GFUIDW4qDVXvgqlB93NnZGV/acH2tFvu5ZJJ4SDuYyvlVyBDPOeyAmZwUfxjjhQC8+fS4E06Lc879VY4x55uIM1aRQdom0QS2OQchZbySVHEttOACcf99d8TwwfLZ0hmvvPaWHtr/Sqz3hc9r/Hpsg1Vh+HLezG3J3XjjrbHkEovEClrpppsOFZd+tPkckKznVzPH3CHfSj3nk/IAC1Z+shVZJJyrZxLSBUvD5vjb9cbZXffYN269/XbbIE/wykktBaulLs/ba9f5cPYvfh5bbrqeVmI2q+qKn0YNpTw3uKUZ4qsZT/X7XJRZXND++tvvxRfW3dDnHLcSq9HnOyQaXm/547XxuZWXUax5e3TGk33lOlbGk7lN3PwkBvr1sZw1saGTZBxzSXNc/2hDAE1sSNT72LUtfec4qEP7Jkalk9eJIqF2zaWMCQJOW5MjPpxwafR1Hr9JTPt8zKDdRlz9uXkfxcTU5KnaWJ2H/uD6QgOjWr8qAhWBikBFoCJQEagIVAQqAhWB2RuBT4Fc0zPXRLBlEQwYWeA1exy6LnNx11R+pag3oURBhxCVHEWiCi8+yEBU0EWhlrVbHmMbcW+2mTq0ZfFGDwJZnGOfQs7FI20mNTDciCGpfstAFmjfBSIrPSgCVTA7HseKZYrKUrDKCHKKFXPutS9s6kj5kBM202HK+Js+tPKvf78JXTYTGz8bS6QA7VixvDApmNqHGsEziT27lHiJSSqOt/GHDW/lGMOyrJ+0lfGiDSFBfsbD3pFtxkl9/XgTGPr2WWJpjWtuuD2+te/+YhZkTeQNeM4xdEhc8buLY43PrSxbento9wy1c3sgD7HPVV62I3tYhPwpJCVkIaEaT/wpBsdsYJxUkiyKedxDT8TYr+/Wf7sb8e2y0y7xsxOOtr1S6GOLfzfdPi72+fa+3leL7Ip0g6yC9GnGCkJljiFDRbp1EZpig9hg/EVI6NjQuCVtoiZLXi1mm7LHai6Isf9acslYe+11YqMNvhhLLrFYrLrS8rKrlXsmXEFAu4qrP0cf60sdpj9k3DjQpH1W20Fwi6qKDTfZKl584YXoVnyskoK4au9UfzMG6HFbIqvx+hpCCo8X/ea82Hj9teL9D6fFccefHJdfcWXcfP1VseLyS+V5IxnGiHxb5G/8o0/FIYceERMnTYyHH7o35hjM+ULczE+NqcY7b//kpQncLg4aDjjz0nGeS862IXhASjmRpLCYFQOJS0a466PXjeq5dw/FHnvvE11deeswOZRzkbEBF85fcCGe7bbeJs458ySRpV3ZJ4P2hSti45zzmHKcuJKLhDNuybF5zolB+/srb8c6G4zORlnKsZYiytpuu/mG+Nyqy9m2tPRHHz2JI3tstsev/qUmrdnOrameX83xrOccHnPuZZ4K0+fkAIGmsYL00+aQ7CA9FJ/ubPqdq/ZLtpknujkPwaaQvNhL4lvS2NXWT/ZqkEwMSghMiJHx8G3CtDGHpDRoDl5oUG8LTfTqd0WgIlARqAhUBCoCFYGKQEWgIjC7IvCJk2u80IDbQj+2UYiq8MoVMrMUXE0BRh/FMeSFm/TLQ78pAvsLYhVgLhpFAFBNQw7k85sgM1T8uU1FJ7qWbYw3gVAUYgsb6m62LBApHCkWCRI5P59JBSw22ejyipD+MhcNtamfwjZXjxG79GUfBS/moQaXDJ/+1VayTz+52rZ0sE9xmat1snAmzf4HtqOjDV+ElLFmzNg3QSK/iIGGOQjSoU+/0rCO86RfgsSDHeeFf2K3pFZQiQDRodvsy/uyl2EYI3aJcQDXxCJF0p9XsMhKKf4/mNITy6+0mm9BLFjzkPzfXXx+rLf26sZv6vTeeOudd2Oh+UfotshO+0gyLVfdAcC0Gd3xxptvK7+IJT8zf7TKRlmd5xj11SZizliRE3i3DYqtt98lHho/Pgt7490Rjz9yv952Odz6fa15u5+yAmzptMUPfnxyXHzx70RKaQWUEjaJw+AaWEacXMHUkCWmDe7MN1bkMB+T6PTIfGy/XS8EWHedteOIww7WW1CFTfd03V4ookexKAtNAlYU5RzyiDSYM/chWcozyMAIvN2mB/YTl/PQ78uvTYgNNx6jB/fP8BgnITlTb+DsjBFzz+3zbPCgTuH+TkyfPr2ZBS16AP8aeuj/pTFp4uTYfMx2WrH2aqy1xhpx3dWXKcZpng8+1zyXZ8a4Bx+Lsbt8Uxj1xZ677x4/+eHhwkMvjBAOgORxMDbNWEqPW2TLeSbHDX4D8w8n/XNUY8b8Is+Zel4e8w8CkVH4SPPmit9fFz889scaOhFr2GZgjFfzVkzZYn4wH5njyy2zXNxxy7U6X3oIT6KcD4xRznXOyXKegqXj99DnPPFz60RGmizEtvSe+ttrMXqTzbSKscMkbB/XlCYG/cStf7xOK9eWJSzPQ/yix7G/tZMEJCgiU84r2VFsjl9K/o8Bxcc10tdV62MCg1gc2Ip9P0ON61Ozca0yUay51gQg1cwDbEs8jE+5dtKa5B64I4Fu+kzdvLZghT7a3I9iE5dxVD9zByPIkiemBg0TuabnrtWtIlARqAhUBCoCFYGKQEWgIlARqAjMzgh84uTadN0Sysq1pmoykWBAKKKa4qoUXsiwAsksSWpkQUbFpT2ePdXmB4zDa2QRZ/KggxVNFNayJNEs3inSIeNUeFKoYQGh3FHfQLHdmM94iIs45Mvi6ZpG92Mfm2mHwpeVUqJYRArwzK6BOPI5ThSISThkTVmIAyywciMN+xtRnCQZpl268UcvP/3EouiKJKrUJr8ltkIekG+SjVk497CyBXJBn8Rc1mw8MTHBSE6NL7Xi1F5dLGsf24Wo/JiYAiRGk1naSVKQFVKykWbsk9ixb2JN8UGCHHXMifGbiy9scpCGRM447Wex43ZjZKc1zjzn/PjdpZfZ9t133BDDhgwWlpofioVPpx7Kf9YvL4hfn39BTH7/w7j5pj/E0osvIJkBwgCnZTUMJAtvGWDM7nvw8fja2J3V3WArs/vv9+344fcPFqEluYa4KFg6Z+HQrttVH3z0yfjVr86PG/94U/QoHt42mWOl/PWu0UxV80c22vSvi5c9MN80bkmI5PiYJFJ8ZX6ustJK8ZMfHyMS67Oy0W1cMVzGGB/IlumnPfs16cz86ydKiHZgDMGdcff8kPJl19wahx56qHNHbohW2p1+ysmx2GKLxOKLfSbmGjGX3wS61rpfipf+/nfhpVsye2bGdX+4Itb5wqjYYezuce+4+xzfFZddHuussYJt4xE/0MqsbFvvS5vHxImTPG/uvO3GWGapRSXAHMx567nIAeOpf4W4ogmhHBlybsaz0fNcVBMxtYu0atcz31raW+Lxx5+OJ556Ou6954F47IlHY8KE5q2zCgyy0edewiL7BaKcvwsusGBcd83lsciCI93lICWDmOcseDowjYd2+4lvzitN3LwODOSRbe1xwklnxulnnpk5KEdeRNCm6wRjOmyOYXH7LdfHskstYts+R0hdnwxT32BDC4Fo87mqX68QUyPnOXPCcaqdPeYVGza8yk6HYMZ5gD3yoS+fbabbgSFhhY8J2m7+E0PgYkNCjBHXL5vULzvYyjEQGafJ7nEkAtplF1nauCZ4bmu/5OZriHTwgbm0k7JOQvrStg0wGqyXGdQXGhiU+lURqAhUBCoCFYGKQEWgIlARqAjMxgh88uSaVq5Nn/Jef6FG4QTJkL/6oRrTF4U1hSDFows2yAgVrf3terYYarRlsQcpgY4NUM2pM1d3ZHGm4zTuQjaLubRHc1l94eKx8YstVnDRRhGY9SL20za/2Z8rRvrb8d1srj/ZVxN28qNIMOFqUmno10SgiRIVpPKLCazgLfOCjEIJecWkD6Wr7WUzXmQTsQY/HeADGesiLxtua2LJfatmoa8Y8Ozi12opD3kH1mxpz7sEY9sgbU3bR4ZQMy9yoOgnfLfTwL6JiMx38tSeGLXm2vGhVkYVomCrLTeL8351Zrzzz/dil132jKeeecpxnXn6qXpT6Bit22LVE8ZCsbfED4872eQcdvf99j5x9BEH2B94GXCca0MDwsf4qa2vpcO3Rb7w0kvOkbHgVk6eJTZyxLAkBKQDdiTBD4V+IVJ7u3tjyNBhMaWrJy659Pfx7LPPx+OPPR7demvptKlTYvq0aTF5yhSvwurSixIgMyBe+SUYE7vagdyA+ISA22rLMXHOWacIuBk+OyA8iNg6xNzMS8ej2JhDBTePqcaReaNvZ8y8kKf8Iwc++m3VM8i232HXuGfc/T4HEPu6SMaTT/iBjPJ8uCShXnn17dh4s61iula3yXmMnGfeeOrJR+O22++I3ffch3dKxFzDh8Wf7hFmc88hVUhFzp9erYAbHD899Zz4+VlnW3elFVbU7Y/X6FZLVsExdqyqIx5ibTagYe42edPq84A2+SKGTIlbcdvi7X9M9L9x4x6Ie+65M+5/QCsQERTObJDuqadj/ZXx52BWe0o5FtZz5K7+/aWx1KILqE/jhCedsMh5Dthicx5pn2tH2pcMxnX+eZzo0yHTzzKaZ0svu6pu5Z0GtLLKCjcRXNpYwbfooovGI3+6W3FDGKey9ZVrHls0Y5IB8OI8BRfwYA5A8mEX7Eyg69ckImOhdvz5eqq4EvecV9zOzQq6jB2ykGubbGBbm6+r0klfzDcnIHn+cq4VjMndJBp67k388M+8TfKX8UjbzOtybhH3rPp2QA74USy+LbSuXPOY1K+KQEWgIlARqAhUBCoCFYGKQEVg9kXgEyfXZr0t1MXzLIWZqkGqNhdwFIg6cqHlHRVYqq5cRLrSouBCnrqt2c9VGSr1XLRRyOWKkp6ebhV07bKmBr5VF7qSRNcN8skqjqafJgq8/kIaIVee9LARGVva86/v8yRElYrSRYQCkxjYKED7STEas2o25wMJwO1vqmhtmQLWBXCjg5tZ7WILw7j0vn5NhtmsDrThtr/oFtHBMStRSjGeD3IvBOZAnF6VBHGkGAgRxVJIg4fHxeNgEAlAW+NTMZEzt8OZNGgwc36IWS6LZ2wbY7Xi84yzfxPH//QkY0eMI+edV7fk3RgjRgzX2zu3jZde+bvHmdVcd91+Y8yY+mExFx2DBsf+Bx4Vv7/66pipW9gWmn/BeHT8uGiZyW2OOQ88R+SUHJq0TBwx3+6475HY61vfyniUG4TQzjuOjTNO/Z+YqdswGS7wwwYbseM8yV880M98TQKYudTepltWlcfkj6bojaYz4oPJH9o+zlu12pLVlFM+mhynnX5W3HXfPX4GmG9nVDxbbblFnHv2z0QeijgWzLzFFFw7tCKL26GxSwyOiy+EWiEthui3I5566qlYdpmlRWpBXqhffynPPgcQUhnre5Onx8qrri4RkWEKrl2xXXnZxfHFtT4rsTwnurVy77m/vhabjvmqfGCiLzbfbLO45MLztGptt7j73ruFWUuM+vwace1VF2oua74JwzLf2gYNj8WXXD669dwyVgr+9KcnxC47bOlQOK+MWyJq28QHqpxGzB3PO9njvCaWwYOGRNvgYfH0U8/ETbfeEbfddnu88uorMfG99zXJhZNuxYQ4KtcFpiGkE2QRQ9er58gtvsSi8drrb9g+5yuy/Jt//vnjD1ddEUsvsYDnoq8BwKYP+7niTdcSX0QUn+wWYg19NhP3JvOSOEvtvvj1hb8XAXycDptzQNEopRxPzZ0999g9TvrJ0R7vzJlzTJt+7F9zILccfPz0aGUZpJM3NfuUo5spQTMDjx8E9MVLJsAx7Sce7lC38UFX8fEiB5/3UiIrE7dcz4SV5w72CCwtW4ex4pxma1FsvqbJHvPa/mU3e5EA7wYr/faTxfQg1ODr+AuxKf+DRKwN1nPX6lYRqAhUBCoCFYGKQEWgIlARqAhUBGZnBD5xcm06z1z76D2TL17J4GIsC1cKt1L0UWxRivFsIm6XpN6iRKSdzVyWGrNsnKVoo40iVL8Uwuj5uVMqdi3d9GEDkoLijSZ+S1GXK4mo7yAxsqA0uSWBQpixKsS3m2JIXrJgpXgVySGdWeUp5u1C1S59yPs5SE2Ri2N/HIB69eu8ENUGUcUKoiT8aFGH/vLFBWmTPIuO0XDdq1YXphlPD7cjtutdmxTI5KVPo+VCmpzKKiJCyVjxpw1/jA86yoMxIeeMmyZwylWESdxkDtkPJkk0DNyOl6tdTBTpeWcrrbpGvPv+JDlSbPIydqedtHrqmDjjrPPjpyedojIeexG/+uXZseUm62bBrgbwvuraW+OQw4/IIPV90oknxK47biUdaXl+KXzyLfhaMse9c8jwWG+jzeOvL/xN5A9vt2zRWz+HxPgH74155xwqogQ9PJMvOepXuUI8gFfOA4gciRiNxI1jtKTEn7oKqZg4QYzM6GmJTbfcRrdavui5iA7kzl233RBzztGhWNplo0W4fBTX//HO+POfH4nvHX5QLLzAPLIJc0JMkGRCWc+Q+8n/nBrnXXBBdIlwOfH4H8dee4z1La2ExtgQSP+YKibG5Ne/uTyO/tGP7CdETM491zzx16fiCgl5AABAAElEQVQfk95UxyRV/15/yz1x4EGHaJ+39EbsusuuccQh+8fa628SH2lVHsketN9+ceSh39HtmdxG6+wd24033xP7HXCwm3oV618efShGDB/ENCIIfemf8UMtSbVcgTWAla4E8aqeDff6mxPi1tvuiptu+qNWqv3D+fh8h4pUbIxPm9+Yq7g9nsJQfljhiM01R60RO+00Ns791a/jueeeNaEkJcew6CKLxhWXXRxLasUaQ86jxjzWXAf4OOAMlOsQNhWh5giMo/Zsh9vVW7Wi716RpKNFfs1QV59Wq7XE+rot9s23JsgXhmVfX7yRFhtDBg+OJx4bH3Np3HOVKO2SZGz1z0Rls68Gx0VMFkoEAc97jLUJviJPq7p0aHzQ4ZqS11h10t8YSj2uLc0zLZvrZp7HYNjc4m0NsCDvzCfjEtg6zGurTSsf5ij+eW4k+sQhTDX2nFPYQMk67hvIr9gu831IfVuoEKpbRaAiUBGoCFQEKgIVgYpARaAiMLsj8CmRa3pbKPWUNheOKrhylQRFIMWae1TgUVjyUHY9/FuFmcswCjUVtVl08WsjLnwp4goB5f40w7eLTW7lo0gsxR7K9mc5Gcoaz0Uf+hScDgUdVeiFrEE/41QvAfQXiDZkHXRdLKq/jTcsKubSi23spT/0YRnol46K2VLg2qy701YhdhK7LGpzpUqzD+kDiWLD+m4wLgQMh4mjoiukhvw6NnXOmm8WvdjI8aAwZt+r0kQMsZG6STr6hEmTQo6JJZBh3DIu8ir2+IWgY7zG//np+Oq2O3rtFDICOh4Yd3ss/V/LxOJLLStiQrciKt755hkZjzx4t1Ym4VxEkRx2Dh0Ry67w2Zj4/kQTliPnHRkP3nt7DBd50z9PJA4G4FFWLxEeIV9x9S1x0KGHmXhBgNsbD93/gDjsu98CENnIvBkd8ssVWXpBgmLPOTYwT7CPvFsgDtCZ5Zu5R95JwEa89tbEWOeLG4pkY2Wl4lNOZ//ijNjmyxvn+SDy62Fhs88+34m3//nP2G3s2Djl5OPkI28txTa3kkKsHXbEMXHxJZfpXGnVmzpXiNtuusYr95hbOa4lTn6bcdMqtx133Tvu0/PSIEf5HKjcjzrsOyamIJjAkJVzV157Wxx55Pf8sgleBrH7bjvHod89OFb47GppX3icctIJsdMOYzJHEVvk2aaXIhwr0u/8Cy/y3F56qSXjdsU2SG8iZYM0bpeMH/oPyPLZ0zzjbsjweeLZ5/4WV155Vdx2x916ZtobMXXqVL9IgnnXqxWSYM5cNqaclzLBHO+ARJZ/xvvzn/tcbLvt1jH6SxvGvJpDX912+/jbiy94LktVdvr8fLnrrrkyFhw5V8aijrye5Pgz9oxszvcMlBWOudoQGcWheTto2Jzxnf0OicuuuCo+mPh6zJj8QbR0dsahR/wwLtWbVJkDbD7nFFuOT8RRRx4eB++3hw51LWxWl1kWw8iho992Ea7kN+s8zrnIfM7rgEHQ4KVqzjlwwZdtakzzPMxrIfaMp8aCN6SWcx0VrlPY9+3BMljOo5z7MimZRKPZkwy52b6dSkYCPissqHNM9sDdtolI8nR5daFiwCr2id923MI+t4WOqG8LFR51qwhUBCoCFYGKQEWgIlARqAhUBGZvBD4Vcm3G1HyhgYvCphCjSvMxVZYKK1af6CeLLIqtpgijUssCjyJO1axJHZTQyx++szBrbgXDtvx40z7FGz/pL4kuir9cLZPFHgL4QcaG9UMRX2KkkLU/fmyar1IUYj9jxo+LV8WJrj0TXH8+ua8G+WMfexmThK3rZTS0yUYpTHkQeilOCcUJW7v5UjhgVopTx8pXhjlLHpBiapTvDCv3Uz5t0G1C0sRR2nTUKHj80oRNq8nmyEMf/DsGk1Ty5c098tkX3V3d8bvLroujj/mRV81xW9+ySy8TD9x/Z5x11q/9dkfwgET69j77xA++d5DtloL8/IsujWOPOyExEzGx9Ve/HGedeqJs8UbNvB3NuBNrJqgIFJOCfXfSh7H+xlvEpEkTlZ9u1RRZMtfwOfNZa3MNhYvQvEGt0VUc3pcuZAMry0wbwEKRKwPGP/1BUCSBCrEIYZAYFvKTVVZXXHNbHHqY3pipPuQXX3TxeFB5t0KeqfWFl97QWzi/6hV1nR0dwuSumFdxtTcv7CAscHjg0adj7Niv+xlvvF31umt+rzdOLk3gaVsyHhPP2WZM5O9d3RK67vqj44MPPtAbVUXaiKy6767bdEvkQiaEiRnsuO3x0Seei213GCt7PIC/XQTeinom3BmxtsjBFo2ZAImzzjwjttpCx/KLZxMqImu232nveESr7mhf4/Of162jF5u8k5ZkyCFXVLboVtrJk6dK9vG48+5xcfsdt4lQe6fxqVs9WREny2U8yjkNzsQI0bXE4ovGqqusGqM3Xj8WXGihWHvU53U7rQgj9UP07f/do+LKq64SMZtjqLMqll9uubjikgv1rLihzTVAMdlTfuW4ap9NHXkeQnBpjE3xMvZ98cFH3bHvgYfFnXfdZcGJ77yqW4I/iltufyD23GsfQvc4gCn7titMPqt4b7jmshjMbbyWoZ/Jx7gxXjgmb+HFNQ99XQuY3ZDBkNRq0biweo9+i/uXngFCMLvoN7muX0TpzxWloIKz9IsfLpsQtkrVXWUFIDLlXOiBlGtsOlTZIG5sc4wc+/hg5Zo3ddimlgeiix9ff4nfFzRJyQakffkPE/DyM9fqbaGJYf2uCFQEKgIVgYpARaAiUBGoCFQEZlsEPh1ybZqejaQiqtxWmeUchVhTmqm4Ul2l+lG/VF0uxCCXmiJNnV6j4qpTBZjg9C1aOs7VG1nIFfIJuxSTFJ7YhahhR7v6SX0e6J02KfoanwgjpM3FqH4p9CgC6cgiOaPu35cd/NCKqr8plHVEcQkBkFVy6hfCjFRsI5Ukn0WvHKuduMlfhaZIjELykZ+LaSmbzFG/25xTFsbFLqkoGOdI5sUWsRQiCLKAWyAFFdlZBmzxnShlPqXYpSjXkiuvtIFfYkUTtiimITuQRkTKKp6xh23FjB9zAJBm7fHtA4+Ma665xuRam0ikb+29d/zPj/47RusB+k/+5S/GCzLr8Uce0sqiYbbvZFo644u6pfOV116WAzmS7ZuuvypWWWGp9CPXCohmbcLROSlfYSg6R28H3T0eeJgH3zOuthhHf/97sf+39lADzyCTLrhpo8gnF+dOu47LKjXyYgNjsEriggP0wFfe9Ysu/cyfFpFZ39z7gLjxppvtB5Jmh+13iNN++kPHM0MvRxizzVg96+x5295w/fXjtxf+Mvp6dJuhPtzSSTwduq11sy22jsefeEJyLbHuF9aOq6+6KHr14gGPsXwiZ/JJ5EuuxCPYlrj6+tvjAK0+c6Aax2WWWsrPsxskvBgjzs926ZDra2+8HRttMiY+/OhDrxzr06rSBfUmzbfffte5kdcJx/84vrHrdjFDL6WYKSKMOdHaNjQ2VXwvvvyysVxvvfXi8ot/6duTuzRHpk/viqlTpsV1N96qt3reE+PHPxJT9BIIgmbFHOybcVeU4ObVajp/IZK6dfvrsDnmiMV0O+f2220X2263dcw3r1Y2dWj1m14cAUGfK8FyTh5/8i/ijDPPlh1sc370xWqrrhrX/+FKEVU8u4zxgRQVTvqYCFIOA9cN5nVzXqjdk1iTq0XzftwDj8Y39/p2fPjhZGlGrLrSinHLzdfpWXBvxsabbObVl+Dp2yKxqdw5T5ZafIm4446bYmhHXkcYM8aK/DhfkWOnzCvOH7Zu4cuK3nK+pbbGWfHzvDTamXcmgYkREJmnBKd929Muv2zuxrfnKHFy3cmOJIeZR2mH+PL2cnwwF/PcknUb4vZzx5/O7NumSEhttqsvfLKBC7fW+poJ/vatgVdLwcLxq6VzyIj6tlBAq1tFoCJQEagIVAQqAhWBikBFoCIwWyPw6ZBreu4aW1O7uUBzwaUWCjg2l2HZSDnmNqoyF2Gqyih4TRiokPTKDSo1FWaqdFWcURCXck6/6sNUEhxZEGIQoquoaX1O+k5xR1BuhbKyBPngN4u/FCRObNidmQBoEo4h0yCPsvA000AmTYzYRA9KzwW9ikuIMxL3ijlyli/yYXOc6PCRjHobALGpBlrMZrDrXhW9yluHxFyKU+egGCB9uA0xJYkl7RJAkkBFB9v4z4LcxbyOracvY+GjWfptC0/NpuMSH6RN+k7MWrSaaLvtd4k/PTTehE6fnld1+KEHxz577BIbb/qVeOOtN4VLXyww/0g/k6p3hogXj1VLvPj3CbGJiJsuvZWzVTnPM/fc8fxzT8ZMrRbi2XFAZyzls7dnZgwaNEjE0KC48urr4qc/Oy3eeOMNx2KSTLmsphVEd9x6ffRIX4oOnjwdvceradM+GLXrdl9wybmWpMGsRBuKELWljVsXMQshMVi3t82/0OLRLQKJGaJZFb8++5zYYvTanuP3PvBk7LLrLrrlUwqaBifrJQBf225L+6MBkgZS4i/PvBxf/uo2yiuJ15NOPD7GbreFSDERLygqiEKkKBSPF7h0DBoWa683Ol548UUmiMi+tthtl13jp8d9z3NXNEpiIx3GvK29M3bf64C46ZabG0QSWxOQaukTGQn+q3121Zh35Pwx57Dhmo598fIrr8a4ceOa80Evqhg5MtZcfQ2/3OAdPTPtr8+/oGfEcdsvkYIv/5IUMnkrwIi/g9Vxmq+6gzOWWHSRWHfdL8YmG28Un1tt5Vh4/vmERZdiYG4ROXNLc1r7OT9b9OKDO2Ofbx/oa4a6bHOtNVaP3158vp6xB+GehJrPE/WblBLGbOX64z63KCbNr85BQ+P1Cf+Ik0/9Rfz+91f6lllilfH4yXHHxhfXWSfG7vJ1PxsuiVi6MkaiXHaZZeOy310Qi+gZekwM+nyGkyrxq41caMs5qnHgOsFAsqkfXyZzdUiunOu5IcO1I2WxhU39Wc3HssMn/cgWzvTFSw/y2pjy6OGX661lsUUMkh/wiR35UzM2M648xipb8VV0aUMfWefo4DCbWJi0EyYOGHc6FwbrhQasXqtbRaAiUBGoCFQEKgIVgYpARaAiUBGYnRH4VMg1XmjA5lUcKgYpKctKCRenWTP2F2hlxRcFPFuST+izAiUJBEo3ak0KcAicLNoospOIMKmj4q8QTa4jpZMrqrLAw7ZquIHNB5AMWaxL2IRKeb5TiTUL16YGpGAtRWJT/BJYFpQYLPui1RQ/svx6RY4KTesSgUTJgT6ec4YP25F8FrgDYc56uxUe0herxMDCLWlQ2EA4ZDGrdvV7ZZbxpryli/jTNsUsBa5XlliNjtSnL7FsjmULOQgn2okhi375wD7FuLZ+bMiVNt0KuM32O8UDWrGUAhFrrbmmV5CNHbuLnrE1zfqbbbZpXHzBuTFt6mTHxHPKLrv82vjBMcfZD2ltu802cfbPTzZxwyo6cJukZ171dM/Uw/DfjHvuHRcX/ubCmPT++9EnMkoBKJ6Mb9Cgzrj9j9fHsv+1qDFivjAGxl2BkYO+TTCYMAUn4lc7GOG/m3FCSgeFaMh5hy6568t2Qs+I+yhW/tzaJnE8nuq68tILY921PhftIm12/No34r77/6TpTBxt8dQTD8fcc4oc1AcqAmOsmDrptHPi52ee5Vg4nx556L5YYN5hIsO0ilDxGXYNcptixL1z0tj97vLr4rAjj6LFuUHYXKu3ZK695irKhVsw8VuIZFax9enNp91aTTgmJrzzttPgvMVHEnHY5/xgXouoYoWXMIaosS3FkMQX/c15KN/MGeagzzFbJTf/GVfinl/k2edWWyVGjRoV222zdSyw4HxamjYjuvUsPt4CDKQQeYDrOau9JNdkX6uonvnbmzF6080xK5vk2xqrrryybp+9QiSk/NOmPIgPGZN0nrTKQfNZ1kzg26ZWPHZJ9pVXJ8RFuiX5fM0nAuiPQeMydMgcceqpp8QRhx+uW0WnKF/NG62y43Zer8YTPuutvY6IvfNiSDsY5zlDXI5F1sDS80VfzCHmmP04LsWodj655Rz2IYEM7Ngec9ykHroZqdqba4/scjs0KvaRBo0nc82bA5Em+Ch3Pu5TdyHzMgdW5kpGtvI6BimXq1mLX7fjy3KaY00cnkeck41tubH3EqfjkL/BeqFBfVtoDkv9rghUBCoCFYGKQEWgIlARqAhUBGZfBD4Vcm3G1Eku9iifKLYo6rxqQwUVm8kG11lZ3JUVZJScFHEU+trVX66ocOEoW759iaJMRZqLMgpB2aco1I6rtYFikAJffS4Qk9yjmivFHOJe+ZU7JgDwxx+kQT4sPQkYXlhgEgtZbRSK9ilhF5HEyyb7jke7lpfzNv2DrKMPWbBg1ZXJRutQyM4SP7LY9UoSCnMwbIpVSC27UUEun15tojagTLLBoFrCBJHj4mHlrEziAfBJ4jlaGXWsiq+MjxTTDoW+PFFge/WgYgFHNmJhH92MJffBNRsQtAc6bOXwo/8nLrn0EuVNrEkU8GsqVTIQJstplc8eeoh+e8cg+3lfzwm76LeXxptvvikbOQ4LLbRgfHbV1XRr3gfGtEu3Bk54e0K881Y+t2umSAZ8YxvPfcqjRcRFh2yefeZp8dUtRiv2PuOvbvstGCShyhzLueJ89UW+JtCI25GJ0JFNrwqULbDjHw+/Z0tsQg/ovy922/M7mqtg2KOVWe0x/oF7tAprnnhfzx1bcdU11ScF2Z9vvpHxzJN/jqkf6tlwmnvExHnQqtVpX9l2l3jiSa3W0xgi+/wzT8bwoYpL5BYb2HHLs3XU1N7ZEQ8+8lR8/Rt7iiyb7JjJ6QtrrRU3XnuFCKspmYl1lAcS+iNPbgV8+bUJcchh34/7HxDxh339Y24Rl3Z0pH8k2fRC+BEb+UOGz9TtuyZdpZNS0uO1nAqf+e8Vh+rZaMP1YoP1N9BtrqP0TLRl9Nw05S2ijHHLN89COoGD2mXfecorgeqvmfPi4DTmG40eE39/7RXHNFNL3yCxnvjzw7HAPIOjRysHZ0Ikyu5Mxc0qWM6FzvZBwqpTY9nqvJ957q/x+GNPxqOPPR5/1r9nn30m85SvsqILNGRa35pXGnvmDNcG+oGDc3aQbns++r+/F3vuvovwyLfMGmP8SwZBX/9khXlFLsDpPNXLdYdz3l4YI318Dgpn3zar/4AomHBeo+wVgGgQHH6wwXhxZOyEofZNxqvPWMp33ubtoIx1xpY2UMA3sTK+9gl28uH5r/bSRw5cb4pf5qJ965fcc0xzXusQw84dGc8fx5IrNYcMq+QauNStIlARqAhUBCoCFYGKQEWgIlARmL0R+HTItSm82ZEi2XWUEMkSi8KKwjRX+1BcZrEGZJRjFGWlGFTt1hR1YiBckGUf1W32pX1ILsgDLJjgsTHKOYrN9MFvYyLl+E4B28JvIyHzWSRyTBFqUgN9DGAFWbUXMgY7uYKMAp4tLSUxYCXnRXyZSNrCLnE5DvUUoo/IXSRLlTIXP4XIcz5NcUwBzu2UBFZig4Rkczz6hUjINJN8Sf8QFvnweN8qJ4GiV1bW2Ii+chWLXQyET3uTSinyHQBtdDinkhv+++L5v72mW0C/nAV8/3OvIE0yV4gZiB2CtWknpFxYkaMPq/4gRJSQ25ACWT8/yvuMM2QBc2NgbNQVi+klAmecflJ8YfVVFZ7IDogCVkPl0JgQYDzJJceEuGYhIeXJWBOYfGSKjbKaiAVc8S/vXqXJuF15zc2x30GHeK5gm9DfeeNFrcz7MO64Rw/A33tf48FKsN133TWO/8kxWoGnZ5kZE86Llpg8tTs223Jb3Zo4wbENHzaH3qY6Luaao11jrNVjihMkiL9FRNw7/3hXK60u0Uq3s9XG+VPOkba4+orLdbvmCrbbT1o1A5lYCGnFyFzoGDxct1neFuef99v469+ek9335CXnASvIJNIQg3ICqQhLSLvmo2OBgBGhCNnWLWJrrjmHx2cWWVjPH1sqvrD2WjH2a9vFiOFzRBe35+ppaLkaEhzTh+e5gvHoZ7P7ylchZMjj9LMujJ+deprGUSSa0PB5pLw33WTjWG65FW27TdjMN3IeE0A8o+3tt9/2c+Pe1i3Jzz3/XDz99PMaCzBsSCLpl4284Wy5bmXi2WPoGHs6GQX9fHGdL+q5dMfGskt9xkLM73I+8Mu8IGbym3WTZ88fzHGu93dLlkg4tr/+HZ3jkrN7f0kA/JHX2JjoYqfZsI8wNhgfbz4Qwo4xrxleZSgfuHFM6vO1x7ZSj4iSTOYcx2zK046WiTX03d7oeM6ov0nGISh+zkUIf0hJNnAZpNtC68o1w1G/KgIVgYpARaAiUBGoCFQEKgIVgdkYgU+cXJuh561N18o1VYuqu5rCi319stTKQrIUmLRSbLngR8I6SEqDYlH/IH0o+tl3UQnArtXyOFd2ULrKdrOyg32KN9vRN4RSKkmRqtCFnn74naV4pAJu1WoWbmYd2AbycNyoo4guX/32KEmzjyI2yZr0C0FDnCa0Ch7SM8GkvswTXfYHyCnywEfJO4k8cEnfLnQh6gARScLSF/L4L7fWEjd4oFbesold7Dv8Ri+t0KMGdfijxoyiIftoLw041X6Jx/ZmaYPQgty44Zb74oADD9Lzt7pEijUrfRQjmIA09jCJZ8HTkEC0K25ikYPchwjQfJAW82KmVjtRnHs8JAvB1tXdG/POM3d8/3tHxrZbbxlDB3V4jnk+NDiRl+3adzM2niMOIr/wLb8m5SSPX2LQn+NGiOOyYqdoMpfvvm987PyNb5o8yFvnIu6/5w69MXT++NUFl8bxJ55o8ot4D9ZLBw78zm5aYdfcrilDzMA333k/NvjSZjFNt0cCzsh55on7774t5ho2JNoHD1U8bfH6GxPi+hv/GHffM84vPfhw8mS/+8GxKUMhElt9eUyce+bPFGuvb6NkjpWVjWBQsCAvHHVrjCAg27W665/vvhvvTpwcTz71nFcRdmu14KT33ol339Wt38KSXJnDnXq23rBhQ6Ozc1CMmHtkDNUz2VZcfulYaokl1NYeC+nlCB0ap56eLvtgGCD/7D8dA+YA+afccmWXxp4Y1Wesmev6mMzULcff2f+QuJ6XRigOxof5BNHknNQGOcTz+nr0zy8CsC3mDS9kUB8rrrjdVwFxGeAM4e2ZvV06d/R2zzwvOZcJW/YIR7Fzjnre6Z0Mn9Vz6I7+wffjC2vollutx8xbdJUZBJPsOVbFgSKpcm5iF+KcF0rQX8h2clSXZHDiP5w5zkKEuZ02ZEFH+6k3IDcrrmAyYDfJu7w2EIeicu5kTnz4x57a9YVcv33tQ4L7NnbnUwJMWevKCjaJH72PbTokV1Dx9Yprnb1mDOrMt4Vq9VrdKgIVgYpARaAiUBGoCFQEKgIVgYrA7IzAJ06uTYdc08o1lUsqriBAssgyCaRjNkouF4au7CAtJONCm07JUNkhpJ/80oH+VAs37e6gs2kvRSB21WRZZCjjUsXftDfxlIISmYFCNJXpQ84rObCiZoprbHnTDkW2/tyIF2yUAtkdyPRrZMFJsckniT6UIb8orrGvFRw4Qse/WKcDGokm+tyrVuJTb1O8enUJRTAC+uIYsqEQa/1Yoy/Fopfq1kJTW/qwvAwh97/lOcY3v7nKakAv5YmrWCKcUqi36vlo0+L8Cy+JP954Uzyl2+6SMAQPkRzCHPzAAtvMA+dgmintMIcghYiyW8QEFJsJB7W0i5hadullY0W9xXHMFpvGlptvFjO7p2acIAihJB8m9shUtrBDfM3fwJxs2vEnwTxyXNqVVhK4eTugSRC1+XmBloVYaI1uEbRLLL2SVm7pZQz0S79DxMQ3v/mNeP75F+P+++/37XW077j9dvG9Iw6Kzyy0gO0zP3ql98qb/4i1vrCuSRw8My47j91JJFxnvPLyS/GQnmM3neeS4Vd/Jmk4f+Rbjb4bc4XlV4gbdDvo0E4dQ+QIY+MrhSY164Ejtzh6DBUTtrCJDCskTQwr/naRZ8xrE5uSAzyfGw3rBB69fl6aXkAgYhUit0NvvcQWX+QratJxtLXoVuXmHPCcbHLgZQ0QfBA5ZQ6WuFM/V7z2yfYPjj0+fnX+xcIf4kfUln6RURjKQV/Kw3NVjbSZ2GLAfVKVmMgV2WyG8ERvrjnnilX1ttH7//QAWdqHNTQvBg8e5Ntax47dMb6s241nTPlAtlldKTvafA2RvZz/Oh8V18fOK2OIHIQgfciCj/bVxrnlRNQO3oxHuwhP7Xojx1z1RazZRh94cd7kGCGsffKRPXBgRSExct3x7emQizmAqYMpfCpHYsFP49J6xGEMC84K3O4laFnPgyTwMEXbwJZxEVMhQ4vxMs71mWsDaNW9ikBFoCJQEagIVAQqAhWBikBFYPZF4FMg1yaKXNMz11zMUUZRYFHYqtxrikbqTxdToh30pPEswCRjwoMqs9HxTh5kAZeKLhLRLxtFYynOkmxJv5Ap1KgcmVBATkUhhatvndJvKXgto0qPoi83B6mYs9CkWO33WapNRIlJ9lErzVnc6hgiSD7yIynJeMWQfk08YlPapIwO+1714v2mEKVPK09c0Krduboti9wsnIWh7RABNlW8cvuoYrM8vcRJAEgYh/SXMom9c8c3cvoHyUOc2nFuiY3adQSJQUy5pR8ICW7VxJXoMkLxvz5ikSwPe+e3p7dVD4L/KB5+6Il44e8vxhuvvxrPiGx77fW3Ytq0Kc6la4ZWOFHgy54bZItVPkOHDI4FFpg/Vltt1Vhs8SX1BssRehj+arHIZxaKwVqhNnSIiJwmB/IoK2hICZzx77npeabxhtgQKZM6JZuMGxF1GwNwYtUhxJpXJJFbwqmfHCuvDFQ7uLRo5dWJp5wdPzv9NBOxglJbPruOlT/IQFiRE3GOmGuECJvBxo77EyExerRK7L2J7ypo8JU7CCE2HfjZbCY4mrFToF5pJSKszc9564tRq68eF1/0a91GqpV7CsAkigaF0Bke7JEXARIDzybjofw5D8gDMoZ5hE/mIWOecwI8aYOk8RzBpho8r6WAPc8zmo2T4kJWn0KU0cVmOcmzwg986UcWggqMPM9ko4E7fVgxRNhOjy222i5ee+3VaBduejdEdHd1KxLha+JugCQiEZmWbZzKnp7PBo74gUDk3Jxr+PAYO3ZsbLThBrHSisvGvePuj+9857viZvUGWBFqX9po/Riz5Zdjow3WjXnnnkMYCh+MOTOCyny4lilQsqXFOXle6KgXbBq5hIbvlAFrXyuZ+3wKjtjSv8QQ0+gkIvhPrME286DN1xTiU36+7km8neTlxKv8IPQ9DzWuzZgRmG3Jjlf1eSxEFnvOEjWR8k9j43jAV4bRb3yljI71yTiYQ42WfhnjjD3jRj43vS1Ubwqtt4UWPOpvRaAiUBGoCFQEKgIVgYpARaAiMLsi8CmQa5OCFxp45QXFFUUmRaD+kpChoGraQEnt+ZMyrtzUQFFGccbmuoxVKPor5BmFnwt/ZCRA8VaKdnR9rKLPRZ1ZCfRlsSEUXPtS95bwbAZ/anCx2PzYbROLfOAf0mFWX8RpwiYDlZ8s6CluKWLRllKz2k37TTEq0+qRLRMIliJyrPUXrC56IZjw7XxEcqiIZRWLVxcR8qwx6vBjm/pKzvYmO3k7GvoUuZgmhizC3SCbjt1FuSLULykgR2zEaDqPPLQPhBwTH/lmnIwBdhJkky7YYZMax3R16qHyLVrBJG7DtxG3ixgyCSWjLSJeW/p4K6ZW2zRkCTi7mMejDMzUbYYFFyJhmhADBTwrkEwUEbF8Y5k82eEIPeS1g7P81aEJS1IjV7UzX+1LvvOYPvQhJZp8Zd8YYsbWI7p6W2LfAw+JG264KRkdjRt+0GP8OB8kakK1B2JC+4y3CUo6lKPjZDWQRHPeNbHS5hiJL2OG3MDgZxZaKPba65ux797fFHbT5K/YAg/8lDmeumUuOxhSk2FDUvZlUy2ev+kUhxkrcXulF1qEltr6xnbmihn6klh20CmLGckU/1wzeP6axxcx9dOXpFTOOXKkC9w9gXQ0tbsv7rrzvrjvTw/FxInvxTt6ycWbesnFpEnv+zZYUb7pX+TbkKFDYuR888XCCywQw7UybbhuX119jdV1u+5n9LKMFWPeeUfIbLeef6fbRgUnz5t7RisN55577lh7rTV0EeuKGd26TRc8NN8Yk7J5Pik4xoONsfOvcQDB5nqgZvBIednRPLU9yRkPzVHjPcsxGNBWNsaxDTLRDlBnD8PMqQZ7+izQXLM4yRBRM1elFKetiVRNNHoeeZ8j4S6bSebamNssKb18GU3qebx9rcIkOeX85Ry0B8k7L3qw6XOHeY2+2hTfkOHzVnIt4ajfFYGKQEWgIlARqAhUBCoCFYGKwGyMQIuK1ayQZgkyi+D/T7MlKADp///bZtVn1VqXyDWIA9q9koIC1PsU/7lRfGG21IR4KEU2bfarNvZbTbigh5TKMzXSnnERN+1ZvGODzSRYcxscx5AWFHl8cpUGQlrpQZHKKhmbgAxA4v+0dy7QllXVmV63qm69eCMQHio+CIooIgZbRPARTXyMdCcdbRNiR0fsdIixo4mOTlCMihpU1ETtmJFoEtOtJD5itJNo2iTt0CgKPhADqICAgAgKglDU69aj/++fa56z6niLUhPsusXc996z115rzrnm/Nfau/b8a+19om05j5lBOtnRSAhJEskb3Y1kaQsyBlvYDr8cN4+1dTLAfqPkhBI9GRkTYcpOQR0YHngzDso+xYpOMHWirWF0LD0znfaDn5HEdwPqssfV/SVAYkySEDzYnBeriH6+N8pJsdoCFVbGhB5xB1YYi6SZhN31srGVd6EJV/ckWdpifFVF7LKI7dDUEQ7hhn2UnvZQDMZTbdtUMAkpXa/8kSxt4GxCSgQl40D/9Msjb45LduKdbLFiMdrxXX31jfBZIRXMXJ8rJuEinhCLsSZm4yYiwKQjTquO+Z6rIQObmDdzei/Yp86/sL3srFe1yy67TMQMq6qEpnTAGQRkwL9zEEsAzFSgzk30G9+yuULxORbXy74e//SKqlWr9b6zvf2NoP/paT/dfvxxjxVWGzSGEtSfumFnrLAMLp49aoiVaEE+uU19xCUi2hgz/iBCtoqMZR9EJXYjxsAEkhG3iYuRi7EFC8eo/pELbOiJCNVHxi+7jtktDlAlaTqEIAWxDRZe3WZ4WMklPcl4hZusLdfqv60amwXhzHhCVELYsVpQ3YU9Ta9VPjf1DrqtGg914hVh3UfwgejxylOfl1LkGhEB2r6/QViPWPLYK9WJhcPho/vqxuxYEXm+ei4rdl3X6BsZbBgbDjkRwYbzJxq8z2tqYDLnmJhzgUk87tnRdtzIAQ4y0YfmKX75hzb60ZFPMvlGzFaKPV2HjKXCP1Xykxvy/DBH4HB9zqHFeamxyfMwCcR+mbOtWMEWcWOHubVy7X4i16bvXMs5k/0ttjdu4ex3NZd+jul3QTOpKPy4lk3n9AQYFWr+LN35k/OafW2FQCFQCBQChUAhUAjcFQgsSq5lR9/LjWTKLrZHf/P6W9sG3rlGEqb71SB2+t5JI4kaKVuSSST6fcsb3B3uhZS69WPsh48k8nHTF7bozoxEkAWkf0r2SPpQdvKoTlLGxFbvNe3knuTQ30IpeySHiNm/7EhH2CXBDPv4rkbJ9xq3kWzmt3HSZj/QUCJLX/qQXNjGNDeAmXjTzJYJexIK9BOrf9xqO5NYUsdW1Y9WNtmeCEa+bdNJLx1pwz6kBKtOSGjtviqJx4QWPjJW+iUpniTB6NqAPiTDDzXEg80YJ9Xxi2A0d4/6MZXIo6k9RFXoRoIehJ986bq+MaZMBYLuR+XeTgWes5mYwi/JQPAYU+lE6/BJUfaIMfEkRuQTT8bP8UmWbgM/fBVC9gETNhR9q5KVgJPHYSUTnoXNOb0n7fIrrmqfvuDCdt55n2znX3B+u/76GxAS5qHHF4Cwcm+LSA7PQxO7Nu95o5HymB51//u04x76sHbEEfdsD3/4Q9uR9zyiPeDo+9lfvnGUd5xBxCBPnPyxIyYd6E+dauOY95pRDe4QVMTkVsVDrMyPGC00oy3mpa1bj3lmPYCRNDoQh2zgm1hSQ+989GaOYg4w3+xjjH2ej7THmKAjGf3xw7kZ5wt+4Gv4EIGGLXQ9jxWbNxyQbPfCtsKXIAR9LqiVfRBZ077BL1U5nQ0uvtAvo64+giyVjsrU82ci3AqgR71UvepWxBznnirQi/OAGCDLZF8bvuc8NgmqgSL2aIw4/KgyRqNyuusnIONinBhX6iwKkeWubS/nMeOEH2z4blkdhj8RU3QARjruB5btOtiyBZQQiANa/Us8VE7i1VEIqV06q/VlBqv1jaE/yIYfEcsPoi33Sr/wY97+gFvNn6Vx/uU14l87Xj/gNCm1QqAQKAQKgUKgENiDENiBXOMmgxuM2ZuM8ZhyJIiZSk3RWEyfR0I3aPWab1GdT5F8BmmDLa3/MIFDIkWuF8RXJFaZnGZSJnFv2CKppL9Jn04ERRz5/T3UR1Ls5M3mIpl04iv9rU7qyN+mMefKEMgCORK9dF36nCa2sSrH5I37icSSeKRoPX1k/ug+qHa77SGFDvKZxGmVjQgCZNJndFjJo3VEXnWUq0yciDrRBsuwQrxeDaL68IIKbIcfOJPEWOLmznv/o9/4QFIfpImMyBCfgMoL0FktRQ1+xoo2WYeMkv90nh7YDhVgiQF8xg8V8Sv8ULXIIyrzmL0JmL6HMDBBJhljKH1GJ/BQnezCDpiA6u8vU82EGMBe+mU8dJAkUfSjFUGqo5/Neq+ZV/aEl6rHNTvX8YDsiDnDyrnl/SX7yAVuhEmMYME8wgC+0Y4eJF8QTI5FBNzKVWva3Iq1XlF1xZVX6ls+L2pXXXUNLvnbNPE1SD+RqervyHsf1g4//NB27LHHtn322U9k6YIwXGibN+gLG9Tt/Py8fcGnIFLwgT6nj/3iGP37XNa5w9gBE/KOo+PJMbLMs+mqI47BhLFjRPsjntpv92on1VtLIh0rZJnfrCDjEVhbdZv01YflLJPvggOvwGrip7RYfcfq0cmG09qmsrIn48RFE7q230mimKOah8QsTBwrcrIRXFPEn/4F6ax+mduSsm18kD59BmEe5wuN6HEN4t15xBT4CGdWlGlObNH54/g17uO7+rju4U/0wTUg+tySKz57LNhknrve56FUtIECvsVjmchgy9a858P+COt8zxo4Aov3xIe/igstroU6lE0iim0oqj9mBG2BCft4L57mGatEZS/ejycj3W7M+2yDuItr3oJi9OO/zDUC0WaCUQer1urdgyLY8J1tMhdGZ9wS8Xm81ZbyqZPHpd/P+cKvz5rpjjlS84fzuc4f5kJeM6YzpEqFQCFQCBQChUAhUAjcOQI7kGuILpZ85M1W3nymydnjxfRNrq27BcN9hUYkV9zbky+RzPFHkkpmFYQFj8P1hJvkzWWagyBY5ncLkRyTcOlPSa6kVY5Ej1VavECe5Bff2Ujssj8TCqomSY2+lVjqmIQuLJk6sDwfyNAXfy6rL6zmJ/bVs5PFIFZ0LAE8sj4rjpy7oh+eBkEVyXBIUh8Jq/2TnHFX9ptY0anjkWESdfJh+rM+RIQqEqvEAxes08U4znGjH+vbhuTwzUk+mPKrY8XsVTv02H1JG4E7R2ETP4IYDD2wIsk3JjLp/kjo8VN9ekWPZOg+HvUl1ojb5IB0/E402WesYAK6q8BKrzqOMQ6ihHEK2/QxSe4duxXkcie8pIsNYlbR8dq/ABnj4ZeE0le321/iE/ggJIfAJR+hoyv7mnraewWYZGyQft2humX8IKPY45ZE/CUPsiEazXYhaZgzOa/YQ5IRN182AB6BifzU7MU2/Zuklh3C8ao1Yx6kFPL4BKHB+CLDuEGo5PlguwNWzAXGxFjYrPoINopejKEiMb7YnKxEUjm+sAHP8BHs+nmgrgNHYqA+YrFPOCUycvoeQB6BhbjBT/rBkiLu88k2ZYMvb8D3IAU1Fn3OyLR9ZEc7ngA8OHo+eh6gGxiBs8cRtS7HNQp8pKmzzxbtA75TaY+0NxGnZnyLc1J9yHf0jIFsMD45n1StfoOc8vVFY9WdNFZBJhKb+pdNHrfEjpzxOdGt4qhx4Vzye/Vkkz5tSzvji9tU6g/MmDM2SLt8Yj7mY/eEhbjPY/nP5hXAkqMFn8GIdozbnu1KTm320W7GmHtcVe+5xqTvvngcVQ9xqp39iMbm961BsKEb9iXQt9ljqu1Tv76knH0p/cLP86vmT54Xdf7ENSzxYL+z6wfX6toKgUKgECgECoFCoBDYFQIm1zL5YM823nRl+Xvdz+oHuXbzxGZPueglkjYSNd30OqvqfZP42RWSd1I0J2FKysjhuMeJauvR5ORPDU6InfiFTIplEsfeMaoBm+TTNqY9CaWJL9khYSThMzmjY4vp08ki/akcK1ogM7BFS+hjj0QapUht6TSSbJMckiOBJ2G339y0ScT6Chq/on/8U0+Rt+IoJnvCT6/ErZVTSrgzJtvB9z6OYRV/pac/VusFPPgka8gGCC5jk/5poy9HJYUwR03UJVk08R9J6yERdmkjxkm9XQ4h/CPGWP0j33zjStKtetkK8gA3wKMTIOBFe/cHS1v6CqEkQpJoibEL0qT3CDQe75zHEzuaYzKrfmL8sp7KIKiIP2xlTBAMxke+8OMyn90O/eM3q/wSA+xDMvnbQOULbaz0YXOcwiBIM+liUw7js23SD3iJWGHepX3kg7xkhIPQCi1iij/6ZzMOthnxJK5ulN9J/gAScU/16TvmKG3MIVYrYjAJLGRNUKnNscjX6FGfFPvGXEuCLEgn+d/JQzA12YR9z+lQ8rnC/JCP4A8hmOPMKICLOnVbxCpBnPNvj1U1TPMuah/j8dTQD7In8OU9drYrA5N5JfvuV/3jBzFOjDE2PqRD/UkA/9iIMeKXHxCissn8wl/K8YkO5wD1/HafmGOMhQx4HrqtdyF545w2kKFOf8i7jTjkR86ROV3f5phU2oiLb07m/MMXtpgPKuOwAsKi7anNY8OY4A/EHWBONo75DxONi2y5fx2bCJRYXuuwxvz1uE/GOOTxk/fZ8S3Cnodq5wTAFt8Uukp/k7gyvp3scStlx3LW7Wo/6ozlXell+6gzlrN9V/tRZyzvSi/bR52xnO272o86Y3lXetk+6ozlbN/VftQZy7vSy/ZRZyxn+672o85Y3pVeto86Yznbd7UfdcbyrvSyfdQZy9m+q/2oM5Z3pZfto85YzvZd7UedsbwrvWxPHfa55b9Juace+fj3PK6JKbvYPvXYx79zcd1aTLbqCoFCoBAoBAqBQuDujcCciJIxU/JNB5BwI7HYNnuDMSvHTQtb1m/UY6Gb9FioDJMdO2mL1LMnYu4nkkNudkgySfR4fIoEzQSXEkXsYdsEg+pVMUkmo8yNTxBNyE5WwJGo0atsjon6dxEkEzk7H/4KAifYvX91ah98g0XyS6AkoerPpIySziQIiIU2kyH4qj8d4ok+IAPCX5vQB/7IOL+E470LkifSINxIZNWv++uEh2TxI/tHEbLA5F9/PCtJDSe3kibBZYsbUu1VJk4296Oy0aXBSa6PXJbnjsE2sWOfuVFlNRV+dL96PFhPrCPR5tHGIEjcs/qgT4LAh5ThGI+IC6z4gXgDVRMjJOLqy4+patwxEeSoBMDAibzRnuAFbviYc5QePOeSOHC81CIXf8wpeA8TB/SvesiOLmpiBT+NpWJObE08aZyNB7bkeKwoirFHnjbiZYuxYS4FuRTjgV4fL3WIjmeDxsRjrDltOTsTsYCt5SwTMSQhJwu2n+cCxzGv7IJjBkfi0UHHCeMcAlzsHb0FFR+kCHNSMpBM6haxiEfxeWwxoI05Qt/eJBTkYsSIkjFzJ5wL0ZfPaSvE+PuxR42JhIM0pjNt4EBfy/nWXMah2/O4CFPc97VFsoos4rFmfsS45ryO81dtMkQX2GHDxyTm5DnG3M4HbTGmgR0r++gXGz6/7UMfMyn6PNbc86gSj/z0fLHFsGEZj3O0eb563tiwjIcdvPAXLPh8iXjTTzxnXvCuRcfhUELf45+mJOetH3Pt9Rc7KAhwp+x5J58DY40l8xeM9Je+JbloW/QFCIohIEQWrGLOQA7bHerUH41gkLZW6X1rEGy5GY8ef4wtzk63HCfP12n1pFT6O87RWZwKP8/GRa4PMYVq/izt+cMo5hyfXBSGwmLXlKE5rtnD9Wdsq3IhUAgUAoVAIVAIFAJzeneP3pseN5SLwcHNJO0pM3sznu2L6VK3Yd23Ta5BSJAwsfnxMiWFTqaVGy3Tt3A6+SRThULp7jgno0y1K3uy6grVRVrW/SM5U1LdV43Rmr6G75GE+bN/UD/1P5I+kmt+Ml7sRD/URi6peyv7HsRE3GyaHLHf3WGEVYyqIJyIMUkAWugjksjow5rSS3JMXvR2WtxqfduUXKwCUSGBYqx6YpoYYplNvTkul5XQ4kt8s2EQEWkCSQgeHzNmvMNMmCZpAF60MShJdnHkY9llnEyiuD8O7a1tTogVPJENmRcJIzsQNPphY24kYeY6jYdMTX21f4yPu7QOmtaW0WliThw0g/PUZxujWo1eoRXcgKpjLpiklF6QfCT5PeEntu43fWObfRBC9BuPIWPa4wK+2GQ+SS5JVpNh1g2c8YdVRIx1bEGSUY8Pea7wKDQEh/0WXkgzpn4PGkBqQzY3sHP/3VFk2bAZBBHfmMnKOggp6REzHw4OOWLSWMK9SzXGEZsaK7XZN8iWyTmNEL/SUR/IZ6z0G+cKeHENCDus4mM1n8fBMnbDH9g3mYMyfmkDQ3pYWOC9fyJhVA6yLUi89AVZwvaqOBE2ESO+igBmPimuwENYx2H0iSJzRZXoECtwgJdh6Vh2dywTfRGTBPlERwLEjg2PQ++NOn4cByFJBSxdMHYq6hCZ3ALv6TwITNWOfxZiP9Uw8asJFzXa44fk0pew6457Lz3WiRWkmYOsRlth8ZyHMa792gEgIerx86pc4rXrjH+MFQbwxd72+KnDH+bX1i2S5fzHT2LqoTOWxMI3hUKu0cYWeLk4Oc62ae20NLFb+hO8pugEnoVfzK0RlyzX/Onn5R5+/uzsHMjrzZ21x3+I5IypfSFQCBQChUAhUAjcnREwuQYA3DxwI5E3k2Pd9wLQzvQ36ptC19+ux0KdvGGJ7ElH3KyRibnfWJUBQaV8SnUky331C+36ITk3kUG71CBk2EYyDHMkbFGPGH3pT79BRGXSF3XYy9VE4ZNEMSL/rK0yhEXExkoZHTuO6IMQ2Eh4vQpHeyf4qrcZt4Y9/MesyR8SfogCuxE6QQqpwmKxesO+mAyRIdWzmfBQ4pmPzpHwqlP5CEEV/vMNk5AGku5JcuCNT7gR+zDoJFaV1GfinisGI7FXzMLUq0qIHjUbAY0wRlcen76P4/AFG/H4WRAQJMzGAqw6SKZJBEcSlEmQBe50x9wkRndufcY21O2FfaLfIGkjXqTZoj7GOuJlFKPetk34RPx0wZh7XY0Us+/ALI712XENOws87qmVQdTHSkvmLEdg0Pccd9tuU5k25JEjZogysMez0EdIhz5WnJ4zgZsipMF6YEMvce7SD2SF5gjf/Cnf2AIv5nOQgIxDLjNjHLBGncknysbcnU8wiDqsxcaxFXP+6Zh5Qn3YjzFKv7BmspD+0PUmGZ+HseqUeBUhDqgVvzjPOUdiHno+qQ/w8lhbjOhC3vUAq+Pwl75swr7Sv4kg6edKKfejejbOJ+YnJhyHyjFPA+PwXxpgLruMwzatss0VdtRzbYLopw7bFswYZM/Y0JdiwjVfVzy2UWey03r0gx/s006Ufb6pLq8HMjPx16Lo05d2odpx6Ocw7oMzdsEMcXrIT2M3PVSb9MNk+OT5I4Hum3GQPfZUhs92QSZRjPHyHNMxUsiBN+ckX8LhaycttHOdkF8rV+/nLzSw+J185FjHXOvW5UTgdieKvan0A6vCj/Ok5g+nRZ4Tuz57prK7w/zx9WxwevRpqN6hmLGmbM4BhLJuB4VFDkadRZqrqhAoBAqBQqAQKATuBghMVq5NSZYdExJuLDJhzRuQ8SYibzx2pr9Rj4RuWn9rJz2E6A43rpHccSsbqWuSBdzQJJkSuRkJLokksvSpXx9TJknzph0pMrbIFNMuel6p5WTLkulGHOjTxJ6SuUhaIQhIBkkp+6oj7Z0YQiRgWb/0HY9OQWYgQFJJr/gnf2Vji5LseR7Jsh5O0W4R2+YIu9u0gkMKtmsLEsWGMUcSe0rWra2PICJD3n13o+Gb7LHKyVv3CaGujAsT3FSvpYsmGiKpZ/wjfjsopXjPUpAOSXBmfMSFXvpg0oGunLCrwKYy+LNih3lCLfsVkD/yM+cVopT5SzIlxyXAClzRN0GHAiOuudJ7cj1l/MAGpKfxVX8xj4UzfRiMbcIx5hXpPv1mICZJNH6OD79lz3rRuYkG5qTHiHFTfcYxmHG7SS4RQu5SOu7HvgeZEgQJfoAj874TPfJ58ngrRolLP8SeBBp1xgu7RqF/SgaMTfD0wWGFXHzjp0jBPhZpk7ke44+b0u06HDFufNFCBBA7JzCKOfpQeyfVqMefWBWHv7ImWwGbYlCb5x7+SpZNVbLf/edAOhKyHLaMV/pDM+3sZZR5Zdx0gF1+0rc8f8Er+/d5qGP8hsi0bbV6VSC+2jA+RR/MvxV9hd7yea1+4zxldRsGtSGG8eh7esycY0MOWzGuxELM0le8nO++LqlP8EbOsTDXbB+/ezy2RaUbwk6f48t0fbE9tWHfLtlezK88F3OemUBUTPSNMP3mqt8Jnu4q7FnPgahSKjE3mC/CQ/j4/FK756Vj0Zj0Ntylnfi96djko+LHLisX54Ur5yFYupuATuXtXrm2dp97uBw4Bk5hDPk4ZjxpT5mxPTANuZQf2x1/6Rd+NX/ulucP14ddXT/yejHu81oze/0YZapcCBQChUAhUAgUAncvBOYWFhaUb8wmcFMQxhsIapFdLEFxQtvbp9pNxNotbYNWrinDciIXSVaksCRjmVROHgVU0kVe13PTSMDVZ8gl6RCEjFeRIJ0JHB0j2xO3rHcirRso7NJGTMosdSQ/tMqLdxHxkvY5EkInWTbjOEkAI3GFwCHr6wkccmpzDKqlXydxNhukWybS4cc06XUsWJK+fe3YyIjtk+BSAgO5a9zim/Qi2VaNYggfIxR5RnyKKfvMcYrEUraIw2OH3cCdcLCo7mLTMTi4d/pVG+TMli0L0hHxyIqcLixTTq6xSd0EJxyy9/gY8cUcUic6jrqeCNsByeTL/YkpurWvyGItCC48Ddv0HTHEGKLluGlgwweVgRV82XJ+5jF1iBEXZEP0BN5RRgs86YcyvnjrtiPmIDtjxRl2JEl/7l4vwdf7v8IO/mEQQ3bNBxOCS/XgR2OupuIswCcIL2OO2T6GJhw1b5H3eBErh9o8xoyRKnI+4herGfkGXUgkkyqyRZf+Vknphb4rHAe6OdY4Hquwwr470kdiSp8uaw9+dG/bE7upwXjEHPXYqrvp+QgIzBfwpx98wueoM4ErbBkTyGDGzV8KIYxDOJTiPFBVx4Ce0w662Z/HlY60BYGmyRKAqCYaNm/a1FauXOWYsAHByDvdZEQyOp+5HMlPjz8rF3GaFs8plXVMDbr07cdgIaNUR32eM4wrFXE9SHwSK3SRRn5Z26xHYvnShfgiiLgOWld9YDjmd8hHv2hqfHCWjjkSjoiHE4GvVwJbjY9pn8ZLNZ6fUoJM85zEp+hGO9kfiDbiDpwjJkTjkd7wDyx8vobLJmLBxv4xdXMeKE4eC81vC5UbxgI8iC23yfzr7VnPPjCY8ge4cgAALGtJREFUyiNb+lM8wKjw69evjgWY5FbzJ64Feb4tlfNnHLc837Muj3OMx/mfdblPnYyf+sX0x3ZkZo+pq60QKAQKgUKgECgE9nwE5jZv3jx559p405A3FUBAPdvsDcNs/WL6rFzjvWvW50OJE2kRyRdJFkkfermagZypdyep6Nf99ESO5Fm3e8FhSNi2sKP60Z/wlRtDJePoYneS2Ecf2KGh96Iy7gUJ5wN/iCgT+WbyQH3Qsb9ZFKMqE4/jlp0kYjBILovtICiIlT5JyqeklPWIh6DBQ21OPLHV46E2xsKNk6Q6SIrwHYIFAkpq+gURNqxFPG6TA5MEGtzwZy6wIdElec4Xnru/ro/jvJst4+CxwigTByuhIqbAW7JeOyjj4M3Lxuw/ZVURp+0GLsRPnK5WCySHve9ymYDbBwCVPEQRcUAQgDdbINdJAifmYTfnA2QAK2QcYycHJo9EssJPtkHS3sukiQF1l3PT44QMtrVCK17sDoAOyj7gCsQD84F6ZIy7rcZUwVOTVBor+opBoHuVuwfYj7GnitFUzODC3FMZOfpipQ/4s+ILsoXNVic4I408ZqJdoKkm5pbfVaY2W9Q42X8dZcz4ZIIqDNCrhJljyMZKNZqwgA77LfIFEgVb+BkqzDH1Khns0d8KjQdQIRdt6ku2fY7ZZeHcz5WQwZR+Orb2XfZM+Ei+q9g+cp4jkuUHDBgmFflVn3xKh2kbRc9nz3nGrc8tnMM+2Oe1iZ6IAz84V/I4Y+C8QMcy9CcbzCU/Kiy73sBCP3QvUcePv8wXj5edxTU1hoBt8Ngxc545lTGAV6z8DMx9/tjvjFN9yh4mRSuGTY6J26AFMHHNc4W69IyTAELa0JUOferXvhCj/8OBCtuK9ly9SPzpm88Dgc31JonrxDq76EbU2dCH7OLR2r3v0Vau3R9PJnH7QB/gzpZ45DhkXbbnPuWspI/Z+tKPcSz8Yk7l/Mh9zR9O9uk2i8vudv7gafo49XrHsaU+x3XW/1FnLC8mT/v3qj/aqnIhUAgUAoVAIVAI7FkImFwjpLwxmN2PbZST1KGcNxmUZ/XymG8KXb/uZidbJGSR3jsjwwKatkMSarKkNznh1GoGUj2SRhJCJ6VOYCOZN8nFC9ex0xNAJ6g+Dv/cY+RgkmOjv67v5JRjq7uV7qlwoqyEmGP7poSSl7tjb0ICSI4a66BH4qojYt+mRytJLNlS3wdqN27yKXyN2lhpQ9fyDYO0E5N+/HJxJ+e9LLuBvfoRbshNiT0pEhCb9uEhxfCLMaBsid4PYwLZYGKAHuXCJFG3IISjpKZZ+cRejFnglWPuvhwAK686aSes5aa2KTnAETreM/4iEEwkyT8IFNvGU4l4rLvvVugfEu02Ij5isD3bVSw+5IN+GEOt9oEciMPATQde8ST7bPiPHyZa1LZV4Jj86OQQNsEdHVYUBuEBwcFYwInopfv6sgCP/+QRwmjDPu300Z0z6SA6IsgHbMsGj3C6D8kFuRY6zAXGAd9yk2Ur4Y/nygTrWDHEN+9C6nlciNX9E0MwTDkGQaiBgcaiz12Qy7ng00YqTAOfQTQKU+tLjZCsDQgqQbQybugjBzj85BgpIh+jjwr9Q8IkLipZ1vr0KQeCwAqiDjlsgVP0bIdQozfZ5sPo2EfHr/nnsaQ/6SeZbVFphE+yKwO+VknGK1s7uZUEeeCJeTsce+nQr8/Jbgv/TESxlyztSb7F+OpY48WL/WNeSIZjHpMUyL5mSo82bDHXwn8wjRhM3jFe+CIZ26VNP4m/x1x1oEFZOx/Riet0HISmtGTDttTmEVJbYMU4TfuN62iMLWPEN5Ki5/i1j8duRbrypQWy2a2FmzpO7IyZ5YkbHDTOfZxYtTauXPt+//1xlLLtmHVQ+tPrb2IyYuQ56vNiilnWIVf4FX45b3K/O8wffBi3nLP4GNeZuIbl/B19T72xblY/27J+MZ2sY59yqTe2VbkQKAQKgUKgECgE9lwE5jZt2qT7gMVvpLM+9wnDnR2PbZQ3b/iOHwuFLGMjryM1nyZpOqRJ9Ul6IcFNCYkWKzbihih0nKh2WSeFkp2srJAd6uhEi7JEAkRcdI09kkeSVPyKBE7KajMRxmNJ6EPeqYwM/WZynDdJQWD0BFPqJlbk/HJ94ynJbBAtaiAg2Qh/wne/cwxn9MsGQYJ8HuMbiXKQFwAlQTJsbfRvW6grDrDCFHkw8UP44bNlScohAnXMY6+QgiYE1eg6m1abdDLBBzPaEt/AaUfciC96wCFs0ZuBtn+2xzdQyin8Az9JdV9DM/pXO46rChuOh2QbkkQV8cibdCWSq/LQy5V3Lst3uWz/0Y8vAiAGEvkpFvQB4aRKjy1yyMQGYcEYQOQFzjHmoR/2A+uIPVZmgTc/1DkGGUPdZvlQNR/hZ58THOuHfjwX0ZdvbPQPYYIvPCKL5cApCKWYUxiVBel4TqoQ486Kpkj4iBsB9yvniZJxTCchi8CTDTuOATnGSXu77VYOoz7nDWbCp9D36jE0bN4f1rRPOiTO9DvOu4jbc1z9YWuydXlseQ5MGkBC/RGW5obx8ZySr8gy1ipwneCYQYhppci2SabrpTlwU9A6v6xse7majgYIM7DALis0bVPKW+Ur6AAvAQeZ1cdR8sgFXpLTQTcf9ZLfovF1vfpm3ht7TxbGMleCMjc0lho1Y6DOPHYS5ofzNFfVcX0If7qtPr/xDll+afc5pjpimlx7dIzdXEUmUetwvgJPPJassg6MhdpVLf/jfFPRvrCPDQvRzt5jPcxDK0cnuCW7cW7F2BlQ1IwVcwe/45h9vHNtJNdoi3kYcrPHY1uWc48s250dj21Zzn1ol/6d4TG2ZTn3hV8gcGd4jG1Zzn3hx3Ui/m0EiywnPhxzzWLPRn1eb7IudWifLXOc+tmW+imf9XlMH1lmn77MltGrrRAoBAqBQqAQKAT2fATmNmzYsH2atE5vOPJmYLx5yBuH2bo70+eRUL7QgOQOPW5FuIEhwYuyiAXeTaUEkfuUXKEkT3BGBEQklxzHjU0QI1GOASLpJPmMGyPq4gbMRIp62U7yTbIoWyT9vLDf9p3IqU6Eix/9VH/oQByElX6zJV1+Qh+/5Sg3S7LnpLevakGHGCOJx/9INpGDJDB+JPwELhvogh0rPvAR++iEeRLPOCARNZmhRHwOQkE/6QP4zC1L/CijRwfdEHv/ihQQ8UULY0GdyRfrB0GxQt/Yh4D9Ujte+8sN6Ber8nG7zVNvbckEsQUh4PgQRHbigqyojj790nodeB6gLxkIUIgl3ls1J0JkmUhK2+7JfK5kQ5gxN6kIWaBxso5sm9RTHfYIjP7Y8AH/ITDcp6MQfmIn/KhfCEiFSAmMDf10XoeS8Y9t0x5+MI8YL8gE/KccYxH4ewVOHwtUl+kDsoly4B9jCLnD/IfUMO59RRqu4ZeDkE8eb+zI5mQlm5oZBVa5WV7l0V9gQN5hR5OxyXkHJmzg6jlv1kbngIkV5mbMhcBdphljsNIkwC7aENPMR8evPbGBSZgG1xjTeOQ4sOFcX0bMCMlevjfOrHKPOcg5esAGm2JUG/UYxyc2JOy/8LNP2HRl1HPgbiRvkhWPpIoO9RZW2TFoLLBBe7T1drVS7+sLVbRL1o9Lq19YKc5LFeKcsmvgw1yzB93PsJHvF4tzhj5F7DsucIvYEmscoc4kMz3IIO/O83xgPPQTpCqOERe+IxPXG5NkXR//GWIF4v6MAToohocu2WP8ll6QbLEHrhhB0AqNmP9x/XAceET/+rGP4Cw/V+i8jtV4OKiY9bMFzOgDwhuf+nk5vktv1V4HTFauRVyMmwdOMUY5xwbns44926xsttOW5dKPeTliUvjV/GE+7E7nD/7MbvjH+TvrJ3J5fmd5VjfbZ/UXk9tZ3dh/njOzsnm8q/aUq30hUAgUAoVAIVAILF0E5tavX+9MJf/hz5uFIKoiecmbEPZZzpDHmxrqZvXz20LV4jbyIttBVj9eVSVCAb1oUwLnm6VI0JFRumtZKUYbq7JIMqm39zYaCRrykA3OH8Nu+B0vHic551iqkokbM78ryARFED14BgHB7TXmp6usSFqxLT37jA35qZ8g5SC+Ij40LYsBYqNBrSYLXUbXztsWSThkEbGvWLmXV+PwQnzIC5xQOLYnN10XK0lARv0Lj4WF9SbPIOrAJYgL4SV/iUVVLhO6Y6MgvyCatuhF7fOr99Ih1ub87Yg5rnISx00MgSuEQmz4zrgQBwRTawsb1xkrkn2TD8I6+sLnIJGsoA/i3LJ1wabIq+dXrVF8K/uqIPnmTbgZoy36lsbNjj/xjyy/yykO8NeXc8SjaV0b35ev3ifmCGGI4RIicmaz5t3mqFd1zj32rEBko1/3pXL0ApEmv72iSX4p8AlGyDhWxk8E08rVapvXHyuWaNOfsN288XaRDPPGkj7YIBLdl0k1jG5rq1bvKxIzVlJKQFUiV9uWtnXTOo3NfFvQMT7RZ8x16cnt8FMRrlzrOL3ySVhD6m1Z2CTbwkc6sqiy5JnDbYXGbKWsxTgzd5jbm+641WNEbTz6ulXzcm1bPr9ycm5Alub8j3NUHsh/xpazwraYsN0z+oRt8s4Ob2sLm26TfcilOK/Ayn1sxy9ZtavSkd257cLAj7jKsgRNMso2j+16zvXzR720ufk1HivK9Oj5KAzBIXGinnGBBJsQsPYf7AGIc0dtmlvMivxGU3CbW75Kdri+0BnjofNoYaPj9+o0z1vNp1V7mzz1O9qIUQomb9HTxtgwTowlW8LFdZEYDZPw8bv4JIPY5g23qk2EOnEj0301JrLHNWCb3gkHJhCKvjZxrFWsnR13X/gMBhDByIRvCsf1HdPJeeCBMCb0R1/gqJJjVkU8Pu044vrpa636hJT3KkaVIdVQYew8T/BdfTDnIHjz+owv4LIack1/4Rs4BYYOgP7R12Yc+rHtCoeUHfdZtlKXp1z6jGbgWfgF2ZhzZdxn2WB1vCjX/Pnhz58cC18rdK0brwV5vZjdp06OF2OX+pTZFpPJ+mzLY/apn32NMrSP29jvWF/lQqAQKAQKgUKgENgzEJiQa2M4eZOQdeMx5dx2dqMwyge5dotuQKSlP68gI/FUBcmfK7vNtDzpoydw2ikfY3UNpIySK/RVR/I11aGKpC/IA271bKcnY9iwkj5JmH2kSmLApldVWHbahkzGEjdMtEVyR3K4YgXfBokHnYzriSV67o6CNkuEy06WYdrQM9GhBBlhSCgIivM+9y/tjBef2b72tWviJq8bQB5feEyWZHT5yvl2+KGHtsMOO6wddI+D2l777NMed+op7aEPeWA79JCDhFG8ZwtSC6zxgaSJzYSByBvipvzZi77UXvf632uXXfYVH2/RNxLiT8QuPRFC5OUrpLNJq9/sr75BFMwYujVrVrcjjzyyve41r24POvre0pVIByDmiHuXLAmv3ZEXikXkIYTiDTfd1l7wwv/eLrn0EpMnK1es8h5hXn7/2Mc8rr36lWe2NSvxPwxDukBysHlsZM9kB3s5BRF24cWXtRe96LfalVcLS+tt1wvS92r//qlPbq8+6yWOCf9tkQ+VPTdUBivPHyolkSShhULDMuALQaMPy3xn3Yb2my96cTvvU582WSChtkorAo879sHtNa85q9378EPsbzfrOWwiVN1A4nz0nz/TXvqyl7Wr5XMQuNvbKo31g497SHvRC57fHvWI46VKrOCIb7GFl9vbeZ+5uP32GS9u115znXgUISIM995rbXvyk5/Uzjn7LBFAG6Qr3OTvxk1b25kv+932ob//cNu8iVWNIlnk74/+6I+2P3nbW9thB8eL5Il5QRzv6c/7zfbJ8z4NSD5351eKAMOaxoFz0kQR56eciW9KlRw/IofWb7yjbZURznmvoJTcwQce0J73vOe2Z/3802RSjxNLbovm1Ove+D/au/7i3Ha7sHRfiuE+976X4vrv7UlPOCVINQDQZvseK+ZWEG4Xf/mr7SW/84p2ySWXuo45tt+++7ZTTz25nf3Kl7e1azSfpZOb9eQ0togVsp3VZT7bFQu4eHbJPrF96B8/1l5z9jnt+htu9DzF1CEHH9JecsZvt6c+6bHyWX6p7tLLrmq/9F9/tV1//TfavK4VrAhcIXJylf7waZXw43iLzim+iZRx2bBRBJ02voBjs8hiPGIMOWa7j86z977nXcJubx8Th+eBZJBl/hIPP75Wug5d0VoS8FyzZsxxziOtGba8BtHt2Jlcm9UyzjOZptV11OObOgQk98vcdD3zQHNCojqOtuhW7QCrjX8LMKdmb5jxf7ZoH8Tg9rZm7wP8hQbExLajL1HnhuEDmZRPnTwu/UR7HJMBPBULv5o/eb4s1fMn//0mjtn5nLN9jHEsI5/3SnemnzJpb9xn/2Md5bGf2bY6LgQKgUKgECgECoGlj8DcunXrJnfb443EbBKSNyjjfjb8xfQ3rb/Fq2BMHsHQaCPZIgnrv06wqCdJDRIjEl/LqN6rOrSqIR/DIvEyUUOSR3tP5CaP83XySi1qjwQf+xM5l9WHHHE8nRzAJpttsqegI/p3/hguT0gZp6SYIYnUFiRdEBTo0TPkAMojbuA0kjI8IqcKp/CvPPv32zvf9U69EF/aimu5YuHxKbBhc+ySNdbYUZKeqz3E97W1q1e1Jzzhse1Fv/Gb7ch7HiyzJNY43pPtTgSRVJPUizlrL/rtl7W/+du/0wo2EnPEhYsKrFjCfb5VlMQ/AAHTSKpZMcRKLjlvH571zJ9vL/+dM0SibHS89AkE03kRq9Xml887ftp4JPKXn/vC9o//9H/VF2l+T/rV6H564C8544z27NP+o+zGGJk4CNitx8ojcIA0cgxa2XPGmWe197z/AyZLjD/zBB39ffHz57e9VumRXNkPwiESfa9uk99eaYMh/SLvVsag98ke/2KOyGfJQZh86oIvtl/6L6dr/BYm5Bg25udXtGc8/Wnt1S8/Q2yGHgHFFDjrzyQD4zO/uj3q1B9vX7/+ehskHj+Kq34g3o4+6uj24b99n/Fl/OwbO/nJ3zKRks981nNMgDE3Jzf46h9bF3/hgja/LIgiBvYLIh+f/vPPjJVNWhHmx7OFL6uYni/S6/RffpasMCfm2ucuuqQ9/ed0TF8KFijEg/UY+phwnqiBlVDEhYPeq8jj3n78U7Gwge+8zjvg/dpXv9I26t2MqNy2bnM78VGnyj3mXMwBrgmQyk/+iSe2t/z+azXE4BZ9cu7Rp8kY9cu5eu67P9jOOvt3tZJRhGG3gwwr5N7+9j9sJ594vEitec9/fzmAxzHmNOhAGHnlmOeLiGzNLb4Uwo9zLl/ZTj7lx9s3brpZtoPwYv7LjfZjD3tYe++5fy59Vmptb7/72je1P3/nOx0L8TBHOe8pgzFKnPXbNPZxXlMfq2bAiPgNinbgDj7g9YY3nNOe+sRTPaeQ8xzSnvEG11yFlkQb2POlAiYM1R4b44C16AdPZMlHPreQAzSwpkUfMZ+m46Jq48vcdFkyfgzbAxJjbywVs6+hwhPi3nPV8dMH/7ERK3ZN1GFIboXvy7Vqbf+2Zli55liNBV7tuAVGmg8z7Xk8u99RG1fC59xnex7P7rM99ztrn63P49TLfdbnfmf1s+07k9tZfenHOCc+uU9ccr+z+tn2ncntrL70//X4g238GxMog+nOtsQ7ZXKf1xL0sm62zHH+O5oyuactt7FuLGd77ukTe7UVAoVAIVAIFAKFwJ6JwNxtt90mHiVuTPJmZTwey0DA8XhTMltOGfa08b41Vq9FkuXaiQ1JKImKZGj6vh4Sc/qJx4QmKzN64oertJOAmUzp9SStLtIE0yEhy+k4k7ZIPPsjH0p0Q2aajGWs7DMxxWNuhvCTOpJ840QiKYYjyzgU5F4Qf+MNWTw6R0zIkLgr2cRHbUESSkdlXnz+xje/rf3Jn77DSTj+OSl1m4gw9UEs6BCbH62SP1jCnh9bQ0flNWvWimB7QXv2LzxNnUACSI8f2+x+mLBc0Z7/wjPb3//DR/zeucQAo5BOkBemQOhEdokFW3agx0MdCflpz3h6e9VZL/Wjd4ybH7fVOErM2KFHObYof/vWO9pTfupn27duvsm+hQBtMciWlx8nn3RS+1/v+GP5qMf6wN5GNCZqA5McsxzrZVoR9OKXntXe/b6/dtywWRAZxkG7L174aa+Ec2zyXYF5jJdrhRGxgRN9RBysAtQYSQ9/om9Mqd8uhztgdfnV17en/geRgMYW4o4emUNz7UHHHNs++D6RLYoh54cfb4aMkODW7cvbUQ883kQUfeAD8eATq70OO/Sw9pEPf0ArnnBCfcsTxysZ5ubqvfdvR973AVqJFGQnjoKPx1Tla6++vC2YxFJsmoNfuPSK9rRn/IJ8wXvNHwVoe6p4wXN/tT339Gf7XXFCpl30L5e3Z5z2i7IH/aQfYcGKNeRB1e9Rsx/MP84BdYisYmN+sMqTRzpZnRYEqPxXPasfr7/mcj3qeLti2NpuXbfQTnjEyf0RRlDAM8179fWkJz6uvfn33iDfRVyqL1Xz6xjpjir6/Z9/8dft7HNe3zZv1mOwwt3kqfBF9h1/9vb2yBMeJHKNxzrRxXt0OYqNModyr+8DF+zwaOwJJ54sEnCdyVQ03K/sP/yE49u7z31H01sbFde2duYrXtfe81fvl7/xJSVhzOi5I/pZLnJ7i4hYOyOs4krQfWGigyXXC/1oyH0uvvH1r21P+YlTTfpBpDH2bMZcNsHG1wj55GuX/KYvzyfZQ556VTh+rjG5gYcJc/XNNQ9bzF3KjIZPFbC2w3H+cb2xf+4HTAMTFOgX3Ny3yvQJDuELexlVNfqOQ2VIUKOkttUi13g01LEh2nXZs1E/lqkbj8dyts3qLCaD7Kxc6Rf+zJXZeVHzZ3ou5jlyV50/+e8m9sctx4W6cTxm5bNtlPt+yqP+zvQW8wXZcZu1M7ZVuRAoBAqBQqAQKASWLgIm17hZZBtvCnYWErLjDcuoM5ZTH3KNP/cgXSdvSuycjCnJ84qTnhymD5EsKvFUQk1/uOfVFNbvhEIv+8sASPz0R5IX8vSmHpQz8sge9QtKtFdo9RDt5GXYDH/pNRI05Hh0jeNcjSEzPRkNEstffCC/csPG5J1FIgdIgCM2d9BtjwRT9Is+vnjTnhLk2Bvf/Mft7X/2Z+7TMeGs/ryTZZMBHDiDDVv44ITZSXLg5ZU9Mnr66b/SXvj8XzH50YOOZNkJu/S1iuwFL3xx+8g//WPbuDlW52CLfoiD1S6scIv8m0S7k5LyGJ8JQbD56Be0MuuVrwhyzY2qN5Yeb2gDCKxYQcMqL8iWK6/9VnvKU39aj7nGu+ISX79bS51C0DHGjMuVl1/atundcvG4ZPjHXHTij78qm8iUUytWrNTjla9s73qvyDUdQxIwvvgFyXrR584XuRb4MRtzXjoquArJB0khBalFWeoiHYw3+BGXbJu8scpcu+br3xS59vS2fsP66A8IGCvZPPK+R7a/++D72lqtmPOqQRlerlVF1pedf/70F9ov/fLpxskEh+piTssFmYCgev9fndsecL97yQewkQ/4Rtzq5qZb1rWTtfLN3ziK/32scOHYY45pf/OB97atm++QTQiZre0LIsyedtozd4iT9/fN6b1zv/Hc09tzf/U5TH5huqV99l++3J75zOcIOz0yOc8L6HWueTwDW8aERxc95HQI1JBTPlWYSVFHyWOqeQXpROzXfe2KtlErXKGWbr5tYzvxpFMmmDO2XAcg0n/iCY9rb3r962RTetI1uS7Dfm+aO4j3h/3Fe/+mvfo1r3E//qZPhtBAzbU/+aO3tpP/3fEmplxnP4kBIlQO9/G0bc0XcPe5gL7al61Y00569OPbt2652fOOueNvHxUaJzz0oe0vz/1TTbAFnxcvecXr2/v/+v2WAwfOZ8aJjZL/48B1zNcVvkYx3uBgX9RljiFzOK4zy9rva+Xak57waJ8HGMQ1SEu7KDnq0J98UYj6xk/GyI/WSxD8GBywZS4yh8CDfuwnNuUnf4yRfe1lX4vlN/Lus8eVeDLXiZexQ59PdRMrY12D3WjhOss1wceArQtooER705cZ7GdyzQf68LnMfCdObenzbNmNi3yUvuZ64VfzZw89fzjlOcd9LRrO/zwez3/q8vqR5VTZ2XHqj3LZHzqz22ifttRPnVn5Oi4ECoFCoBAoBAqBpY3A3KWXXhpZyhBH3hBQRdnJz3AjkqKjXNalDjcPbAsbb2vr18XKNdtSfdxgiKQhC1Na5RsN0ivdm1AmGSPFIjkj6eSRLHRVhfj0BoWkTkkk8iZPJGMR7nFUsF0lq7YpuyQVbCST2GUjNhLYySNeQ5yYIUvEqqPRR7rRHVFzEDOsLgn78p1MUv2ZROhERhA/3PRhMlaPYJ4kHrKHvrbIxtvecW5793vea7/olUQ3kiFCip/wCF17aGywAbFknIgB42Cgn+f/t+e1p//MU9x3JNVqzViUlL/8Vee0j3/8n71yDqwcR8fVx7LGI6PigcJ3yRAffeECh5Sf8pNPbGf81gvlByuLiEtki+qJAYeQs8/Udf13/uUH2h+9/W2WmfSNLFODjT4lzzi97uxX651jD41q6kUZ5Co+E27qR6LRrhf/n/PGN7f//aG/d18yoJCtZD8+8qEP6hFakFSdfIFAgLDCnn3mmO77WAWioEm/+C85klTmIJbdMXNhWTvtPz+nXX/jN3rc1ImcUDsExZ9r5dSRRxyMYdugbzut9vd94P+0t7z1D6SHDzGHbDv7U92bfu+c9pBjjhIpEo/BJjGB3Ec/cUF72Ste2fslLIgpnWcK5Cef+JPtpb/16x4TV8j/Sy67up3+a79Os6v48BhI59mnPaM9+xdP03iJK9L596XLv9Z+7ddf0AWJKcYWHZ9DkpPbmvsQOcQWnvscj+H3eQFB5PnV5wRk6mc+/XFdJ26X300r1za1n/oZrbbUBlEN5cp1YJmI8VMfdVJ71SvOFDGk+dXPawaEnoARXzH7gb/9h/aWP3irH83FpyCDeFxyRXv9OWe3HzvuASKa4n1x+Mn45PUjiTTGGAIyvsDDncQYa179zM/+XLv5O3qMVcYhiedF/kq8PfiYB7W3vOkN8pl3qG1vr33jH7YP6312eY1CxnNHbazMNLFkghQ8wwcw8Dcmq5DEole6an4YUc2B3znzxe3xpzxC1zC+3VeEPoSU9D1vJWViUHtv0iMm5qkfC3U//dzEob6BET54/Lke4giY6lrmOdZ9R8YNRIJPshs6/RgbSEh/XBFHN2CcbXEc1z5fz7CvdgSSBKdf3rm2Ql8KQZv7c/9ohzx9z26jHOXwv/RHXAq/mj+z8yHPo7F+dzh/8hxPv9jnRtt4PDuvR52xjBz/DlHHv5Hzek3A6tWrvaecdkYdylk/7mfLcb8W16VZ/YxlVofj2gqBQqAQKAQKgUJg6SMwt2nTpu/OThQXNwHcJJCYsI03DK7Qx2I3NmNb6Rd+NX/q/OGaUNePIBzz+si+rp/fnRgnPvXvT/37W/cPdf9wV94/8J+sXGf4lvHNmzc33Qu3DRs2tJUrV7b999/fe8ix/MtrEteoJM2Yo+OWsmMd5ZRnn8fENqvvxvooBAqBQqAQKAQKgSWLwA5faLBkoyjHC4FCoBAoBAqBQqAQKAQKgR8AAYgvyC4Itm9961ttX33D9D76FvYkwJIYmz3OerrMttn/OEmZJOjYs2W9D+qjECgECoFCoBAoBJY8AkWuLfkhrAAKgUKgECgECoFCoBAoBP4tEOBR0RtuuMFk2YEHHuhHR0cijHIej/ssjz6MsmM95STbZuvruBAoBAqBQqAQKASWJgJFri3NcSuvC4FCoBAoBAqBQqAQKATuAgRYhQbBtmrVqrbffvuZTEuiLEm03CObq9Fy9Vq2ja59r3WjTpULgUKgECgECoFCYOkgUOTa0hmr8rQQKAQKgUKgECgECoFC4IeAAGTYdddd1w4++GCTbHQ5S54hkyvQkjzLfcrTPtZRn3qz9bTVVggUAoVAIVAIFAJLE4Ei15bmuJXXhUAhUAgUAoVAIVAIFAJ3IQK8g+322283wQYRNvtH10m4UU6yLOWSeKMtV7elTNaN+tTVVggUAoVAIVAIFAJLE4Ei15bmuJXXhUAhUAgUAoVAIVAIFAJ3MQLXXnttO/TQQ9v8/PyEPKNLSLGRKMvjsQ658TjLs6vZsh752gqBQqAQKAQKgUJgaSJQ5NrSHLfyuhAoBAqBQqAQKAQKgULgLkaAbw9du3ZtW7169YRQgwyb/cONJMmybaxLQi1lRrcXqxvbq1wIFAKFQCFQCBQCuz8CRa7t/mN0t/Fw/fr17Y477thpvAcddNDkxnVWaMuWLe1zn/uc/2f5hBNOmG2u40KgECgECoFCoBAoBL5vBG699da2devWdsABByxKqOWKtfERUDoZH/dMsi0JtnQij4tcS0RqXwgUAoVAIVAILF0EilxbumO3x3l+1VVXta9+9as7jesxj3mMybPFBBYWFtrHPvaxtnLlynbqqacuJlJ1hUAhUAgUAoVAIVAIfF8I8N41CDa+2CCJtCTDli9f7nepcZxkWhJpdJJyi5WTjGM/2+6K+igECoFCoBAoBAqBJYVAkWtLarj2bGdvu+22xh/bNddc01jJdsQRR7R99tnHdYcffrhvVHm5MP+LvPfee0/Itp2Ra5s2bfJqON6VknZsTB/c0GKLm+O99tqrcQPNtmbNGtvfvHlzW7FihW+Y161bZ31unrdt22ab6QMybByPOtjG1qpVq9xGbBzzaElthUAhUAgUAoVAIbD7I8D9xY033uj3riVxlkQa3nMPwZYEW5JmWedGfaAzS6SlLPuRiEud2hcChUAhUAgUAoXA0kGgyLWlM1Z3K08///nPt29/+9vtuOOOa4cccohjhyjj0U9INzZuVI899tj2Iz/yI20xcu3qq6/2Sri8md1///3bwx72MN8II//Zz3528hgqfdx0000mzh7/+Me3b3zjG+1LX/pSQyfJvEc+8pEm4C699FL3hw/cDD/wgQ80Cfj1r3/dOgceeKB16AMfjz766HbllVeaeEPn/ve/f7vvfe9LsbZCoBAoBAqBQqAQ2I0R4B6C//A77LDD/G96kmjsZ/+QHck2wkIm93k/MpJzbuwfKTvWVbkQKAQKgUKgECgElgYCRa4tjXG623m5GLl2/vnnm7S6173u1fbdd992+eWXN9619ohHPMKrw8bHQnkB8UUXXeSVYpBZN998swkziLiHPOQh7ZJLLvExLynmW8C++c1vNlansY3kGsf3uMc9vEru3ve+d8MvSL773e9+JuKuuOIKr27jkdXrr7/e5Bo3x/e5z338GMktt9yCiZar7iDgWOmGfN1EG5r6KAQKgUKgECgEdlsE+Lea11ZArkGccTz+QZTlv+dJmo3HEGrUj3uCTZkx8MXqxvYqFwKFQCFQCBQChcDui0CRa7vv2NytPZsl11itdt555/nGlpVibBBikGhHHXWUV46N5NrFF1/cbrjhBhNnkGPc1LLijBtcyLNPfOITbePGje3EE09s++23n1ekffKTn7TdkVyjDZlxY0UaRBzEHiQde97zhi+sdmMVHCvueAz0ggsuMPF3yimn2MRHP/pRPyJ6Z++PG/uqciFQCBQChUAhUAj8/0WA1ee8pgLyi/sI9mMZ72aPkcst5fOYPXWz22J1szJ1XAgUAoVAIVAIFAK7JwJFru2e43K392qWXPvOd77TPvOZzxiXfMcZ7z7j5pWVbKwqG8m1Cy+80KvVaM8b3JSH6Pr4xz9ukosy70SjDeILEm4k17iZPuaYYybj8eUvf7ldd911PuYmGHm2kVxLHb759FOf+pTf53bSSSdZjn55L1uRa4ajPgqBQqAQKAQKgd0aAf6t58uWWLmW9x/U5b3FeJ9B/fhHYHnM/QIr3/K+gfrcKFM/1mVb7QuBQqAQKAQKgUJgaSBQ5NrSGKe7nZez5BqrzFhtBhH26Ec/2jegfIEAq8j4sgLIsZFcY5Uaj2myyu2e97yn8eNxTjZsQNRB2OX7z/J9abTvjFxLsowvJHj4wx/uLyagz9mVa0WugWJthUAhUAgUAoXAnoEA5Bqvd4BIgwCb3ScpNr5vLQmzlAWJlMu2PKYNcg3Z2gqBQqAQKAQKgUJgaSJQ5NrSHLc93utZco2AczXaQQcd1A444ACvIOMbPo8//ng/2jmSa7feequ//ID/ZWZVG+QcBBrvauMdbTxS+sUvftE45o0vBB03tzsj18ZHU4888kg/9smXILDVyjXDUB+FQCFQCBQChcAehQAEGO94HR8LJcAk0vIeArkkx3JPHX/cW+SqNdpyJf0sUMjWVggUAoVAIVAIFAJLE4Ei15bmuO3xXi9GrrFSDUKMLydggzjjiwUgz1jBNpJrtN94442NxzhpY+ObP/l20TVr1vgYgo0/bnRZ3ca3h3LDuzNyDSVusK+99lrLHXzwwSbYWBFX5JohrY9CoBAoBAqBQmCPQgDCi3/7+fIj7js45r5h3I9lguc4//KY/Ui6zT4GivxsHTq1FQKFQCFQCBQChcDSQKDItaUxTuXlgABkGSQYj3fuauNGlXeccUOc/8uMDi8n5rFQCDK+gIAVaDxKis388oGd2c4VbqO9nclWfSFQCBQChUAhUAgsXQQgvS677DK/cw1yLP+oX4xkmyXVUmYkzpJIo212o622QqAQKAQKgUKgEFh6CBS5tvTGrDz+N0CAx0Yvuuiiyao2TELAPfjBD248dlpbIVAIFAKFQCFQCBQCkF1f+cpXJu9cS7Jsdo9c1lFOkizL4/GIatbPkm+jTJULgUKgECgECoFCYPdHoMi13X+MysO7CAFWwN1yyy2Nxzp5VHS//fbzlyPcRd2V2UKgECgECoFCoBBYggjkyjVWrI8E2limLYk0QqRMOxt7yLM8pi3JtNxbUB9JtuVx7QuBQqAQKAQKgUJgaSBQ5NrSGKfyshAoBAqBQqAQKAQKgULgh4wAZBfvbz3ssMNMjs0SbCOphmz+JZGW+3Q728fjLOcemdoKgUKgECgECoFCYGkhUOTa0hqv8rYQKAQKgUKgECgECoFC4IeIAI+FQq6NRBqkWR7jSpapT3IsibQ8po2VamzZRnlcvZay1NdWCBQChUAhUAgUAksHgf8Hil38wLLqQ2AAAAAASUVORK5CYII=;" vertex="1" parent="1">
          <mxGeometry x="-490" y="110" width="1239" height="183" as="geometry" />
        </mxCell>
        <mxCell id="NZnQUXiXrCBAcq0i8BXY-2" value="" style="ellipse;whiteSpace=wrap;html=1;aspect=fixed;fillColor=#f8cecc;strokeColor=#b85450;" vertex="1" parent="1">
          <mxGeometry y="130" width="30" height="30" as="geometry" />
        </mxCell>
        <mxCell id="NZnQUXiXrCBAcq0i8BXY-3" value="" style="rounded=1;whiteSpace=wrap;html=1;fillColor=#f5f5f5;fontColor=#333333;strokeColor=#666666;" vertex="1" parent="1">
          <mxGeometry x="-180" y="160" width="210" height="140" as="geometry" />
        </mxCell>
        <mxCell id="NZnQUXiXrCBAcq0i8BXY-4" value="" style="rounded=1;whiteSpace=wrap;html=1;fillColor=#f8cecc;strokeColor=#b85450;" vertex="1" parent="1">
          <mxGeometry x="-180" y="160" width="110" height="110" as="geometry" />
        </mxCell>
        <mxCell id="NZnQUXiXrCBAcq0i8BXY-10" style="edgeStyle=orthogonalEdgeStyle;rounded=0;orthogonalLoop=1;jettySize=auto;html=1;entryX=0.5;entryY=0;entryDx=0;entryDy=0;" edge="1" parent="1" source="NZnQUXiXrCBAcq0i8BXY-4" target="NZnQUXiXrCBAcq0i8BXY-6">
          <mxGeometry relative="1" as="geometry" />
        </mxCell>
        <mxCell id="NZnQUXiXrCBAcq0i8BXY-5" value="" style="rounded=1;whiteSpace=wrap;html=1;fillColor=#d5e8d4;strokeColor=#82b366;" vertex="1" parent="1">
          <mxGeometry x="-70" y="160" width="100" height="108" as="geometry" />
        </mxCell>
        <mxCell id="NZnQUXiXrCBAcq0i8BXY-6" value="" style="rounded=1;whiteSpace=wrap;html=1;fillColor=#f5f5f5;fontColor=#333333;strokeColor=#666666;" vertex="1" parent="1">
          <mxGeometry x="-420" y="440" width="260" height="220" as="geometry" />
        </mxCell>
        <mxCell id="NZnQUXiXrCBAcq0i8BXY-7" value="I am&amp;nbsp;" style="text;html=1;align=center;verticalAlign=middle;whiteSpace=wrap;rounded=0;" vertex="1" parent="1">
          <mxGeometry x="-320" y="450" width="60" height="30" as="geometry" />
        </mxCell>
        <mxCell id="NZnQUXiXrCBAcq0i8BXY-8" value="And I have" style="text;html=1;align=center;verticalAlign=middle;whiteSpace=wrap;rounded=0;" vertex="1" parent="1">
          <mxGeometry x="-320" y="550" width="60" height="30" as="geometry" />
        </mxCell>
        <mxCell id="NZnQUXiXrCBAcq0i8BXY-9" value="(emj) anxious" style="rounded=1;whiteSpace=wrap;html=1;" vertex="1" parent="1">
          <mxGeometry x="-410" y="480" width="110" height="30" as="geometry" />
        </mxCell>
        <mxCell id="NZnQUXiXrCBAcq0i8BXY-11" value="(emj) worrying" style="rounded=1;whiteSpace=wrap;html=1;" vertex="1" parent="1">
          <mxGeometry x="-290" y="480" width="110" height="30" as="geometry" />
        </mxCell>
        <mxCell id="NZnQUXiXrCBAcq0i8BXY-12" value="(emj) stressed" style="rounded=1;whiteSpace=wrap;html=1;" vertex="1" parent="1">
          <mxGeometry x="-410" y="520" width="110" height="30" as="geometry" />
        </mxCell>
        <mxCell id="NZnQUXiXrCBAcq0i8BXY-103" style="edgeStyle=orthogonalEdgeStyle;rounded=0;orthogonalLoop=1;jettySize=auto;html=1;exitX=1;exitY=0.5;exitDx=0;exitDy=0;entryX=0;entryY=0;entryDx=0;entryDy=0;" edge="1" parent="1" source="NZnQUXiXrCBAcq0i8BXY-13" target="NZnQUXiXrCBAcq0i8BXY-33">
          <mxGeometry relative="1" as="geometry" />
        </mxCell>
        <mxCell id="NZnQUXiXrCBAcq0i8BXY-13" value="Stats" style="text;html=1;align=center;verticalAlign=middle;whiteSpace=wrap;rounded=0;" vertex="1" parent="1">
          <mxGeometry x="-30" y="268" width="60" height="30" as="geometry" />
        </mxCell>
        <mxCell id="NZnQUXiXrCBAcq0i8BXY-17" value="" style="dashed=0;verticalLabelPosition=bottom;verticalAlign=top;align=center;shape=mxgraph.gmdl.sliderDiscreteDots;barPos=60;bright=0;strokeColor=#0F9D58;opacity=100;strokeWidth=2;fillColor=#0F9D58;handleSize=10;shadow=0;fontSize=12;fontColor=#ffffff;html=1;" vertex="1" parent="1">
          <mxGeometry x="-390" y="580" width="200" height="45" as="geometry" />
        </mxCell>
        <mxCell id="NZnQUXiXrCBAcq0i8BXY-18" value="(emj) exhausted" style="rounded=1;whiteSpace=wrap;html=1;" vertex="1" parent="1">
          <mxGeometry x="-290" y="520" width="110" height="30" as="geometry" />
        </mxCell>
        <mxCell id="NZnQUXiXrCBAcq0i8BXY-113" style="edgeStyle=orthogonalEdgeStyle;rounded=0;orthogonalLoop=1;jettySize=auto;html=1;exitX=0.5;exitY=1;exitDx=0;exitDy=0;" edge="1" parent="1" source="NZnQUXiXrCBAcq0i8BXY-19" target="NZnQUXiXrCBAcq0i8BXY-112">
          <mxGeometry relative="1" as="geometry" />
        </mxCell>
        <mxCell id="NZnQUXiXrCBAcq0i8BXY-19" value="Minutes" style="text;html=1;align=center;verticalAlign=middle;whiteSpace=wrap;rounded=0;" vertex="1" parent="1">
          <mxGeometry x="-320" y="630" width="60" height="30" as="geometry" />
        </mxCell>
        <mxCell id="NZnQUXiXrCBAcq0i8BXY-20" value="" style="rounded=1;whiteSpace=wrap;html=1;fillColor=#f5f5f5;fontColor=#333333;strokeColor=#666666;" vertex="1" parent="1">
          <mxGeometry x="-50" y="450" width="260" height="320" as="geometry" />
        </mxCell>
        <mxCell id="NZnQUXiXrCBAcq0i8BXY-21" value="I am&amp;nbsp;" style="text;html=1;align=center;verticalAlign=middle;whiteSpace=wrap;rounded=0;" vertex="1" parent="1">
          <mxGeometry x="50" y="460" width="60" height="30" as="geometry" />
        </mxCell>
        <mxCell id="NZnQUXiXrCBAcq0i8BXY-22" value="I want" style="text;html=1;align=center;verticalAlign=middle;whiteSpace=wrap;rounded=0;" vertex="1" parent="1">
          <mxGeometry x="50" y="560" width="60" height="30" as="geometry" />
        </mxCell>
        <mxCell id="NZnQUXiXrCBAcq0i8BXY-23" value="(emj) happy" style="rounded=1;whiteSpace=wrap;html=1;" vertex="1" parent="1">
          <mxGeometry x="-40" y="490" width="110" height="30" as="geometry" />
        </mxCell>
        <mxCell id="NZnQUXiXrCBAcq0i8BXY-24" value="(emj) motivated" style="rounded=1;whiteSpace=wrap;html=1;" vertex="1" parent="1">
          <mxGeometry x="80" y="490" width="110" height="30" as="geometry" />
        </mxCell>
        <mxCell id="NZnQUXiXrCBAcq0i8BXY-25" value="(emj) grateful" style="rounded=1;whiteSpace=wrap;html=1;" vertex="1" parent="1">
          <mxGeometry x="-40" y="530" width="110" height="30" as="geometry" />
        </mxCell>
        <mxCell id="NZnQUXiXrCBAcq0i8BXY-26" value="" style="dashed=0;verticalLabelPosition=bottom;verticalAlign=top;align=center;shape=mxgraph.gmdl.sliderDiscreteDots;barPos=60;bright=0;strokeColor=#0F9D58;opacity=100;strokeWidth=2;fillColor=#0F9D58;handleSize=10;shadow=0;fontSize=12;fontColor=#ffffff;html=1;" vertex="1" parent="1">
          <mxGeometry x="-20" y="690" width="200" height="45" as="geometry" />
        </mxCell>
        <mxCell id="NZnQUXiXrCBAcq0i8BXY-114" style="edgeStyle=orthogonalEdgeStyle;rounded=0;orthogonalLoop=1;jettySize=auto;html=1;exitX=0.5;exitY=1;exitDx=0;exitDy=0;" edge="1" parent="1" source="NZnQUXiXrCBAcq0i8BXY-28" target="NZnQUXiXrCBAcq0i8BXY-112">
          <mxGeometry relative="1" as="geometry" />
        </mxCell>
        <mxCell id="NZnQUXiXrCBAcq0i8BXY-28" value="Minutes" style="text;html=1;align=center;verticalAlign=middle;whiteSpace=wrap;rounded=0;" vertex="1" parent="1">
          <mxGeometry x="50" y="740" width="60" height="30" as="geometry" />
        </mxCell>
        <mxCell id="NZnQUXiXrCBAcq0i8BXY-29" style="edgeStyle=orthogonalEdgeStyle;rounded=0;orthogonalLoop=1;jettySize=auto;html=1;entryX=0.5;entryY=0;entryDx=0;entryDy=0;" edge="1" parent="1" source="NZnQUXiXrCBAcq0i8BXY-5" target="NZnQUXiXrCBAcq0i8BXY-20">
          <mxGeometry relative="1" as="geometry">
            <mxPoint x="95" y="300" as="sourcePoint" />
            <mxPoint x="-70" y="470" as="targetPoint" />
          </mxGeometry>
        </mxCell>
        <mxCell id="NZnQUXiXrCBAcq0i8BXY-30" value="And I have" style="text;html=1;align=center;verticalAlign=middle;whiteSpace=wrap;rounded=0;" vertex="1" parent="1">
          <mxGeometry x="50" y="650" width="60" height="30" as="geometry" />
        </mxCell>
        <mxCell id="NZnQUXiXrCBAcq0i8BXY-31" value="(emj) to make a next step" style="rounded=1;whiteSpace=wrap;html=1;" vertex="1" parent="1">
          <mxGeometry x="-40" y="600" width="110" height="30" as="geometry" />
        </mxCell>
        <mxCell id="NZnQUXiXrCBAcq0i8BXY-32" value="(emj) to celebrate it" style="rounded=1;whiteSpace=wrap;html=1;" vertex="1" parent="1">
          <mxGeometry x="80" y="600" width="110" height="30" as="geometry" />
        </mxCell>
        <mxCell id="NZnQUXiXrCBAcq0i8BXY-33" value="" style="rounded=1;whiteSpace=wrap;html=1;" vertex="1" parent="1">
          <mxGeometry x="280" y="373" width="570" height="267" as="geometry" />
        </mxCell>
        <mxCell id="NZnQUXiXrCBAcq0i8BXY-34" value="" style="strokeWidth=1;shadow=0;dashed=0;align=center;html=1;shape=mxgraph.mockup.forms.rrect;rSize=5;strokeColor=#999999;fillColor=#ffffff;" vertex="1" parent="1">
          <mxGeometry x="520" y="401" width="220" height="202" as="geometry" />
        </mxCell>
        <mxCell id="NZnQUXiXrCBAcq0i8BXY-35" value="October 2014" style="strokeWidth=1;shadow=0;dashed=0;align=center;html=1;shape=mxgraph.mockup.forms.anchor;fontColor=#999999;" vertex="1" parent="NZnQUXiXrCBAcq0i8BXY-34">
          <mxGeometry x="41.25" y="9.234285714285715" width="137.5" height="23.08571428571429" as="geometry" />
        </mxCell>
        <mxCell id="NZnQUXiXrCBAcq0i8BXY-36" value="&lt;" style="strokeWidth=1;shadow=0;dashed=0;align=center;html=1;shape=mxgraph.mockup.forms.rrect;rSize=4;strokeColor=#999999;fontColor=#008cff;fontSize=19;fontStyle=1;" vertex="1" parent="NZnQUXiXrCBAcq0i8BXY-34">
          <mxGeometry x="11" y="9.234285714285715" width="34.375" height="23.08571428571429" as="geometry" />
        </mxCell>
        <mxCell id="NZnQUXiXrCBAcq0i8BXY-37" value="&gt;" style="strokeWidth=1;shadow=0;dashed=0;align=center;html=1;shape=mxgraph.mockup.forms.rrect;rSize=4;strokeColor=#999999;fontColor=#008cff;fontSize=19;fontStyle=1;" vertex="1" parent="NZnQUXiXrCBAcq0i8BXY-34">
          <mxGeometry x="174.625" y="9.234285714285715" width="34.375" height="23.08571428571429" as="geometry" />
        </mxCell>
        <mxCell id="NZnQUXiXrCBAcq0i8BXY-38" value="Mo" style="strokeWidth=1;shadow=0;dashed=0;align=center;html=1;shape=mxgraph.mockup.forms.anchor;fontColor=#999999;" vertex="1" parent="NZnQUXiXrCBAcq0i8BXY-34">
          <mxGeometry x="13.75" y="32.32" width="27.5" height="23.08571428571429" as="geometry" />
        </mxCell>
        <mxCell id="NZnQUXiXrCBAcq0i8BXY-39" value="Tu" style="strokeWidth=1;shadow=0;dashed=0;align=center;html=1;shape=mxgraph.mockup.forms.anchor;fontColor=#999999;" vertex="1" parent="NZnQUXiXrCBAcq0i8BXY-34">
          <mxGeometry x="41.25" y="32.32" width="27.5" height="23.08571428571429" as="geometry" />
        </mxCell>
        <mxCell id="NZnQUXiXrCBAcq0i8BXY-40" value="We" style="strokeWidth=1;shadow=0;dashed=0;align=center;html=1;shape=mxgraph.mockup.forms.anchor;fontColor=#999999;" vertex="1" parent="NZnQUXiXrCBAcq0i8BXY-34">
          <mxGeometry x="68.75" y="32.32" width="27.5" height="23.08571428571429" as="geometry" />
        </mxCell>
        <mxCell id="NZnQUXiXrCBAcq0i8BXY-41" value="Th" style="strokeWidth=1;shadow=0;dashed=0;align=center;html=1;shape=mxgraph.mockup.forms.anchor;fontColor=#999999;" vertex="1" parent="NZnQUXiXrCBAcq0i8BXY-34">
          <mxGeometry x="96.25" y="32.32" width="27.5" height="23.08571428571429" as="geometry" />
        </mxCell>
        <mxCell id="NZnQUXiXrCBAcq0i8BXY-42" value="Fr" style="strokeWidth=1;shadow=0;dashed=0;align=center;html=1;shape=mxgraph.mockup.forms.anchor;fontColor=#999999;" vertex="1" parent="NZnQUXiXrCBAcq0i8BXY-34">
          <mxGeometry x="123.75" y="32.32" width="27.5" height="23.08571428571429" as="geometry" />
        </mxCell>
        <mxCell id="NZnQUXiXrCBAcq0i8BXY-43" value="Sa" style="strokeWidth=1;shadow=0;dashed=0;align=center;html=1;shape=mxgraph.mockup.forms.anchor;fontColor=#999999;" vertex="1" parent="NZnQUXiXrCBAcq0i8BXY-34">
          <mxGeometry x="151.25" y="32.32" width="27.5" height="23.08571428571429" as="geometry" />
        </mxCell>
        <mxCell id="NZnQUXiXrCBAcq0i8BXY-44" value="Su" style="strokeWidth=1;shadow=0;dashed=0;align=center;html=1;shape=mxgraph.mockup.forms.anchor;fontColor=#999999;" vertex="1" parent="NZnQUXiXrCBAcq0i8BXY-34">
          <mxGeometry x="178.75" y="32.32" width="27.5" height="23.08571428571429" as="geometry" />
        </mxCell>
        <mxCell id="NZnQUXiXrCBAcq0i8BXY-45" value="1" style="strokeWidth=1;shadow=0;dashed=0;align=center;html=1;shape=mxgraph.mockup.forms.rrect;rSize=0;strokeColor=#999999;fontColor=#999999;" vertex="1" parent="NZnQUXiXrCBAcq0i8BXY-34">
          <mxGeometry x="13.75" y="55.40571428571429" width="27.5" height="23.08571428571429" as="geometry" />
        </mxCell>
        <mxCell id="NZnQUXiXrCBAcq0i8BXY-46" value="2" style="strokeWidth=1;shadow=0;dashed=0;align=center;html=1;shape=mxgraph.mockup.forms.rrect;rSize=0;strokeColor=#999999;fontColor=#999999;" vertex="1" parent="NZnQUXiXrCBAcq0i8BXY-34">
          <mxGeometry x="41.25" y="55.40571428571429" width="27.5" height="23.08571428571429" as="geometry" />
        </mxCell>
        <mxCell id="NZnQUXiXrCBAcq0i8BXY-47" value="3" style="strokeWidth=1;shadow=0;dashed=0;align=center;html=1;shape=mxgraph.mockup.forms.rrect;rSize=0;strokeColor=#999999;fontColor=#999999;" vertex="1" parent="NZnQUXiXrCBAcq0i8BXY-34">
          <mxGeometry x="68.75" y="55.40571428571429" width="27.5" height="23.08571428571429" as="geometry" />
        </mxCell>
        <mxCell id="NZnQUXiXrCBAcq0i8BXY-48" value="4" style="strokeWidth=1;shadow=0;dashed=0;align=center;html=1;shape=mxgraph.mockup.forms.rrect;rSize=0;strokeColor=#999999;fontColor=#999999;" vertex="1" parent="NZnQUXiXrCBAcq0i8BXY-34">
          <mxGeometry x="96.25" y="55.40571428571429" width="27.5" height="23.08571428571429" as="geometry" />
        </mxCell>
        <mxCell id="NZnQUXiXrCBAcq0i8BXY-49" value="5" style="strokeWidth=1;shadow=0;dashed=0;align=center;html=1;shape=mxgraph.mockup.forms.rrect;rSize=0;strokeColor=#999999;fontColor=#999999;" vertex="1" parent="NZnQUXiXrCBAcq0i8BXY-34">
          <mxGeometry x="123.75" y="55.40571428571429" width="27.5" height="23.08571428571429" as="geometry" />
        </mxCell>
        <mxCell id="NZnQUXiXrCBAcq0i8BXY-50" value="6" style="strokeWidth=1;shadow=0;dashed=0;align=center;html=1;shape=mxgraph.mockup.forms.rrect;rSize=0;strokeColor=#999999;fontColor=#999999;" vertex="1" parent="NZnQUXiXrCBAcq0i8BXY-34">
          <mxGeometry x="151.25" y="55.40571428571429" width="27.5" height="23.08571428571429" as="geometry" />
        </mxCell>
        <mxCell id="NZnQUXiXrCBAcq0i8BXY-51" value="7" style="strokeWidth=1;shadow=0;dashed=0;align=center;html=1;shape=mxgraph.mockup.forms.rrect;rSize=0;strokeColor=#999999;fontColor=#999999;" vertex="1" parent="NZnQUXiXrCBAcq0i8BXY-34">
          <mxGeometry x="178.75" y="55.40571428571429" width="27.5" height="23.08571428571429" as="geometry" />
        </mxCell>
        <mxCell id="NZnQUXiXrCBAcq0i8BXY-52" value="8" style="strokeWidth=1;shadow=0;dashed=0;align=center;html=1;shape=mxgraph.mockup.forms.rrect;rSize=0;strokeColor=#999999;fontColor=#999999;" vertex="1" parent="NZnQUXiXrCBAcq0i8BXY-34">
          <mxGeometry x="13.75" y="78.49142857142857" width="27.5" height="23.08571428571429" as="geometry" />
        </mxCell>
        <mxCell id="NZnQUXiXrCBAcq0i8BXY-53" value="9" style="strokeWidth=1;shadow=0;dashed=0;align=center;html=1;shape=mxgraph.mockup.forms.rrect;rSize=0;strokeColor=#999999;fontColor=#999999;" vertex="1" parent="NZnQUXiXrCBAcq0i8BXY-34">
          <mxGeometry x="41.25" y="78.49142857142857" width="27.5" height="23.08571428571429" as="geometry" />
        </mxCell>
        <mxCell id="NZnQUXiXrCBAcq0i8BXY-54" value="10" style="strokeWidth=1;shadow=0;dashed=0;align=center;html=1;shape=mxgraph.mockup.forms.rrect;rSize=0;strokeColor=#999999;fontColor=#999999;" vertex="1" parent="NZnQUXiXrCBAcq0i8BXY-34">
          <mxGeometry x="68.75" y="78.49142857142857" width="27.5" height="23.08571428571429" as="geometry" />
        </mxCell>
        <mxCell id="NZnQUXiXrCBAcq0i8BXY-55" value="11" style="strokeWidth=1;shadow=0;dashed=0;align=center;html=1;shape=mxgraph.mockup.forms.rrect;rSize=0;strokeColor=#999999;fontColor=#999999;" vertex="1" parent="NZnQUXiXrCBAcq0i8BXY-34">
          <mxGeometry x="96.25" y="78.49142857142857" width="27.5" height="23.08571428571429" as="geometry" />
        </mxCell>
        <mxCell id="NZnQUXiXrCBAcq0i8BXY-56" value="12" style="strokeWidth=1;shadow=0;dashed=0;align=center;html=1;shape=mxgraph.mockup.forms.rrect;rSize=0;strokeColor=#999999;fontColor=#999999;" vertex="1" parent="NZnQUXiXrCBAcq0i8BXY-34">
          <mxGeometry x="123.75" y="78.49142857142857" width="27.5" height="23.08571428571429" as="geometry" />
        </mxCell>
        <mxCell id="NZnQUXiXrCBAcq0i8BXY-57" value="13" style="strokeWidth=1;shadow=0;dashed=0;align=center;html=1;shape=mxgraph.mockup.forms.rrect;rSize=0;strokeColor=#999999;fontColor=#999999;" vertex="1" parent="NZnQUXiXrCBAcq0i8BXY-34">
          <mxGeometry x="151.25" y="78.49142857142857" width="27.5" height="23.08571428571429" as="geometry" />
        </mxCell>
        <mxCell id="NZnQUXiXrCBAcq0i8BXY-58" value="14" style="strokeWidth=1;shadow=0;dashed=0;align=center;html=1;shape=mxgraph.mockup.forms.rrect;rSize=0;strokeColor=#999999;fontColor=#999999;" vertex="1" parent="NZnQUXiXrCBAcq0i8BXY-34">
          <mxGeometry x="178.75" y="78.49142857142857" width="27.5" height="23.08571428571429" as="geometry" />
        </mxCell>
        <mxCell id="NZnQUXiXrCBAcq0i8BXY-59" value="15" style="strokeWidth=1;shadow=0;dashed=0;align=center;html=1;shape=mxgraph.mockup.forms.rrect;rSize=0;strokeColor=#999999;fontColor=#999999;" vertex="1" parent="NZnQUXiXrCBAcq0i8BXY-34">
          <mxGeometry x="13.75" y="101.57714285714286" width="27.5" height="23.08571428571429" as="geometry" />
        </mxCell>
        <mxCell id="NZnQUXiXrCBAcq0i8BXY-60" value="16" style="strokeWidth=1;shadow=0;dashed=0;align=center;html=1;shape=mxgraph.mockup.forms.rrect;rSize=0;strokeColor=#999999;fontColor=#999999;" vertex="1" parent="NZnQUXiXrCBAcq0i8BXY-34">
          <mxGeometry x="41.25" y="101.57714285714286" width="27.5" height="23.08571428571429" as="geometry" />
        </mxCell>
        <mxCell id="NZnQUXiXrCBAcq0i8BXY-61" value="17" style="strokeWidth=1;shadow=0;dashed=0;align=center;html=1;shape=mxgraph.mockup.forms.rrect;rSize=0;strokeColor=#999999;fontColor=#999999;" vertex="1" parent="NZnQUXiXrCBAcq0i8BXY-34">
          <mxGeometry x="68.75" y="101.57714285714286" width="27.5" height="23.08571428571429" as="geometry" />
        </mxCell>
        <mxCell id="NZnQUXiXrCBAcq0i8BXY-62" value="18" style="strokeWidth=1;shadow=0;dashed=0;align=center;html=1;shape=mxgraph.mockup.forms.rrect;rSize=0;strokeColor=#999999;fontColor=#999999;" vertex="1" parent="NZnQUXiXrCBAcq0i8BXY-34">
          <mxGeometry x="96.25" y="101.57714285714286" width="27.5" height="23.08571428571429" as="geometry" />
        </mxCell>
        <mxCell id="NZnQUXiXrCBAcq0i8BXY-63" value="19" style="strokeWidth=1;shadow=0;dashed=0;align=center;html=1;shape=mxgraph.mockup.forms.rrect;rSize=0;strokeColor=#999999;fontColor=#999999;" vertex="1" parent="NZnQUXiXrCBAcq0i8BXY-34">
          <mxGeometry x="123.75" y="101.57714285714286" width="27.5" height="23.08571428571429" as="geometry" />
        </mxCell>
        <mxCell id="NZnQUXiXrCBAcq0i8BXY-64" value="20" style="strokeWidth=1;shadow=0;dashed=0;align=center;html=1;shape=mxgraph.mockup.forms.rrect;rSize=0;strokeColor=#999999;fontColor=#999999;" vertex="1" parent="NZnQUXiXrCBAcq0i8BXY-34">
          <mxGeometry x="151.25" y="101.57714285714286" width="27.5" height="23.08571428571429" as="geometry" />
        </mxCell>
        <mxCell id="NZnQUXiXrCBAcq0i8BXY-65" value="21" style="strokeWidth=1;shadow=0;dashed=0;align=center;html=1;shape=mxgraph.mockup.forms.rrect;rSize=0;strokeColor=#999999;fontColor=#999999;" vertex="1" parent="NZnQUXiXrCBAcq0i8BXY-34">
          <mxGeometry x="178.75" y="101.57714285714286" width="27.5" height="23.08571428571429" as="geometry" />
        </mxCell>
        <mxCell id="NZnQUXiXrCBAcq0i8BXY-66" value="22" style="strokeWidth=1;shadow=0;dashed=0;align=center;html=1;shape=mxgraph.mockup.forms.rrect;rSize=0;strokeColor=#999999;fontColor=#999999;" vertex="1" parent="NZnQUXiXrCBAcq0i8BXY-34">
          <mxGeometry x="13.75" y="124.66285714285715" width="27.5" height="23.08571428571429" as="geometry" />
        </mxCell>
        <mxCell id="NZnQUXiXrCBAcq0i8BXY-67" value="23" style="strokeWidth=1;shadow=0;dashed=0;align=center;html=1;shape=mxgraph.mockup.forms.rrect;rSize=0;strokeColor=#999999;fontColor=#999999;" vertex="1" parent="NZnQUXiXrCBAcq0i8BXY-34">
          <mxGeometry x="41.25" y="124.66285714285715" width="27.5" height="23.08571428571429" as="geometry" />
        </mxCell>
        <mxCell id="NZnQUXiXrCBAcq0i8BXY-68" value="25" style="strokeWidth=1;shadow=0;dashed=0;align=center;html=1;shape=mxgraph.mockup.forms.rrect;rSize=0;strokeColor=#999999;fontColor=#999999;" vertex="1" parent="NZnQUXiXrCBAcq0i8BXY-34">
          <mxGeometry x="96.25" y="124.66285714285715" width="27.5" height="23.08571428571429" as="geometry" />
        </mxCell>
        <mxCell id="NZnQUXiXrCBAcq0i8BXY-69" value="26" style="strokeWidth=1;shadow=0;dashed=0;align=center;html=1;shape=mxgraph.mockup.forms.rrect;rSize=0;strokeColor=#999999;fontColor=#999999;" vertex="1" parent="NZnQUXiXrCBAcq0i8BXY-34">
          <mxGeometry x="123.75" y="124.66285714285715" width="27.5" height="23.08571428571429" as="geometry" />
        </mxCell>
        <mxCell id="NZnQUXiXrCBAcq0i8BXY-70" value="27" style="strokeWidth=1;shadow=0;dashed=0;align=center;html=1;shape=mxgraph.mockup.forms.rrect;rSize=0;strokeColor=#999999;fontColor=#999999;" vertex="1" parent="NZnQUXiXrCBAcq0i8BXY-34">
          <mxGeometry x="151.25" y="124.66285714285715" width="27.5" height="23.08571428571429" as="geometry" />
        </mxCell>
        <mxCell id="NZnQUXiXrCBAcq0i8BXY-71" value="28" style="strokeWidth=1;shadow=0;dashed=0;align=center;html=1;shape=mxgraph.mockup.forms.rrect;rSize=0;strokeColor=#999999;fontColor=#999999;" vertex="1" parent="NZnQUXiXrCBAcq0i8BXY-34">
          <mxGeometry x="178.75" y="124.66285714285715" width="27.5" height="23.08571428571429" as="geometry" />
        </mxCell>
        <mxCell id="NZnQUXiXrCBAcq0i8BXY-72" value="29" style="strokeWidth=1;shadow=0;dashed=0;align=center;html=1;shape=mxgraph.mockup.forms.rrect;rSize=0;strokeColor=#999999;fontColor=#999999;" vertex="1" parent="NZnQUXiXrCBAcq0i8BXY-34">
          <mxGeometry x="13.75" y="147.74857142857144" width="27.5" height="23.08571428571429" as="geometry" />
        </mxCell>
        <mxCell id="NZnQUXiXrCBAcq0i8BXY-73" value="30" style="strokeWidth=1;shadow=0;dashed=0;align=center;html=1;shape=mxgraph.mockup.forms.rrect;rSize=0;strokeColor=#999999;fontColor=#999999;" vertex="1" parent="NZnQUXiXrCBAcq0i8BXY-34">
          <mxGeometry x="41.25" y="147.74857142857144" width="27.5" height="23.08571428571429" as="geometry" />
        </mxCell>
        <mxCell id="NZnQUXiXrCBAcq0i8BXY-74" value="31" style="strokeWidth=1;shadow=0;dashed=0;align=center;html=1;shape=mxgraph.mockup.forms.rrect;rSize=0;strokeColor=#999999;fontColor=#999999;" vertex="1" parent="NZnQUXiXrCBAcq0i8BXY-34">
          <mxGeometry x="68.75" y="147.74857142857144" width="27.5" height="23.08571428571429" as="geometry" />
        </mxCell>
        <mxCell id="NZnQUXiXrCBAcq0i8BXY-75" value="1" style="strokeWidth=1;shadow=0;dashed=0;align=center;html=1;shape=mxgraph.mockup.forms.rrect;rSize=0;strokeColor=#999999;fontColor=#999999;fillColor=#ddeeff;" vertex="1" parent="NZnQUXiXrCBAcq0i8BXY-34">
          <mxGeometry x="96.25" y="147.74857142857144" width="27.5" height="23.08571428571429" as="geometry" />
        </mxCell>
        <mxCell id="NZnQUXiXrCBAcq0i8BXY-76" value="2" style="strokeWidth=1;shadow=0;dashed=0;align=center;html=1;shape=mxgraph.mockup.forms.rrect;rSize=0;strokeColor=#999999;fontColor=#999999;fillColor=#ddeeff;" vertex="1" parent="NZnQUXiXrCBAcq0i8BXY-34">
          <mxGeometry x="123.75" y="147.74857142857144" width="27.5" height="23.08571428571429" as="geometry" />
        </mxCell>
        <mxCell id="NZnQUXiXrCBAcq0i8BXY-77" value="3" style="strokeWidth=1;shadow=0;dashed=0;align=center;html=1;shape=mxgraph.mockup.forms.rrect;rSize=0;strokeColor=#999999;fontColor=#999999;fillColor=#ddeeff;" vertex="1" parent="NZnQUXiXrCBAcq0i8BXY-34">
          <mxGeometry x="151.25" y="147.74857142857144" width="27.5" height="23.08571428571429" as="geometry" />
        </mxCell>
        <mxCell id="NZnQUXiXrCBAcq0i8BXY-78" value="4" style="strokeWidth=1;shadow=0;dashed=0;align=center;html=1;shape=mxgraph.mockup.forms.rrect;rSize=0;strokeColor=#999999;fontColor=#999999;fillColor=#ddeeff;" vertex="1" parent="NZnQUXiXrCBAcq0i8BXY-34">
          <mxGeometry x="178.75" y="147.74857142857144" width="27.5" height="23.08571428571429" as="geometry" />
        </mxCell>
        <mxCell id="NZnQUXiXrCBAcq0i8BXY-79" value="5" style="strokeWidth=1;shadow=0;dashed=0;align=center;html=1;shape=mxgraph.mockup.forms.rrect;rSize=0;strokeColor=#999999;fontColor=#999999;fillColor=#ddeeff;" vertex="1" parent="NZnQUXiXrCBAcq0i8BXY-34">
          <mxGeometry x="13.75" y="170.83428571428573" width="27.5" height="23.08571428571429" as="geometry" />
        </mxCell>
        <mxCell id="NZnQUXiXrCBAcq0i8BXY-80" value="6" style="strokeWidth=1;shadow=0;dashed=0;align=center;html=1;shape=mxgraph.mockup.forms.rrect;rSize=0;strokeColor=#999999;fontColor=#999999;fillColor=#ddeeff;" vertex="1" parent="NZnQUXiXrCBAcq0i8BXY-34">
          <mxGeometry x="41.25" y="170.83428571428573" width="27.5" height="23.08571428571429" as="geometry" />
        </mxCell>
        <mxCell id="NZnQUXiXrCBAcq0i8BXY-81" value="7" style="strokeWidth=1;shadow=0;dashed=0;align=center;html=1;shape=mxgraph.mockup.forms.rrect;rSize=0;strokeColor=#999999;fontColor=#999999;fillColor=#ddeeff;" vertex="1" parent="NZnQUXiXrCBAcq0i8BXY-34">
          <mxGeometry x="68.75" y="170.83428571428573" width="27.5" height="23.08571428571429" as="geometry" />
        </mxCell>
        <mxCell id="NZnQUXiXrCBAcq0i8BXY-82" value="8" style="strokeWidth=1;shadow=0;dashed=0;align=center;html=1;shape=mxgraph.mockup.forms.rrect;rSize=0;strokeColor=#999999;fontColor=#999999;fillColor=#ddeeff;" vertex="1" parent="NZnQUXiXrCBAcq0i8BXY-34">
          <mxGeometry x="96.25" y="170.83428571428573" width="27.5" height="23.08571428571429" as="geometry" />
        </mxCell>
        <mxCell id="NZnQUXiXrCBAcq0i8BXY-83" value="9" style="strokeWidth=1;shadow=0;dashed=0;align=center;html=1;shape=mxgraph.mockup.forms.rrect;rSize=0;strokeColor=#999999;fontColor=#999999;fillColor=#ddeeff;" vertex="1" parent="NZnQUXiXrCBAcq0i8BXY-34">
          <mxGeometry x="123.75" y="170.83428571428573" width="27.5" height="23.08571428571429" as="geometry" />
        </mxCell>
        <mxCell id="NZnQUXiXrCBAcq0i8BXY-84" value="10" style="strokeWidth=1;shadow=0;dashed=0;align=center;html=1;shape=mxgraph.mockup.forms.rrect;rSize=0;strokeColor=#999999;fontColor=#999999;fillColor=#ddeeff;" vertex="1" parent="NZnQUXiXrCBAcq0i8BXY-34">
          <mxGeometry x="151.25" y="170.83428571428573" width="27.5" height="23.08571428571429" as="geometry" />
        </mxCell>
        <mxCell id="NZnQUXiXrCBAcq0i8BXY-85" value="11" style="strokeWidth=1;shadow=0;dashed=0;align=center;html=1;shape=mxgraph.mockup.forms.rrect;rSize=0;strokeColor=#999999;fontColor=#999999;fillColor=#ddeeff;" vertex="1" parent="NZnQUXiXrCBAcq0i8BXY-34">
          <mxGeometry x="178.75" y="170.83428571428573" width="27.5" height="23.08571428571429" as="geometry" />
        </mxCell>
        <mxCell id="NZnQUXiXrCBAcq0i8BXY-86" value="24" style="strokeWidth=1;shadow=0;dashed=0;align=center;html=1;shape=mxgraph.mockup.forms.rrect;rSize=0;strokeColor=#ff0000;fontColor=#ffffff;strokeWidth=2;fillColor=#008cff;" vertex="1" parent="NZnQUXiXrCBAcq0i8BXY-34">
          <mxGeometry x="68.75" y="124.66285714285715" width="27.5" height="23.08571428571429" as="geometry" />
        </mxCell>
        <mxCell id="NZnQUXiXrCBAcq0i8BXY-87" value="3" style="ellipse;whiteSpace=wrap;html=1;aspect=fixed;fillColor=#f8cecc;strokeColor=#b85450;" vertex="1" parent="NZnQUXiXrCBAcq0i8BXY-34">
          <mxGeometry x="11" y="60.95" width="12" height="12" as="geometry" />
        </mxCell>
        <mxCell id="NZnQUXiXrCBAcq0i8BXY-88" value="" style="ellipse;whiteSpace=wrap;html=1;aspect=fixed;fillColor=#d5e8d4;strokeColor=#82b366;" vertex="1" parent="NZnQUXiXrCBAcq0i8BXY-34">
          <mxGeometry x="55" y="66.49000000000001" width="12" height="12" as="geometry" />
        </mxCell>
        <mxCell id="NZnQUXiXrCBAcq0i8BXY-89" value="" style="ellipse;whiteSpace=wrap;html=1;aspect=fixed;fillColor=#d5e8d4;strokeColor=#82b366;" vertex="1" parent="NZnQUXiXrCBAcq0i8BXY-34">
          <mxGeometry x="41.25" y="66.49000000000001" width="12" height="12" as="geometry" />
        </mxCell>
        <mxCell id="NZnQUXiXrCBAcq0i8BXY-94" value="" style="ellipse;whiteSpace=wrap;html=1;aspect=fixed;fillColor=#dae8fc;strokeColor=#6c8ebf;" vertex="1" parent="NZnQUXiXrCBAcq0i8BXY-34">
          <mxGeometry x="84.25" y="66.49000000000001" width="12" height="12" as="geometry" />
        </mxCell>
        <mxCell id="NZnQUXiXrCBAcq0i8BXY-92" style="edgeStyle=orthogonalEdgeStyle;rounded=0;orthogonalLoop=1;jettySize=auto;html=1;exitX=0.5;exitY=1;exitDx=0;exitDy=0;entryX=0;entryY=0.5;entryDx=0;entryDy=0;" edge="1" parent="1" source="NZnQUXiXrCBAcq0i8BXY-91" target="NZnQUXiXrCBAcq0i8BXY-87">
          <mxGeometry relative="1" as="geometry" />
        </mxCell>
        <mxCell id="NZnQUXiXrCBAcq0i8BXY-91" value="&lt;span style=&quot;font-size: 11px; text-wrap-mode: nowrap; background-color: rgb(255, 255, 255);&quot;&gt;stat dots of goods and bads&lt;/span&gt;" style="text;html=1;align=center;verticalAlign=middle;whiteSpace=wrap;rounded=0;" vertex="1" parent="1">
          <mxGeometry x="430" y="293" width="60" height="30" as="geometry" />
        </mxCell>
        <mxCell id="NZnQUXiXrCBAcq0i8BXY-96" style="edgeStyle=orthogonalEdgeStyle;rounded=0;orthogonalLoop=1;jettySize=auto;html=1;exitX=0.5;exitY=1;exitDx=0;exitDy=0;entryX=0.5;entryY=0;entryDx=0;entryDy=0;" edge="1" parent="1" source="NZnQUXiXrCBAcq0i8BXY-95" target="NZnQUXiXrCBAcq0i8BXY-94">
          <mxGeometry relative="1" as="geometry" />
        </mxCell>
        <mxCell id="NZnQUXiXrCBAcq0i8BXY-95" value="&lt;span style=&quot;font-size: 11px; text-wrap-mode: nowrap; background-color: rgb(255, 255, 255);&quot;&gt;Journal entries&lt;/span&gt;" style="text;html=1;align=center;verticalAlign=middle;whiteSpace=wrap;rounded=0;" vertex="1" parent="1">
          <mxGeometry x="556.25" y="293" width="60" height="30" as="geometry" />
        </mxCell>
        <mxCell id="NZnQUXiXrCBAcq0i8BXY-101" value="Application window, not widget" style="text;html=1;align=center;verticalAlign=middle;whiteSpace=wrap;rounded=0;" vertex="1" parent="1">
          <mxGeometry x="790" y="343" width="60" height="30" as="geometry" />
        </mxCell>
        <mxCell id="NZnQUXiXrCBAcq0i8BXY-110" value="Calendar &amp;amp; Stats" style="rounded=1;whiteSpace=wrap;html=1;fillColor=#ffe6cc;strokeColor=#d79b00;" vertex="1" parent="1">
          <mxGeometry x="280" y="390" width="110" height="30" as="geometry" />
        </mxCell>
        <mxCell id="NZnQUXiXrCBAcq0i8BXY-111" value="Journal" style="rounded=1;whiteSpace=wrap;html=1;" vertex="1" parent="1">
          <mxGeometry x="280" y="420" width="110" height="30" as="geometry" />
        </mxCell>
        <mxCell id="NZnQUXiXrCBAcq0i8BXY-112" value="" style="rounded=1;whiteSpace=wrap;html=1;fillColor=#e1d5e7;strokeColor=#9673a6;" vertex="1" parent="1">
          <mxGeometry x="-330" y="840" width="450" height="190" as="geometry" />
        </mxCell>
        <mxCell id="NZnQUXiXrCBAcq0i8BXY-115" value="Then stand up and go to run!" style="text;html=1;align=center;verticalAlign=middle;whiteSpace=wrap;rounded=0;" vertex="1" parent="1">
          <mxGeometry x="-220" y="890" width="220" height="40" as="geometry" />
        </mxCell>
        <mxCell id="NZnQUXiXrCBAcq0i8BXY-119" style="edgeStyle=orthogonalEdgeStyle;rounded=0;orthogonalLoop=1;jettySize=auto;html=1;exitX=1;exitY=0.5;exitDx=0;exitDy=0;entryX=0;entryY=0.5;entryDx=0;entryDy=0;" edge="1" parent="1" source="NZnQUXiXrCBAcq0i8BXY-118" target="NZnQUXiXrCBAcq0i8BXY-115">
          <mxGeometry relative="1" as="geometry" />
        </mxCell>
        <mxCell id="NZnQUXiXrCBAcq0i8BXY-120" value="LLM generated advice&lt;br&gt;based on journals goals" style="edgeLabel;html=1;align=center;verticalAlign=middle;resizable=0;points=[];" vertex="1" connectable="0" parent="NZnQUXiXrCBAcq0i8BXY-119">
          <mxGeometry x="-0.4011" y="-1" relative="1" as="geometry">
            <mxPoint as="offset" />
          </mxGeometry>
        </mxCell>
        <mxCell id="NZnQUXiXrCBAcq0i8BXY-118" value="" style="shape=image;verticalLabelPosition=bottom;labelBackgroundColor=default;verticalAlign=top;aspect=fixed;imageAspect=0;image=data:image/png,iVBORw0KGgoAAAANSUhEUgAAAQAAAAEACAYAAABccqhmAAAACXBIWXMAAAdhAAAHYQGVw7i2AAAAGXRFWHRTb2Z0d2FyZQB3d3cuaW5rc2NhcGUub3Jnm+48GgAAIABJREFUeJztnXm8XdP1wL/v5b1ML2QgSAg3SAwxi5hFtKpFqqX82qJKWxStDj81K+1Pi5/SGoqq9ldVU1VVUI0S1BhJDSEkkURSiZBR5um99/tjvZvcPPfed849a+19zr37+/msD9pkn7X3PXudPayhjkCa2RjYBdgG2BoY0PbvWwC9gAagJ9AI9Gj7O0uBNcAKYH6bfATMAKa3yURgpqtOBNJLnW8FAuvoCuwLDAX2bpNB2P1GC4HXgfHAs8DziLEIBAKOGAicBYxCvtytHqUFeAO4CjgI6GTY70CgZtkGuBRZhvuc8B3JXOAW4GDCSjEQSEQP4BRgDNCM/8kdV95DjFY/5XEJBKqaLYCfI/tt35NYQ1YD9wHDNAcpEKg2tgV+BSzH/6S1kueAkVoDFghUA/2A3wJr8T9BXckYYB+NwQsEskp34DL8n+T7khbgXsRXIRCoKb4MvI//SZgGWQqchzgmBQJVzebAg/ifdGmUN4C9Kh/aQCDdHI/ck/ueaGmWNYhTUVgNBKqGHsA9+J9cWZLnga0qGexAIE0MBibgf0JlUeYCR8Qf8kAgHRwLfIz/iZRlWQv8KO7ABwK++QlyzeV7AlWL3E44F0gNIcijNJ2Am4EzfCtShBZkRbIUWNYmC5Eziq5IHoEmYFPSGdX3BLKqWupbkVonGIDidAbuQk77fdKCnDuMByYDk9pkKuKX3xGdkejDgYh78m7A/kiSkQYDfePwInAksMizHoHABjQBo/G3RH4HuAk4DvmCW/VxOHAl8JbHvo437GMgEJvOwD9wPxFmA78AdrfvYlEGA+fjxxiMR9KaBTwQtgDr6YT4s3/J0fNagUeQpBujkTwBaWA48G3gi4hBdMG/gM8i0ZMgZxk7I1uWAYjX5RbAZkjAVXuD0QNYCSxok4Vt//wA2TpNaZMZpGecAymiDjmddvHFa0YMzW5OelY5WwDXI8lFXYzLC8BDyPmG1a3LKuDfwI3AVwjBS4E2rsTNS343stzOElshq5TVuN8euJD/AL8DjgG6KY1ZIEMcj/09/0RghKsOGTEYeAr/E9ZSliEBXqcAG+kMWyDNDAGWYPtCXYC7vbQ1dcCpSPpw35PVWhYDtyHp2QNVSE/kTt3qBXoD2MlZb9yyGfAo/iepKxkHfIPqMeQBbGP5b6f695N1wEXUVvqzGcgNSReF8Qt45GvYvCDLga867EcaGEHtBUq9D3yHYAgyyZbYpOleABzosB9pYCfgMfxPSF8yGfhc4lEMOMXihZ2NPy8+H/RCsv2swv8kTIOMQmItAinnNPR//ElIwE0t0Ak4k5AOrZisQM5E0hh9GUDudT9A90d/n9qZ/IcCr+F/oqVdXgS2r2yIA5b8HN0feiHpd+fVYABwJ/4nVpZkMXB6JYMdsGEbdH3alyFx9dVMD+BnuIsFqEa5i+q/Ds4E2pl8XUUM+qAOuSadhf8JVA0yFugf6xcIqLIrur7+N7pV3yn7Ai/hf9JUm8wi1E/0hub+dRzV6fyxJTJOWUh+uhw5fH0d+T3eREKIpwJzUqBfOb2PjfqDuKLaE4JsDbyLThbaxUi5q6kKbaWFrsAPkOurJs+6FLIEmdiF8i4wj/VJQ0rRFfnd87ILsrLZq+3/88laJNLwbs961AzXo2fBz3asuzXHAdPw/2VsRZKkjAV+ChyETcLSRmAY8D0krNlXDMNaJKIyYExv9EJ9x1E9Dh67A2PwP+lbkUl/BtDXtMfF2RRxDBuF+2QnzYhDVcCQs9D7sfZzrLsFfYBf4T96bxESZ7+nbXdjsQWSFNVlmfcWZDsQMOJFdH6oW10rrkwjsuy1CICKI/OBCxH/grTSFfg67rIjrwIOc9GxWmMQOifaK8n2He6n8V/QdAkSONTLuK+a1CO+ELOxH5+Pqa1AMif8FJ0f59euFVdiMJJy3OfEX41sOfoY99WSJuAypISZ5VjNRK5iAwnJn/TOQOcFzjnVPjk9gWvxH6b7ONWVDm1b4Blsx+w5/Jdryxz1yIS/HDnZXobeD/J/znqRnHrgW8CH+J34k4Cjjfvqi3rgh9jGRlzlrDcZpgEpKvl/2L7wWckGewhS7MLnxF+ETI5aSJq5M+KYZDGOLYQMQyXZC9mTu0hG8ZajPiVhG+A+/E78ZuA3SJbgWmJj7FKhzUWKsQQQv/uv4z5A5XwHfauUJuAniEusz8n/DOm6y3dNJ3Q9TQvlMYf9SCUbAefh5hqm2FctjRa4Dsk4/B/8Tvz3gBNsu5opvo28M9rj/F8uO5EWuiOBKQvw94KPMe9lfIYCz+N34i8FLiUkuCjG6ehHUn6AuLPXBJ2QU+w0JKG42LivceiHFK60+MJElRYks00aV0Vp4mz0jcBtTnvgiX2B8fif+Hk5wLa7keiCnEMsxu9YjKX6U59p8n30jW/Vjn9PxML5/Lq1l8Xo5A5IwheQ2Hef4zAbCVSpN+5rNfJLdH+L59yq74YD8f+SF5NHLTvdATvgv8rOKsR9d2PjvlYzDeiXUU9dJqFK6Qz8gnR99QvlCruul6QPcBOwpgJ9NeUvhOo2WvRFxx09L+9QBfkotib9CSddFvZsAM5BwmR99vkNQkiqBXsj0aRav9NX3Kqvy2eQfG6+J3hHspfVALTjcOzcSaPKXOQOO/NflhRzGbqGOpM5PM/E//I2irRgn6xiU+B+z/1cjRxU1cwds0c6IxNX67cb6Vb9ZNQhoam+J3ZUed9mGNaxOVJO2mcfqy1MNwsMQy8N22jHuldMJyRaz/ekjiOvWgxEG53QPxmOI5OAowz7FyjPdej8ji1IspdU0xn4M/4ndFx51mIw2vi2pz5lLUy3HhgBfBeZNJcgB7NZzioEkg5Ny739Ose6x6IB+CvuX3QNF0xLHwDXB35ZC9NtBL4DTKF4f5YDd5Dta8oL0flt55DSzEH1wB9x+6LPAa5E3CWTtnWf/pAA4uDjckyyFqZ7JHLPHaVvK5CKxWnOLFyKJvRKl33Wse6RuAl3L/lryL1ofmm7jUKbv1UejzyfU+x3OXkPON6oDxYk8XychWTtzdq12A/Q+a3vcq14R2h1rCOZjEz89j7qOYW2rSKvvqGgWzlZiuyVsxKm2wvZx2pU43mZbBVt6YVOhuGF+I9ZWccx2Lv2zkdKSJXa++QUnmFlAE5X0K2Y5MN0s5JOuhMyFh+hPw53kp1xuB2dfo9wrXgxdsY+Z/o9yB16OXIKz8mSAXiZbIWJDkeuWS3fk6VILgffFYA7Yk90+vsL14q3pwe2JZTeJ/rddU7heVkwAPkw3azsfXO4vxKehlQ+TjPjSN7PN5xr3Y67sPsRnyTeFVZO4ZlpNgBZO/1uQqozWebQ70jGkN6SWxeRvH/NePSPODGCgpVICxKPHveeM6fwbCsDcEZCvUaRnfvvOuQm4j38Tfz2k+RO0ucPsRM6/fu8a8VBimVahLCupPKlW07h+WkzAK+TrTDdYcAL+J/0xWQhUiE5NSfnwNsk79fVzrXGpujkxyQ71cwp6JAWAzAPiaDMSphuPyTuQzshpoW8TXqcaDQC5f7hWunjFJRuLx+SPA4/p6BHWgzAl4z00KYLcAFS/tv3xI4rj+A/qOZYkvdjjkuFm5Ayxpo/xHxgiIJuOQVd0mIA0vKFKscXgan4n8hJZBXyFe6pPDZR6R9BxyjS0RV5WeJkfb0YGJDkYe1YjiQ4yEIdvoCwK3JD8yDZOZgsRWckUnIyUpPCdQbk2UjewKQMSvKXo3Z6S+QQRYs1SHmpFxTbDNixCXAzUoVY+2CyFQnF/li53ahshkROjkMqLbtknEIbA5P85agGQLsk1Pfxm4I7EI0GJDZ/CnAW+mGo45FJNxzZk/8WOUz0wZ5IJOV9SHCZC95VaMN8JTYIncCNvNxroGNOQS+rM4AzY+qRljOAT6Gbz65Q5gHnUvymIz8RfZ4PLAeuQorUWpLUR8TyvV3HvQpK5mUSNkUncgq6BQMgbI9d4tLViKNXlIO3kYhbr09DYB12fLiCjn8x0g0QjyWtSL+V6Jz4FyOnoF+tG4CNgWuQ03GLyfQ3xLjEoRuSWnuZkU5R5XmkQrM2gxR0e8ZAr3XcrKBgXi4z1DOnoF+tGoB6JGeBVraa9vIm8qVLwgDgbvw6GzUjlZq3SNiXQjZX0Ot1RX02oBd6Th7vII4jVuQUdKxFAzAMeDGmflFlAVLhWDMh6T74dzdeClyOTthxDwV93lHQoyg/VFCuFbGcB1kp2UZOQc9aMgBbIkEyFl/UNchY9jXSvQ7Zl39goHscmdmmR9K+JN1iT0+oQ1Hq0avee4+Fgu3IKehZCwagO/L1stpTj8bunKc9GyHBMJr19yqRJ4BdEvQjaUKdWQmeXZIRCZXKy1rcVKLJKehqZQDi1gSwMgAjka+FxSSYgr+EpNvhv9xaPuy4klVP0rJ5Gt6En+DWhErl5Q8WyhUhp6BrtRqAvRBPO4sXX3M/nJTDkAMxn4Yg7rlHZ4VnTo48QhFpQCL0kiq2FncRVzkFfavNAGyC3Llr1aUrlHwiTs0TcQ3qkX25duLRuPIOUu+gI3opPGtCrBGKgIZzQivygrgip6BvtRiAzsB5iG+9xcv9L2DvhDpa0we4Ef9VqR+ivO+DRkTgixWNUBvFYgFOSNJgAbcrtROIzkjk3v0abDwulyA5/ccbtK3JAqTU2B7APz3qcQzye1xNcbfi/grPmKfQxgbMILlVmoTbzLU5BZ2zvALYAQmucvVlewrYrQI9ffFpYCJ+VwPF4h+OV2j3jiQD034FsC2wdZIG27gDUS5gSx/gBuQrE2XPqcUIZBVwM3LWkHb+iQQZnY+sYnywCfBL4CXggLb/LafQ7lyFNtZxGskt0hrcHw7lFPTO0gqgAQnPnRezbQuZjyy3U1mxtghbIC691tWsykn+EFXj+vIMzcG5U0Eh0+CEEuQq1NWFATgrph4dGYAR+L/uKiZRT77TguX1qEv5VJJBaL8FGJ6ksTZGK7RRTbQqtbMdkoorrfvv/DnE30iYpsoR/0be968iVaiyyrQkf7nQAPRGZ///uEIb1UTSw9AmxNnmTSQZZ9r5PJLnMWrcv09aEVf1HZAMx0v9qhObpST0BCw0ALsm0wWQPemrCu0E1lfZeRv4MfredpOBoxG/jzeV225EUolNpXTmnzSxHLmq2xH4I3qrNmteQzGFWtzDqmJyn5YyMclF1K+cpOkMYH9grEKfiskCPlklpxHJ07jQ6JnjsI8I1eRg5JbD9/6+I7lJs9M3KSh0saZCMchF1C8LBmAcNmG6a4FbgE3L6NoXiQOxch++B93U8pbUA99Exy3eSk7R7PBTCgodo6lQDHIR9cuCAbCQuAeHuyPVdS10WYZsabrH0McnPYH/xS5VWhLJaXZ0ioJCvopF5CLqV2sGIGnSipHYVQB6H9uEm9pYJkut9LdVZVFChZbivrpKnlwE/WrJACxBatBrHBx2RbZ2SRNXlJJ/kbw2pEuOwL9bcStSkFWNbgoKaZ8kxyFXQqc0GICzFXSLKi3IV0rjOrc9/ZExsvCgS2t4cSkagNMRN1xfBkC1iOw2Cgr58ADMkyuhUy0ZgFeAA436UMhQ4DmjPuQTjFgmkNWkD+Lv4DrseBXKRUuGKij1V02FYpIroVMaDID1FmAWcDJu99L5xJyzFPtRKJOR84essBtSNNWVAXhWuwMHKSjlM/4/V0KnNBgAqxXAKuTrYxH3H5V8ktEV2PTxSXQc1FxheWhaKGsRJy41hisodY2mQjHJldCpWg3AAySsCqvMQEQni5d9DWLoejvrTTLyh6ZWRjEvi4CdtZQ+TEGhYACKo2kAJiKn0GnlUMQ91eKFn4+4FWcl7Hg7dHxrysk0lOovaOQB/JWGIhWSK6FTtRiAuUh9gbT71IPoeCZ2J+RvIB+sLFCPnAEtxs4IjEHBKB6hoMgtSZVIQK6ETlk3AKuRLDJZWf4W0hvRXbO0fKE8iD/Hs7jkkPBjKyPwk6QKHqigxG+TKpGAXAmdsmwA/kmyijNpYTAwCpsXP19u3OdBaFS6Ar/HZhyagUOSKLezghK+IgGhugzAJOAoI118chTSN4sJMBsJjMmCW/H3sfEbmEoC34B+Cgq8UOnDFciV0CmLBuAzRnqkgc9hYwDy8jKwn7PeVM5R2NwS/C6uInnf/YUVd2U9Fu6n1UAWvkrVwjDkQ3Q/4t2aVh5FjOEy5XZPJWZa+bwBWIlYpCT0Q7cWfLXQ6luBGiOfSekt4BIkziWNPI2kT9M2AtexYbKXshRG772X8MH1wFYJ26hGwgrAD03ATxHfCdXAGUWeQjz6Vim2uROSji0ShQbgXYWH767QRiCgSQ74M/LF3cOrJsV5GviWcps/JmLZsUIDMEXhwfsqtBEIWDAcSbd2K0rec4r8EbhKsb2NkNVPh2gbgCycwAayw2Ll9johlXQmI9dxkffKDrgYqSasxdeIEC9SaAAmKzx0KNnx1Q6kn/9mfWJOTXohh2UTkNP4NNCCTNrpSu01ABd29IcKDcC/SZ5jvIlspXcKpJsWpNDsYCQx52rl9ncAHkOu5XZQbrsSliBXeVq5/k+hg+v5QgOwCDkxTYqvzMCB6mUx8CPENXqUQftHIquB65DVgU+eQSo+a9AZqYhckvZJPF9UeGgWylcFsskU5O48n5hTk3xxlMlIvj+fkZcXIcVWNfg6ZUq0WRiAndrEJc2Onxfwy2jkyvlcdLxYC+mLuIWPQ6dYbiWsQPqmQXfgxFL/Z3sD8JzSQ49Vaicqc0huBHbBplhFcASyYS2yVB6EhKJrfwT2QO7o70e5AEdERqNXaTuWn4FGxNY03C+hpivoPRP4CrqT9jsxdQjBQOvlGzHa3hW7xJwrkMQertkdvTTsQ4s9oFghj4cVFB+IctLCCDyg0MYA4G6kWMXeCu0F3DEB+BSy+pym3HZX4GYk2s7liu51xElIg29G/YMaGYJbkYQWLtkO3TjrZuQKKmmxirACWI/lCqCQLsAFyLWa9mrgvAp1qpTB6KwC5hCxclcn4COFB7YAQyrvd0Wcp6B3e/kYuYKqtFhFMADrcWUA8vRDSmhpVlteg/tUZI8p6X5A+4aLWYRmdFwS64BLFdqJw7XAn5Tb3Bi4Gil9FnwcssUHyDXYfujccMH6smAuuVGpncjv7zB0LE4LsI+S8lGpR77YyxPqXkqeIN7KJqwA1uN6BVBIHXASUpU46TugETcTV3eNw/m34zxUK7/70xV0WIMcduWc1yBWuU8EPYIBWI9PA5CnCRgfU4/2shr3t1xa29vtChstdyigVeprOO5vBEASnJzA+mIVmjQA5yBfgnMIAVBZYhnyNU1CI7CZgi5xeFCpnQ0KyJYzAHchy2gNbkC5mmkMnkGu9E5BP6qsD7ISeBPxJy9GcASqTlyvAKYi14JJ2b/wP8oZgI+RE1QNBiIHab7I15/fEQn4WKPc/g5IRNlDwPbKbQcCeTQqcG9wE9DRveDV6IVgnon//e0i4IeI19hjBu0fg6wGriYbxSoC2ULjdm4IBavxjgzATOTLqUEd4ljjO9wS1hffOBK9qKs8XZBbiEnAaYQtQECPCcjKPAmdKMjZEcUz6OdI4IUGWyGutmkpcvl3YDfgB8jqQJMtEIP3P8rtBmqXFmCsQjuD8/8SxQBMQ88fGeQq6FrF9pKyBrgeGZTb0I8q66HcXqC2eVmhjUH5f4nkG4zkFku69Cjke8iZQJrIl+DeFfiHZ10CgVJ4MQAfor+UvQHJ7JI23kbKKx1P8mIpgYA2byi0EdsAgJRhjuVK2AGNyKlmWrKytucBJLPRJeiXbwoEKmU2yc/kcvl/iWMA1iBurZp0RYzAF5Tb1WIlcCVyPvAb9LK1BgKVshYxAklooi26NY4BAMm4ErsEcQd0Bu7DfRqxOMxGCkociM4pbCCQhBkKbVR8Hb8RUkdQO8CmGcmGmvZ78zqkgMMsbAKN3iG926IkHEX8iDaLYCCQq+ikv5PPQrh3ldErquyYRIF9EA9BiwnwMNnwousOXI7ki7MYh7hhx2llMPAIlY1BMADFua2MXlFl/0+0GpPLFZQoJRMoOKlMOdsCf8FmHFaTjmIVldAb+CXJPhTBABTnxjJ6RZVPJ1WiAalvbmUEliGFGtLiNdgRI5BoLYux+Ag5g8jCWHRC/CnmkrzfwQAU57oyekWVwzQU6YNUUrEyAq1IzcI9NZR1QD1yPvAhNmMxkXT6TuQ5FL1EMsEAlOaqMnpFleFayuyIVGexNAKrgCuAblpKG6Ox/C0nf8ZPsYpSDET8JrT7GQxAcTQMwMGaCh2ObkruUvI+8oVN+01BniQHYFGM4q/wl2gF7A9CgwEozu1l9IoqiQ8B2/OcglJR5VmyVYb8aHSSOpYyiifh1ihaX4UGA1AejUNn1fnTC7vlbilpRnIVbK7ZEUMakYKPi7AZj1cokvfdgKHA80Z9CAYgGs+U0Suq9NdU6EQFhSqVpcgytNLCHa7ZBFm6r0V/LFqQTMhbG+jdn/Xh0q5+22AAivNmGb2ivieNmgppDGhSmYSf7MOVsieylbEYiyVICHdXBT27Ahcjhtb1bxoMwCepAxZH1LGUzNdWynovGEf+iZT6zgojkaQrFmMxE9mrJ9FtqpFuwQBUxsAYOpaStzQVGqygkLasRq7hemt21JBuwGWI85PFeDyFpD6Lyu7AGCNdggFIxsgYOpaS0fnG4kYDFuMQhTa0yR+4TUa80tLuQbcC+AmSXjz/cmoyAnGougXYtMyf6wvcilTOOVRZh1ZgnHKbtciuCm1MVGhjHRqBCdbyOjIJssIByKm+xVgsQIxj4SFQI+J2beXQ9TJSoPOImH8vrAA+yb0xdCwl39JUaKyCQq7kAWQPlQXqgVORCrcWYzERSX32OSTTk8UzZrGh41YwAMmoR8fNXO26uAE7LzAryXvQZSHkGCR7y+Vka5xLjXEwAMnYO4G+hbIuujTpGcB26Fw1uaQz8F3kC3gy6XcrXoYYgF2Av/lVJRIPIrkUz0WuqwJ6aASCTaOgBoaGAcgqWyKehGNx40GXlKlI7sTD0MkMq00+k9FxyEsW0EfDADxd+B9JDYDGfvpepAhpq0JblTAUiWP4A8rukUaMQZaC5yAHer6ZB5yFrFAe96xLNbM5OgE8Txf+RxoMwFjksOsA/CXczAe3TELPg86StcDNSNakm9Ar3RaHNcg+fzByvahdUSmwIaeg4747RqGNdWgkJzymoL06pCDHDIV2k0hSDzrX5MuTuxqfSr0twyFg5Wjc1EzRVupxBaWKeaj1AH6G/5PvJ9FxvHDFMST3Ey8nSeMtggGojEMU9G1FcgmqMl5BqU3KtG+ZcDOqrAV+3YGeaWAf7MJ0FwH/jdygJCEYgMrQWGm3opwFCHTyAUYJ4z0U3VxzlchC4HySTwJt+iHemBbhxdo5F4IBiM/26GTbmo2O6/8GJN2rxzm8sk64GVUmIUUufJOPd/gYm37m3Xc1CQYgPn9U0LUVCY5TZ05CpSopOd4LSYq4KuGzk8oTwM4V6K/BSGyqM7Vim3cxGIB4DEYv16aJr0vS3O9zEzx7J3QOIZPIKuAa3LkV74KcwFv0ZRnwY2wzLwcDEI97FPRsRZy0TDxekyYC0Si7fTT2tQk6kjnIy6q+x2pjE+S+3yLzcgsyIQYY6V5IMADROQi99GvnWCk5PaFiLehMGuuEm1FlPLonrQ3A6UhloCzo2xHBAESjM5K1R+M3XozhClXDOUEzr/3mSM50l4kr20sLsnRL+kU9HL2XoL18AJyG3YqlFMEAROMKBf3yYnL4l+cFBQW3NNBrL+wSbkaV/J66e0zdByFRfxY6rQKuxl8odDAAHbM7egfcazEusvuwgpKWkXiWCTejStRT9Xzc/0ojPZ5ADk59EgxAeXqgm5zlDwY6bsAdCkqeZKxjN8SBx9JFNoqUulfPByJZZf55BziyopHTJxiA8vxZQa+8rMZBuP5PFRS9zFrJNgYge/MWBZ0rlWbkjCLvWXcQkijT4lnzge8gB4lpIRiA0nxPQadC+bWyfkU5VUHRO10oWsCB2E26qLIIKe9kYYzWIFeGaYxdCAagOF9A15V7GRFzWyQ9BZ6e8O+DJLdwyfPAMOTlmuP42Xl6IhFe2s4ZTyIVh87BoPpLwIThyMpUM3X9LxHff3O2Irm1asZfAY+NEU8+327FSeVd5CuSdsIKYEP2RN935T1i3DwlXQG8T/IvTT2wb8I2KmUx8CNgCHKjkTWWABcg+j/kWZcoZCUTswv2Rdy6eyq3ey6wXLnNsjxJcqt1hUuFy2DpfKMpzcDvkVDgLNAJ+DaSPzCsAOAz2BRb/WsCnSrmFxUqWyhpKhnVgJyez8f/RC8mLyDJP7JCPotxJX2tRgPwZWy2nHPRy9sQiy9VoGwxSVvFnt5I0kuLAJxKpH2VnbQzALnhSdLnajIADUgYu9U19PEx9VFjM3Q69V3XikfEMgQ3iixHCoc2WXdUCc18jtViAPoD/1J4Zim5I+4AaKPhvvi0a6Vj8kXsknCUkvuBbVx0ToE6JHX1bPT6Xw0G4Dhss1i9hm0Oh0jcQPKOtCAZUNJMF+TU3dqt+FXSWXa9FPshrs7a45BlA9AfKZNm+Z4sQnIGeucz6HToeteKV0g/pJqRdtjxh0j8v6ZTiCVbIjnrrPa1WTQAjcDZ2JVaz8sadEqFqdAFna/iAuKHz/pkH3RColcjtynad8JWdAMuweYqq1BONdLfwgDUI4FtUxXajiJnaQ2GFvei07HTXSuekDrgRMQpqpL+PopU9skKXyJ5JqiocqxRH+5X0C1vALogE3+CYr87kmuVx0OFkeh0bgbRagWkjSYkOnI50fr5NlJNNyvsgRzUunrJW4EdjfrydwXd9geuxH2a+ttJ6VVwZ+J7epWStF4JRiEH/IbSy+NJyB5Ro9CjC/piV3iknLxq2KfnFPTzEVZ+N+7TuMUenRw3AAAH30lEQVTiJnQ6Oofs3HuXohdwAnJrcDWyZzuYlFrvIjQC38f+MKuUfMuwb5V6JvqUO0lXboeiDEHPMv6PY90D6zkSySTk62Ufje1NyHSPfatEbiHlX/5CxqDT6dVIgsSAO3YAHsPvy/4Osu2wog772wstaUG8QLOyagTk5FZrAF4hA8ueKqAXcB1idH2+8PcBfYz7qpHDwoWsBE42GgNT6oGJ6A3EeW7Vryk6AWdgV3gkqryFhGK74NOO+pREPsBtwRZ1TkZvMJYDu7pVvyY4FP8l130kLj3boB+a8gzZyfNQkgZ0A2fexX5pWCvk0E0/XYmsAW7GT+JSjbgVC1mL+BVUzZb3BHQH6Amy4yOfRrojhUeiOipZyVPAbrZdLYtF0FJSmUq2gr8iUQe8hO5AXe20B9VBHeKqWqmrspakIXFpT9KT4KW1TZdryVb8SywOQtdjqgXJLReIxjDgRfy+5IsRZ6g0uHdruatryHP4XQk543foDlwL8E2nPcge/ZG6cL6rIP2edB1oXY//iT8N+CoZu9tPwiboB0w0A1932Ies0BW4EEkX7vMlT2vi0jfxNyYfIDEunc17mUJOQn9Am7FLGJFFjsVdLHop+Q8SGp3Gr9tu+BmT6UgcSFf7Lqab0dgM8DVkyE/agN3Qqc2QRJYjodBpDuD6X9yNRwty23ECVXStl5Stscu1/zCwkbuupIJNkQqwrsN020sWEpd2QtKqW4/Ff5BTfas8BplnJHYHU29QGwPfiJR/WoDfif8qUtgyC8StSRhHZiCGeDi1vRKNzLXY/RjLkRj2av0hjkA3zqIS+YhsJS4FeAS9/i9C0rj9iOCiXhGN2N9NP036Kg0lYTAwCr8TP5+4tJdxX7XZE51V5wzkvKVaPy5OGYC9Z9oS4FLSfTDVEb2Qwyvf5cuzlri0kAfQGYOQoEaZXXCTbmousmfO0mlsD+B8/O/zJwFHG/fVkp3Qq91QC+dLzjkcd0ko3kKch9LgklqKHojbrFZy1UplIXKWkpXEpaV4CJ3xeNG14rXEV3DrsvoRUqV1axedi8jOiE5z8Tvxm5Hkk17KTCujefJ/pmPda46zce+3vho5WDsNuVN3TV8kG88rEfW1ljFUTw7Gbuh5RS4mewefmeSb6NfaiyprEW+6cxEfdoulbyMS830lMul99bW9TEeq/VQTV6A3PqmswqNF2ny2T0YiyHzfMa8E/g2MRc4OZrbJDKTufTmakBXF9shB5y7I9dEQ0nUjsQz4OXK1t9KzLprsDTyPzlnPamA75MYq4IjjkUnm+8tYSuYhy8upyCn5OMQLcRYykXzr15G0IBV9t4z6g2SInuimovu9W/UDefYFZuN/slSbvAzsF+N3yBoaRT8LDeUQt+oHCtkK+br6njTVILOBU0jflk8T7Wy/d7pVP1CM7sA9+J9AWZUVwM8Q/4Jq5ih0c/0tQ7xVAynhePwVqcyqjAK2rWSwM8Yw9Et9XeG0B4FI5IBn8T+x0i5vA5+tbIgzxyD0qxrNofZyS2SGBuAS0n1L4EvmIRmTfV+humIINgFlJ7nsRKAytkP3xDfLsga4DT/ejL4Yho3b9MMuOxFIzlHAFPxPQl/ydyTirZY4Gjmk0x7L+aQrhXkgIl0QF14XOd/SJIuownJSZagDvoddZZ+vuutKwIKuyF3wTPxPTleyBskbUM33+wC9gb9iN473u+tKwJrOSGDRePxPUFcyCokurEaGIQFLVmM3kXDqX7UMBX6DhHT6nqTWMhf4GtWzGmhCaj5YJoz5mOymOgvEYCNkcjyIzQFSmuQJJBIxyxyH/VauBfi8qw4F0kM34BikaGm1nhesAm5CioRmib2Bx3EzRpc66lMg5QwAvgzcgAQfWYX0tiAhxH8DXjJ6RntZjiS02ExttGw4AHgMdwbyRjfdSj/Vsl/UpB7JFzgYcTUdjNwP9wb6tP2zVIqohYgr6UdINdiPkFXGBOSwaVnbn2tCaiUeYNKDT7IK+AtwC1KXPg10Qfw4zgYOc/jcPyHbwRaHzwwEPkEv4DXcbw9eB36IeFP64ADEEPlIef4I2c90HKgi+iI19lxPhLxMQKr6HoJdurJ+SMnwO4D3PPb1UeT8J1BA2AL4pzdy8DXMsx5rkdRmLyGrhOltMgNxOOqILsh2aYc22RHYC0l57ps/AacSrR81RTAA6WBjxNPN5V44Ks3IWcYKxP14JXK42BO5Xs3Lxr4U7IAbkCInYc8fSDWNyNWkryVytUkzcFGsXyAQSAEXkZ6aAVmVhWS7pmGgxhmBXCf6nkhZlLepvRDpQBWyDe4chqpF/kS6iq8EAoloQMJ9V+F/cqVZPqT6ypsFAuvYB3gT/xMtjXIf1RsKHQisoxG4gOqPZowqM5CowUCgpsghGWxcl1NPiywGLiR49QVqnH2BZ/A/IV3JWiT78eYagxcIVAsHISnBfE9QK1mJ1OkLmXsCgTLsh2wNLFNouZR5SImucMAXCMSgP3AZckjmexLHlWYkT8KJhD1+IJCIeuBg4Fbka+p7cpeTCcjB3lYmIxEI1DidgAORUuGv4T/WYDES/XgG4vEY8EQIB65N+iAG4WAkEecebf+bBS3AJCTf4vi2f76CnFUEPBMMQCDPVkjyjm2BgUhexM2BTdqkO7Kt6Nn255cgCTYWtf1zMZIHcQaSB3Fm27+/BSx11YlAPP4ffQmF7Yil1yAAAAAASUVORK5CYII=;" vertex="1" parent="1">
          <mxGeometry x="-630" y="880" width="44" height="44" as="geometry" />
        </mxCell>
        <mxCell id="NZnQUXiXrCBAcq0i8BXY-121" value="Goals" style="rounded=1;whiteSpace=wrap;html=1;" vertex="1" parent="1">
          <mxGeometry x="280" y="450" width="110" height="30" as="geometry" />
        </mxCell>
        <mxCell id="NZnQUXiXrCBAcq0i8BXY-122" value="" style="rounded=1;whiteSpace=wrap;html=1;" vertex="1" parent="1">
          <mxGeometry x="290" y="710" width="570" height="380" as="geometry" />
        </mxCell>
        <mxCell id="NZnQUXiXrCBAcq0i8BXY-181" value="Calendar &amp;amp; Stats" style="rounded=1;whiteSpace=wrap;html=1;" vertex="1" parent="1">
          <mxGeometry x="290" y="727" width="110" height="30" as="geometry" />
        </mxCell>
        <mxCell id="NZnQUXiXrCBAcq0i8BXY-182" value="Journal" style="rounded=1;whiteSpace=wrap;html=1;fillColor=#ffe6cc;strokeColor=#d79b00;" vertex="1" parent="1">
          <mxGeometry x="290" y="757" width="110" height="30" as="geometry" />
        </mxCell>
        <mxCell id="NZnQUXiXrCBAcq0i8BXY-183" value="Goals" style="rounded=1;whiteSpace=wrap;html=1;" vertex="1" parent="1">
          <mxGeometry x="290" y="787" width="110" height="30" as="geometry" />
        </mxCell>
        <mxCell id="NZnQUXiXrCBAcq0i8BXY-184" value="Today I am ...." style="rounded=1;whiteSpace=wrap;html=1;" vertex="1" parent="1">
          <mxGeometry x="460" y="735" width="340" height="105" as="geometry" />
        </mxCell>
        <mxCell id="NZnQUXiXrCBAcq0i8BXY-185" value="&lt;h1 style=&quot;margin-top: 0px;&quot;&gt;23.05 Entry&lt;/h1&gt;&lt;p&gt;Lorem ipsum dolor sit amet, consectetur adipisicing elit, sed do eiusmod tempor incididunt ut labore et dolore magna aliqua.&lt;/p&gt;" style="text;html=1;whiteSpace=wrap;overflow=hidden;rounded=0;" vertex="1" parent="1">
          <mxGeometry x="475" y="870" width="235" height="90" as="geometry" />
        </mxCell>
        <mxCell id="NZnQUXiXrCBAcq0i8BXY-186" value="&lt;h1 style=&quot;margin-top: 0px;&quot;&gt;21.05 Other Entry&lt;/h1&gt;&lt;p&gt;Lorem ipsum dolor sit amet, consectetur adipisicing elit, sed do eiusmod tempor incididunt ut labore et dolore magna aliqua.&lt;/p&gt;" style="text;html=1;whiteSpace=wrap;overflow=hidden;rounded=0;" vertex="1" parent="1">
          <mxGeometry x="475" y="970" width="235" height="90" as="geometry" />
        </mxCell>
        <mxCell id="NZnQUXiXrCBAcq0i8BXY-188" style="edgeStyle=orthogonalEdgeStyle;rounded=0;orthogonalLoop=1;jettySize=auto;html=1;exitX=0;exitY=0.5;exitDx=0;exitDy=0;" edge="1" parent="1" source="NZnQUXiXrCBAcq0i8BXY-187" target="NZnQUXiXrCBAcq0i8BXY-184">
          <mxGeometry relative="1" as="geometry" />
        </mxCell>
        <mxCell id="NZnQUXiXrCBAcq0i8BXY-187" value="Today entry is always editable.&lt;br&gt;previous -readonly" style="text;html=1;align=center;verticalAlign=middle;whiteSpace=wrap;rounded=0;" vertex="1" parent="1">
          <mxGeometry x="880" y="772.5" width="160" height="30" as="geometry" />
        </mxCell>
        <mxCell id="NZnQUXiXrCBAcq0i8BXY-189" value="Settings" style="rounded=1;whiteSpace=wrap;html=1;" vertex="1" parent="1">
          <mxGeometry x="280" y="480" width="110" height="30" as="geometry" />
        </mxCell>
        <mxCell id="NZnQUXiXrCBAcq0i8BXY-190" value="Settings" style="rounded=1;whiteSpace=wrap;html=1;" vertex="1" parent="1">
          <mxGeometry x="290" y="817" width="110" height="30" as="geometry" />
        </mxCell>
        <mxCell id="NZnQUXiXrCBAcq0i8BXY-191" value="" style="rounded=1;whiteSpace=wrap;html=1;" vertex="1" parent="1">
          <mxGeometry x="990" y="305" width="570" height="380" as="geometry" />
        </mxCell>
        <mxCell id="NZnQUXiXrCBAcq0i8BXY-192" value="Calendar &amp;amp; Stats" style="rounded=1;whiteSpace=wrap;html=1;" vertex="1" parent="1">
          <mxGeometry x="990" y="322" width="110" height="30" as="geometry" />
        </mxCell>
        <mxCell id="NZnQUXiXrCBAcq0i8BXY-193" value="Journal" style="rounded=1;whiteSpace=wrap;html=1;" vertex="1" parent="1">
          <mxGeometry x="990" y="352" width="110" height="30" as="geometry" />
        </mxCell>
        <mxCell id="NZnQUXiXrCBAcq0i8BXY-194" value="Goals" style="rounded=1;whiteSpace=wrap;html=1;fillColor=#ffe6cc;strokeColor=#d79b00;" vertex="1" parent="1">
          <mxGeometry x="990" y="382" width="110" height="30" as="geometry" />
        </mxCell>
        <mxCell id="NZnQUXiXrCBAcq0i8BXY-195" value="Editable Goal text (markdown)" style="rounded=1;whiteSpace=wrap;html=1;" vertex="1" parent="1">
          <mxGeometry x="1160" y="330" width="260" height="100" as="geometry" />
        </mxCell>
        <mxCell id="NZnQUXiXrCBAcq0i8BXY-199" value="Settings" style="rounded=1;whiteSpace=wrap;html=1;" vertex="1" parent="1">
          <mxGeometry x="990" y="412" width="110" height="30" as="geometry" />
        </mxCell>
        <mxCell id="NZnQUXiXrCBAcq0i8BXY-200" value="Editable Goal text (markdown)" style="rounded=1;whiteSpace=wrap;html=1;" vertex="1" parent="1">
          <mxGeometry x="1160" y="430" width="260" height="100" as="geometry" />
        </mxCell>
        <mxCell id="NZnQUXiXrCBAcq0i8BXY-201" value="Editable Goal text (markdown)" style="rounded=1;whiteSpace=wrap;html=1;" vertex="1" parent="1">
          <mxGeometry x="1160" y="530" width="260" height="100" as="geometry" />
        </mxCell>
        <mxCell id="NZnQUXiXrCBAcq0i8BXY-202" value="&lt;font style=&quot;font-size: 25px;&quot;&gt;+&lt;/font&gt;" style="text;html=1;align=center;verticalAlign=middle;whiteSpace=wrap;rounded=0;" vertex="1" parent="1">
          <mxGeometry x="1270" y="640" width="60" height="30" as="geometry" />
        </mxCell>
        <mxCell id="NZnQUXiXrCBAcq0i8BXY-203" value="" style="html=1;dashed=0;aspect=fixed;verticalLabelPosition=bottom;verticalAlign=top;align=center;shape=mxgraph.gmdl.edit;strokeColor=none;fillColor=#737373;shadow=0;sketch=0;" vertex="1" parent="1">
          <mxGeometry x="1380" y="332" width="20" height="20" as="geometry" />
        </mxCell>
        <mxCell id="NZnQUXiXrCBAcq0i8BXY-204" value="" style="html=1;dashed=0;aspect=fixed;verticalLabelPosition=bottom;verticalAlign=top;align=center;shape=mxgraph.gmdl.edit;strokeColor=none;fillColor=#737373;shadow=0;sketch=0;" vertex="1" parent="1">
          <mxGeometry x="1380" y="440" width="20" height="20" as="geometry" />
        </mxCell>
        <mxCell id="NZnQUXiXrCBAcq0i8BXY-205" value="" style="html=1;dashed=0;aspect=fixed;verticalLabelPosition=bottom;verticalAlign=top;align=center;shape=mxgraph.gmdl.edit;strokeColor=none;fillColor=#737373;shadow=0;sketch=0;" vertex="1" parent="1">
          <mxGeometry x="1380" y="540" width="20" height="20" as="geometry" />
        </mxCell>
        <mxCell id="NZnQUXiXrCBAcq0i8BXY-206" value="" style="html=1;verticalLabelPosition=bottom;labelBackgroundColor=#ffffff;verticalAlign=top;shadow=0;dashed=0;strokeWidth=2;shape=mxgraph.ios7.misc.delete;fillColor=#ff0000;strokeColor=#ffffff;sketch=0;" vertex="1" parent="1">
          <mxGeometry x="1400" y="343" width="12" height="12" as="geometry" />
        </mxCell>
        <mxCell id="NZnQUXiXrCBAcq0i8BXY-207" value="" style="html=1;verticalLabelPosition=bottom;labelBackgroundColor=#ffffff;verticalAlign=top;shadow=0;dashed=0;strokeWidth=2;shape=mxgraph.ios7.misc.delete;fillColor=#ff0000;strokeColor=#ffffff;sketch=0;" vertex="1" parent="1">
          <mxGeometry x="1400" y="448" width="12" height="12" as="geometry" />
        </mxCell>
        <mxCell id="NZnQUXiXrCBAcq0i8BXY-208" value="" style="html=1;verticalLabelPosition=bottom;labelBackgroundColor=#ffffff;verticalAlign=top;shadow=0;dashed=0;strokeWidth=2;shape=mxgraph.ios7.misc.delete;fillColor=#ff0000;strokeColor=#ffffff;sketch=0;" vertex="1" parent="1">
          <mxGeometry x="1400" y="550" width="12" height="12" as="geometry" />
        </mxCell>
        <mxCell id="NZnQUXiXrCBAcq0i8BXY-209" value="" style="rounded=1;whiteSpace=wrap;html=1;" vertex="1" parent="1">
          <mxGeometry x="1030" y="720" width="570" height="380" as="geometry" />
        </mxCell>
        <mxCell id="NZnQUXiXrCBAcq0i8BXY-210" value="Calendar &amp;amp; Stats" style="rounded=1;whiteSpace=wrap;html=1;" vertex="1" parent="1">
          <mxGeometry x="1030" y="737" width="110" height="30" as="geometry" />
        </mxCell>
        <mxCell id="NZnQUXiXrCBAcq0i8BXY-211" value="Journal" style="rounded=1;whiteSpace=wrap;html=1;" vertex="1" parent="1">
          <mxGeometry x="1030" y="767" width="110" height="30" as="geometry" />
        </mxCell>
        <mxCell id="NZnQUXiXrCBAcq0i8BXY-212" value="Goals" style="rounded=1;whiteSpace=wrap;html=1;" vertex="1" parent="1">
          <mxGeometry x="1030" y="797" width="110" height="30" as="geometry" />
        </mxCell>
        <mxCell id="NZnQUXiXrCBAcq0i8BXY-213" value="Editable Emotion&amp;nbsp;" style="rounded=1;whiteSpace=wrap;html=1;" vertex="1" parent="1">
          <mxGeometry x="1200" y="767" width="260" height="33" as="geometry" />
        </mxCell>
        <mxCell id="NZnQUXiXrCBAcq0i8BXY-214" value="Settings" style="rounded=1;whiteSpace=wrap;html=1;fillColor=#ffe6cc;strokeColor=#d79b00;" vertex="1" parent="1">
          <mxGeometry x="1030" y="827" width="110" height="30" as="geometry" />
        </mxCell>
        <mxCell id="NZnQUXiXrCBAcq0i8BXY-217" value="&lt;font style=&quot;font-size: 25px;&quot;&gt;+&lt;/font&gt;" style="text;html=1;align=center;verticalAlign=middle;whiteSpace=wrap;rounded=0;" vertex="1" parent="1">
          <mxGeometry x="1300" y="870" width="60" height="30" as="geometry" />
        </mxCell>
        <mxCell id="NZnQUXiXrCBAcq0i8BXY-218" value="" style="html=1;dashed=0;aspect=fixed;verticalLabelPosition=bottom;verticalAlign=top;align=center;shape=mxgraph.gmdl.edit;strokeColor=none;fillColor=#737373;shadow=0;sketch=0;" vertex="1" parent="1">
          <mxGeometry x="1420" y="769" width="20" height="20" as="geometry" />
        </mxCell>
        <mxCell id="NZnQUXiXrCBAcq0i8BXY-221" value="" style="html=1;verticalLabelPosition=bottom;labelBackgroundColor=#ffffff;verticalAlign=top;shadow=0;dashed=0;strokeWidth=2;shape=mxgraph.ios7.misc.delete;fillColor=#ff0000;strokeColor=#ffffff;sketch=0;" vertex="1" parent="1">
          <mxGeometry x="1440" y="780" width="12" height="12" as="geometry" />
        </mxCell>
        <mxCell id="NZnQUXiXrCBAcq0i8BXY-224" value="RED Button" style="text;html=1;align=center;verticalAlign=middle;whiteSpace=wrap;rounded=0;" vertex="1" parent="1">
          <mxGeometry x="1200" y="727" width="140" height="30" as="geometry" />
        </mxCell>
        <mxCell id="NZnQUXiXrCBAcq0i8BXY-225" style="edgeStyle=orthogonalEdgeStyle;rounded=0;orthogonalLoop=1;jettySize=auto;html=1;exitX=0.5;exitY=1;exitDx=0;exitDy=0;" edge="1" parent="1" source="NZnQUXiXrCBAcq0i8BXY-213" target="NZnQUXiXrCBAcq0i8BXY-213">
          <mxGeometry relative="1" as="geometry" />
        </mxCell>
        <mxCell id="NZnQUXiXrCBAcq0i8BXY-226" value="Editable Emotion&amp;nbsp;" style="rounded=1;whiteSpace=wrap;html=1;" vertex="1" parent="1">
          <mxGeometry x="1200" y="802.5" width="260" height="33" as="geometry" />
        </mxCell>
        <mxCell id="NZnQUXiXrCBAcq0i8BXY-227" value="Editable Emotion&amp;nbsp;" style="rounded=1;whiteSpace=wrap;html=1;" vertex="1" parent="1">
          <mxGeometry x="1200" y="837" width="260" height="33" as="geometry" />
        </mxCell>
        <mxCell id="NZnQUXiXrCBAcq0i8BXY-228" value="Green Button" style="text;html=1;align=center;verticalAlign=middle;whiteSpace=wrap;rounded=0;" vertex="1" parent="1">
          <mxGeometry x="1210" y="910" width="140" height="30" as="geometry" />
        </mxCell>
        <mxCell id="NZnQUXiXrCBAcq0i8BXY-229" value="Editable Emotion&amp;nbsp;" style="rounded=1;whiteSpace=wrap;html=1;" vertex="1" parent="1">
          <mxGeometry x="1200" y="937" width="260" height="33" as="geometry" />
        </mxCell>
        <mxCell id="NZnQUXiXrCBAcq0i8BXY-230" value="Editable Emotion&amp;nbsp;" style="rounded=1;whiteSpace=wrap;html=1;" vertex="1" parent="1">
          <mxGeometry x="1200" y="973" width="260" height="33" as="geometry" />
        </mxCell>
        <mxCell id="NZnQUXiXrCBAcq0i8BXY-231" value="Editable Emotion&amp;nbsp;" style="rounded=1;whiteSpace=wrap;html=1;" vertex="1" parent="1">
          <mxGeometry x="1200" y="1008" width="260" height="33" as="geometry" />
        </mxCell>
        <mxCell id="NZnQUXiXrCBAcq0i8BXY-232" value="&lt;font style=&quot;font-size: 25px;&quot;&gt;+&lt;/font&gt;" style="text;html=1;align=center;verticalAlign=middle;whiteSpace=wrap;rounded=0;" vertex="1" parent="1">
          <mxGeometry x="1300" y="1050" width="60" height="30" as="geometry" />
        </mxCell>
        <mxCell id="NZnQUXiXrCBAcq0i8BXY-233" value="Want another one&amp;nbsp;" style="rounded=1;whiteSpace=wrap;html=1;" vertex="1" parent="1">
          <mxGeometry x="-150" y="937" width="110" height="30" as="geometry" />
        </mxCell>
        <mxCell id="NZnQUXiXrCBAcq0i8BXY-235" style="edgeStyle=orthogonalEdgeStyle;rounded=0;orthogonalLoop=1;jettySize=auto;html=1;exitX=0.5;exitY=0;exitDx=0;exitDy=0;entryX=1;entryY=0.5;entryDx=0;entryDy=0;" edge="1" parent="1" source="NZnQUXiXrCBAcq0i8BXY-234" target="NZnQUXiXrCBAcq0i8BXY-115">
          <mxGeometry relative="1" as="geometry" />
        </mxCell>
        <mxCell id="NZnQUXiXrCBAcq0i8BXY-234" value="&lt;span style=&quot;font-size: 11px; text-wrap-mode: nowrap; background-color: rgb(255, 255, 255);&quot;&gt;It is a widget itself&lt;br&gt;&lt;br&gt;could be a text&lt;br&gt;could be a text input for journal entry&lt;br&gt;could be a chat&lt;/span&gt;" style="text;html=1;align=center;verticalAlign=middle;whiteSpace=wrap;rounded=0;" vertex="1" parent="1">
          <mxGeometry x="-100" y="1120" width="60" height="30" as="geometry" />
        </mxCell>
      </root>
    </mxGraphModel>
  </diagram>
</mxfile>
